<?xml version="1.0" encoding="UTF-8"?>
<svg width="1280px" height="500px" viewBox="0 0 1280 500" version="1.1" xmlns="http://www.w3.org/2000/svg" xmlns:xlink="http://www.w3.org/1999/xlink">
    <title>github-banner-rev3</title>
    <g id="Page-1" stroke="none" stroke-width="1" fill="none" fill-rule="evenodd">
        <g id="Group" fill="#000000" stroke="#000000">
            <path d="M681.74761,465.689938 L681.74761,491.462012 C681.74761,494.15744 681.02104,496.25427 679.567878,497.752567 C678.114715,499.250863 676.019134,500 673.281071,500 C672.133837,500 671.040158,499.872007 670,499.616016 L670,494.443532 C670.795415,494.579056 671.491393,494.646817 672.087954,494.646817 C674.091788,494.646817 675.09369,493.600284 675.09369,491.507187 L675.09369,465.689938 L681.74761,465.689938 Z M818,456 L818,491.537275 L812.110769,491.537275 L811.794872,488.876607 C810.170248,490.958879 808.079329,492 805.522051,492 C802.648875,492 800.343598,490.839343 798.606154,488.517995 C796.868709,486.196646 796,482.969172 796,478.835476 C796,474.933142 796.853667,471.825204 798.561026,469.511568 C800.268385,467.197932 802.603746,466.041131 805.567179,466.041131 C807.943944,466.041131 809.907001,466.951148 811.45641,468.771208 L811.45641,456 L818,456 Z M662,483 C664.209139,483 666,484.790861 666,487 C666,489.209139 664.209139,491 662,491 C659.790861,491 658,489.209139 658,487 C658,484.790861 659.790861,483 662,483 Z M919.313646,466 C922.629344,466 925.239298,467.039799 927.143585,469.11943 C929.047871,471.19906 930,474.147634 930,477.965241 L930,480.594474 L914.564155,480.594474 C914.773253,482.169051 915.404272,483.431665 916.45723,484.382353 C917.510189,485.333041 918.843169,485.808378 920.456212,485.808378 C922.950454,485.808378 924.899518,484.909694 926.303462,483.112299 L929.484725,486.65508 C928.513912,488.021694 927.199601,489.087489 925.541752,489.852496 C923.883902,490.617502 922.046853,491 920.03055,491 C916.475882,491 913.582156,489.915638 911.349287,487.746881 C909.116418,485.578123 908,482.688966 908,479.079323 L908,478.455437 C908,476.034153 908.470464,473.869142 909.411405,471.960339 C910.352347,470.051535 911.685327,468.580962 913.410387,467.548574 C915.135447,466.516186 917.10318,466 919.313646,466 Z M550.178547,466 L553.301038,481.896488 L557.685813,466 L562.314187,466 L566.676817,481.919593 L569.821453,466 L576,466 L569.887889,491 L564.52872,491 L559.988927,475.26525 L555.449135,491 L550.112111,491 L544,466 L550.178547,466 Z M695.490909,466 L695.490909,481.857532 C695.490909,484.413503 696.643839,485.69147 698.949733,485.69147 C701.150813,485.69147 702.663097,484.920153 703.486631,483.377495 L703.486631,466 L710,466 L710,490.546279 L703.890909,490.546279 L703.71123,488.050817 C702.109083,490.016949 699.893062,491 697.063102,491 C694.457741,491 692.47006,490.243807 691.1,488.731397 C689.72994,487.218988 689.029947,485.003342 689,482.084392 L689,466 L695.490909,466 Z M735.632716,466.65321 L735.632716,491 L729.367284,491 L729.367284,466.65321 L735.632716,466.65321 Z M722,456 L722,491 L716,491 L716,456 L722,456 Z M752.068607,466 C755.117825,466 757.538106,466.746427 759.329522,468.239305 C761.120938,469.732182 762.016632,471.830349 762.016632,474.533868 L762.016632,484.983957 C762.031878,487.27155 762.359664,489.002074 763,490.175579 L763,490.554367 L756.322245,490.554367 C756.017323,489.975042 755.796258,489.254609 755.659044,488.393048 C754.058204,490.131025 751.977144,491 749.4158,491 C746.991672,491 744.983029,490.316703 743.389813,488.950089 C741.796596,487.583475 741,485.860379 741,483.780749 C741,481.225775 741.971924,479.26501 743.9158,477.898396 C745.859677,476.531782 748.668727,475.841058 752.343035,475.826203 L755.384615,475.826203 L755.384615,474.444742 C755.384615,473.330654 755.091133,472.439397 754.504158,471.770945 C753.917183,471.102492 752.990997,470.768271 751.725572,470.768271 C750.612607,470.768271 749.739781,471.028221 749.107069,471.548128 C748.474356,472.068036 748.158004,472.781041 748.158004,473.687166 L741.548857,473.687166 C741.548857,472.290843 741.990987,470.99852 742.87526,469.81016 C743.759533,468.6218 745.009694,467.689694 746.62578,467.013815 C748.241865,466.337935 750.056123,466 752.068607,466 Z M589.178547,466 L592.301038,481.896488 L596.685813,466 L601.314187,466 L605.676817,481.919593 L608.821453,466 L615,466 L608.887889,491 L603.52872,491 L598.988927,475.26525 L594.449135,491 L589.112111,491 L583,466 L589.178547,466 Z M856,483 C858.209139,483 860,484.790861 860,487 C860,489.209139 858.209139,491 856,491 C853.790861,491 852,489.209139 852,487 C852,484.790861 853.790861,483 856,483 Z M894.147002,466 C896.794769,466 898.765521,466.775098 900.059317,468.325318 C901.353112,469.875537 902,472.208393 902,475.323956 L902,491 L895.455835,491 L895.455835,475.346642 C895.455835,473.955226 895.185045,472.938146 894.643456,472.295372 C894.101867,471.652598 893.146579,471.331216 891.777563,471.331216 C889.821826,471.331216 888.467874,472.268896 887.715667,474.144283 L887.738233,491 L881.216634,491 L881.216634,475.369328 C881.216634,473.947664 880.938322,472.919241 880.381689,472.284029 C879.825056,471.648817 878.87729,471.331216 877.538362,471.331216 C875.687934,471.331216 874.349026,472.102533 873.521599,473.645191 L873.521599,491 L867,491 L867,466.453721 L873.115409,466.453721 L873.318504,469.19873 C875.048579,467.066233 877.387907,466 880.336557,466 C883.480781,466 885.639581,467.247719 886.813024,469.743194 C888.528055,467.247719 890.97269,466 894.147002,466 Z M627.178547,466 L630.301038,481.896488 L634.685813,466 L639.314187,466 L643.676817,481.919593 L646.821453,466 L653,466 L646.887889,491 L641.52872,491 L636.988927,475.26525 L632.449135,491 L627.112111,491 L621,466 L627.178547,466 Z M782.310493,466 C784.888664,466 786.807274,466.763755 788.066381,468.291289 C789.325488,469.818822 789.970021,472.102526 790,475.142468 L790,491 L783.502141,491 L783.502141,475.30127 C783.502141,473.909854 783.202358,472.900336 782.602784,472.272686 C782.003209,471.645036 781.006431,471.331216 779.61242,471.331216 C777.783717,471.331216 776.41221,472.117657 775.497859,473.690563 L775.497859,491 L769,491 L769,466.453721 L775.115632,466.453721 L775.317987,469.289474 C777.056754,467.09648 779.387566,466 782.310493,466 Z M834.068607,466 C837.117825,466 839.538106,466.746427 841.329522,468.239305 C843.120938,469.732182 844.016632,471.830349 844.016632,474.533868 L844.016632,484.983957 C844.031878,487.27155 844.359664,489.002074 845,490.175579 L845,490.554367 L838.322245,490.554367 C838.017323,489.975042 837.796258,489.254609 837.659044,488.393048 C836.058204,490.131025 833.977144,491 831.4158,491 C828.991672,491 826.983029,490.316703 825.389813,488.950089 C823.796596,487.583475 823,485.860379 823,483.780749 C823,481.225775 823.971924,479.26501 825.9158,477.898396 C827.859677,476.531782 830.668727,475.841058 834.343035,475.826203 L837.384615,475.826203 L837.384615,474.444742 C837.384615,473.330654 837.091133,472.439397 836.504158,471.770945 C835.917183,471.102492 834.990997,470.768271 833.725572,470.768271 C832.612607,470.768271 831.739781,471.028221 831.107069,471.548128 C830.474356,472.068036 830.158004,472.781041 830.158004,473.687166 L823.548857,473.687166 C823.548857,472.290843 823.990987,470.99852 824.87526,469.81016 C825.759533,468.6218 827.009694,467.689694 828.62578,467.013815 C830.241865,466.337935 832.056123,466 834.068607,466 Z M807.236923,471.478149 C804.092976,471.478149 802.521026,474.092519 802.521026,479.321337 C802.521026,481.665821 802.919654,483.462719 803.716923,484.712082 C804.514192,485.961446 805.672471,486.586118 807.191795,486.586118 C809.207531,486.586118 810.629056,485.714662 811.45641,483.971722 L811.45641,474.092545 C810.644099,472.349606 809.237617,471.478149 807.236923,471.478149 Z M837.384615,479.5918 L834.914761,479.5918 C831.606359,479.5918 829.845462,480.705871 829.632017,482.934046 L829.609148,483.312834 C829.609148,484.114977 829.898819,484.775993 830.47817,485.2959 C831.057522,485.815808 831.850307,486.075758 832.856549,486.075758 C833.832299,486.075758 834.731805,485.864084 835.555094,485.440731 C836.378382,485.017378 836.988217,484.449201 837.384615,483.736185 L837.384615,479.5918 Z M755.384615,479.5918 L752.914761,479.5918 C749.606359,479.5918 747.845462,480.705871 747.632017,482.934046 L747.609148,483.312834 C747.609148,484.114977 747.898819,484.775993 748.47817,485.2959 C749.057522,485.815808 749.850307,486.075758 750.856549,486.075758 C751.832299,486.075758 752.731805,485.864084 753.555094,485.440731 C754.378382,485.017378 754.988217,484.449201 755.384615,483.736185 L755.384615,479.5918 Z M919.291242,471.213904 C918.006782,471.213904 916.965041,471.644678 916.165988,472.506239 C915.366934,473.3678 914.855398,474.600705 914.631365,476.204991 L923.637475,476.204991 L923.637475,475.692513 C923.607603,474.266481 923.219284,473.163551 922.472505,472.38369 C921.725726,471.603829 920.665316,471.213904 919.291242,471.213904 Z M732.5,457 C733.565849,457 734.415635,457.31502 735.049383,457.945069 C735.683131,458.575119 736,459.37767 736,460.352747 C736,461.342824 735.67953,462.152876 735.03858,462.782925 C734.397631,463.412975 733.551446,463.727995 732.5,463.727995 C731.448554,463.727995 730.602369,463.412975 729.96142,462.782925 C729.32047,462.152876 729,461.342824 729,460.352747 C729,459.37767 729.313268,458.575119 729.939815,457.945069 C730.566361,457.31502 731.419748,457 732.5,457 Z M678.282983,456 C679.430216,456 680.336517,456.316219 681.001912,456.948665 C681.667307,457.581112 682,458.386717 682,459.365503 C682,460.359348 681.659659,461.172481 680.978967,461.804928 C680.298276,462.437375 679.399623,462.753593 678.282983,462.753593 C677.166342,462.753593 676.26769,462.437375 675.586998,461.804928 C674.906306,461.172481 674.565966,460.359348 674.565966,459.365503 C674.565966,458.386717 674.898658,457.581112 675.564054,456.948665 C676.229449,456.316219 677.13575,456 678.282983,456 Z" id="www.julianda.me"></path>
        </g>
        <g id="julianda-c" transform="translate(-11.000000, 2.000000)">
            <rect id="Rectangle" x="0" y="0" width="1280" height="500"></rect>
            <g id="kucing" transform="translate(128.000000, 342.000000)" fill-rule="nonzero">
                <g id="ground" transform="translate(0.000000, 118.167086)" fill="#000000">
                    <path d="M1.31618656,3.83291352 C34.1053955,3.83291352 66.8946045,3.83291352 99.6838134,3.83291352 C101.438729,3.83291352 101.438729,0.832913518 99.6838134,0.832913518 C66.8946045,0.832913518 34.1053955,0.832913518 1.31618656,0.832913518 C-0.438728852,0.832913518 -0.438728852,3.83291352 1.31618656,3.83291352 L1.31618656,3.83291352 Z" id="Path"></path>
                    <path d="M105.321233,30.8329135 C175.137984,30.8329135 244.862016,30.8329135 314.678767,30.8329135 C316.440411,30.8329135 316.440411,27.8329135 314.678767,27.8329135 C244.862016,27.8329135 175.137984,27.8329135 105.321233,27.8329135 C103.559589,27.8329135 103.559589,30.8329135 105.321233,30.8329135 L105.321233,30.8329135 Z" id="Path"></path>
                    <path d="M829.38896,29.8329135 C899.392521,29.8329135 969.48868,29.8329135 1039.49224,29.8329135 C1059.58586,29.8329135 1079.58687,29.8329135 1099.68049,29.8329135 C1101.43984,29.8329135 1101.43984,26.8329135 1099.68049,26.8329135 C1029.67693,26.8329135 959.580768,26.8329135 889.577207,26.8329135 C869.483592,26.8329135 849.482574,26.8329135 829.38896,26.8329135 C827.537013,26.8329135 827.537013,29.8329135 829.38896,29.8329135 L829.38896,29.8329135 Z" id="Path"></path>
                </g>
                <g id="cat" transform="translate(840.000000, 0.000000)">
                    <g id="paw_front_right" transform="translate(75.000000, 69.000000)" fill="#000000" stroke="#000000" stroke-width="3">
                        <path d="M0.75,4.12307692 C-1.2,7.28901099 1.575,10.9703297 7.95,24.8120879 C17.7,45.9428571 17.25,50.8021978 15.675,54.0417582 C13.05,59.3428571 7.425,60.0054945 7.95,62.5824176 C8.7,66.3373626 21.075,69.2087912 25.425,64.5703297 C27.375,62.5087912 27.075,59.6373626 26.475,53.9681319 C23.775,30.4813187 23.25,28.7879121 22.35,21.6461538 C20.775,8.98241758 21.6,5.74285714 18.225,2.94505495 C13.2,-0.957142857 3.45,-0.147252747 0.75,4.12307692 Z" id="Path"></path>
                    </g>
                    <g id="leg_back_right" transform="translate(187.000000, 68.000000)" fill="#000000" stroke="#000000" stroke-width="3">
                        <path d="M4.144,1.61632653 C9.694,-2.27755102 19.388,1.83673469 24.42,6.68571429 C28.638,10.6530612 27.676,13.2979592 32.56,16.7510204 C33.67,17.5591837 38.776,21.1591837 45.214,20.7918367 C50.172,20.4979592 51.134,18.0734694 54.834,18.8081633 C57.424,19.2489796 58.534,20.7183673 63.492,25.3469388 C71.262,32.6938776 74.148,34.3836735 73.63,35.4122449 C73.112,36.3673469 70.67,35.8530612 59.94,34.3836735 C52.096,33.2816327 48.026,32.7673469 45.214,32.6204082 C38.776,32.3265306 38.48,33.1346939 29.008,33.355102 C19.24,33.6489796 14.282,33.6489796 10.73,31.8122449 C2.812,27.6979592 0.74,18.5877551 0.592,17.7061224 C0.37,16.5306122 -1.776,5.73061224 4.144,1.61632653 Z" id="Path"></path>
                    </g>
                    <g id="body" transform="translate(70.000000, 41.000000)" fill="#000000" stroke="#000000" stroke-width="3">
                        <path d="M14.2210526,0.0739583333 C19.0105263,0.221875 21.0736842,5.84270833 25.3473684,10.7239583 C36.4736842,23.5927083 55.8526316,24.0364583 71.7684211,24.40625 C101.831579,25.071875 109.936842,13.6083333 124.305263,21.3739583 C132.189474,25.6635417 139.631579,34.4645833 139.484211,44.153125 C139.263158,56.8 126.073684,65.7489583 116.789474,69.003125 C108.536842,71.8875 104.042105,70.1125 81.4210526,65.9708333 C45.0210526,59.240625 37.8,60.2760417 23.8736842,52.2885417 C15.9157895,47.703125 8.76842105,41.8604167 4.2,33.059375 C2.28421053,29.3614583 -0.736842105,23.2229167 0.663157895,15.8270833 C2.06315789,8.06145833 8.25263158,-0.147916667 14.2210526,0.0739583333 Z" id="Path"></path>
                    </g>
                    <g id="tail" transform="translate(189.000000, 0.000000)" fill="#000000" stroke="#000000" stroke-width="3">
                        <path d="M0.883516484,62.9411765 C2.42967033,60.8088235 8.54065934,66.1764706 15.0197802,63.4558824 C20.5417582,61.1029412 23.0450549,54.2647059 24.5912088,49.8529412 C27.4626374,41.9852941 25.5483516,39.1911765 28.6406593,36.25 C31.5857143,33.3823529 34.1626374,35.2205882 42.7769231,32.7205882 C48.5934066,31.0294118 53.3054945,29.7058824 55.8824176,25.6617647 C57.943956,22.4264706 56.4714286,20.8088235 57.8703297,12.5735294 C58.3120879,10.0735294 60.0054945,0.0735294118 62.4351648,8.35930717e-14 C64.2021978,-0.0735294118 66.3373626,5.22058824 66.4846154,10.0735294 C66.5582418,12.0588235 66.2637363,13.4558824 63.4659341,22.6470588 C61.6989011,28.3823529 60.8153846,31.25 60.4472527,31.6911765 C56.8395604,36.1764706 52.0538462,33.9705882 42.7769231,38.2352941 C38.2857143,40.2941176 33.9417582,42.2794118 31.6593407,46.7647059 C29.5978022,50.8823529 31.3648352,52.7205882 29.156044,58.8235294 C27.0945055,64.4117647 23.7813187,67.7205882 23.1186813,68.3823529 C20.689011,70.8088235 15.756044,75.5882353 10.0131868,74.4117647 C3.53406593,73.2352941 -0.662637363,65.0735294 0.883516484,62.9411765 Z" id="Path"></path>
                    </g>
                    <g id="_x3B_eg_back_left" transform="translate(170.000000, 82.000000)" fill="#000000" stroke="#000000" stroke-width="3">
                        <path d="M2.8826087,16.1761364 C1.99565217,17.9488636 -0.517391304,23.0454545 0.369565217,29.3238636 C1.25652174,35.75 5.24782609,41.2897727 7.9826087,44.9829545 C11.7521739,50.2272727 13.9695652,51.3352273 13.526087,53.5511364 C12.7130435,58.4261364 1.77391304,58.7954545 1.84782609,61.1590909 C1.99565217,63.5227273 13.0826087,64.7045455 21.5826087,64.1875 C27.9391304,63.8181818 29.4173913,62.7102273 30.2304348,61.6761364 C32.0043478,59.1647727 30.0086957,56.2102273 29.1956522,49.5625 C28.6043478,44.8352273 29.0478261,41.5113636 29.7130435,35.8977273 C30.8217391,26.6647727 32.5956522,26.0738636 33.2608696,19.2045455 C33.7782609,13.7386364 34.6652174,4.65340909 30.2304348,1.47727273 C24.1695652,-2.80681818 8.72173913,4.65340909 2.8826087,16.1761364 Z" id="Path"></path>
                    </g>
                    <g id="paw_front_left" transform="translate(0.000000, 24.000000)" fill="#000000">
                        <path d="M22.4695652,27.684507 C23.6521739,33.6169014 30.1565217,37.3521127 39.6913043,41.2338028 C49.8173913,45.4084507 78.4956522,57.1267606 83.7434783,49.2901408 C85.073913,47.3126761 84.6304348,44.5295775 83.7434783,42.771831 C81.526087,38.5971831 75.4652174,39.0366197 64.9695652,37.2788732 C55.8043478,35.7408451 47.3043478,34.3492958 38.6565217,29.7352113 C30.673913,25.5605634 25.9434783,20.5070423 23.4304348,22.1915493 C21.6565217,23.4366197 22.3956522,27.3183099 22.4695652,27.684507 Z" id="Path" stroke="#000000" stroke-width="3"></path>
                        <path d="M10.9391304,1.83098592 C13.2304348,5.63943662 16.0391304,9.08169014 19.3652174,12.1577465 C20.4,13.1098592 21.9521739,11.571831 20.9173913,10.6197183 C17.7391304,7.69014085 15.0782609,4.3943662 12.8608696,0.732394366 C12.1217391,-0.512676056 10.2,0.585915493 10.9391304,1.83098592 L10.9391304,1.83098592 Z" id="Path"></path>
                        <path d="M1.40434783,7.32394366 C3.69565217,10.1070423 6.65217391,12.084507 9.97826087,13.256338 C11.3086957,13.7690141 11.9,11.6450704 10.5695652,11.1323944 C7.53913043,10.0338028 4.95217391,8.2028169 2.95652174,5.78591549 C2.06956522,4.68732394 0.517391304,6.22535211 1.40434783,7.32394366 L1.40434783,7.32394366 Z" id="Path"></path>
                        <path d="M1.77391304,21.7521127 C3.84347826,21.971831 5.91304348,22.1183099 8.05652174,22.3380282 C9.46086957,22.484507 9.46086957,20.2873239 8.05652174,20.1408451 C5.98695652,19.9211268 3.9173913,19.7746479 1.77391304,19.5549296 C0.369565217,19.4084507 0.369565217,21.6056338 1.77391304,21.7521127 L1.77391304,21.7521127 Z" id="Path"></path>
                    </g>
                    <g id="head_1_" transform="translate(43.000000, 19.000000)">
                        <path d="M19.6612903,11.5938462 C17.0645161,12.6276923 12.983871,14.5476923 8.97741935,18.1661538 C5.56451613,21.2676923 2.3,24.2215385 1.85483871,28.2830769 C1.03870968,35.6676923 10.0903226,42.6830769 17.1387097,45.4892308 C18.4,46.0061538 33.3129032,51.6184615 41.5483871,42.9784615 C47.1129032,37.0707692 45.8516129,28.6523077 45.6290323,27.3230769 C43.9225806,16.32 33.9806452,11.1507692 32.9419355,10.6338462 C30.4193548,7.23692308 27.8225806,3.91384615 25.3,0.516923077 C23.4451613,4.20923077 21.5903226,7.90153846 19.6612903,11.5938462 Z" id="Path" stroke="#000000" stroke-width="3" fill="#000000"></path>
                        <path d="M12.7612903,21.5630769 C13.8741935,24.7384615 16.8419355,26.88 20.2548387,26.8061538 C21.6645161,26.7323077 21.6645161,24.5169231 20.2548387,24.5907692 C17.8806452,24.6646154 15.6548387,23.1876923 14.9129032,20.9723077 C14.3935484,19.6430769 12.2419355,20.2338462 12.7612903,21.5630769 L12.7612903,21.5630769 Z" id="Path" fill="#FFFFFF"></path>
                        <path d="M1.92903226,26.8061538 C2.59677419,26.8061538 2.89354839,27.0276923 2.96774194,27.5446154 C2.74516129,27.7661538 2.59677419,28.0615385 2.37419355,28.2830769 C1.92903226,28.4307692 1.85483871,28.2092308 1.70645161,28.0615385 C1.63225806,27.9876923 1.70645161,27.9138462 1.63225806,27.9876923 C1.55806452,28.0615385 1.55806452,28.2830769 1.48387097,28.4307692 C1.92903226,28.2092308 2.37419355,27.9138462 2.81935484,27.6923077 C2.89354839,27.7661538 2.89354839,27.7661538 2.81935484,27.6923077 C2.89354839,27.6923077 2.89354839,27.7661538 2.89354839,27.7661538 C2.96774194,27.84 2.89354839,27.84 2.89354839,27.6923077 C2.96774194,27.7661538 2.96774194,27.7661538 2.89354839,27.6923077 C2.81935484,27.1015385 2.07741935,26.8061538 1.55806452,26.9538462 C0.964516129,27.1015385 0.667741935,27.6923077 0.816129032,28.2830769 C0.964516129,29.0215385 1.55806452,29.6123077 2.3,29.8338462 C2.89354839,30.0553846 3.41290323,29.6123077 3.63548387,29.0953846 C3.93225806,28.4307692 4.00645161,27.6923077 3.63548387,27.1015385 C3.26451613,26.4369231 2.4483871,26.0676923 1.70645161,26.2892308 C0.964516129,26.5107692 0.593548387,27.3230769 0.741935484,28.0615385 C0.964516129,28.8 1.70645161,29.3169231 2.4483871,29.0953846 C3.04193548,28.9476923 3.41290323,28.3569231 3.19032258,27.7661538 C3.11612903,27.0276923 2.52258065,26.6584615 1.92903226,26.8061538 L1.92903226,26.8061538 Z" id="Path" fill="#FFFFFF"></path>
                        <path d="M1.48387097,28.7261538 C2.59677419,32.4923077 7.0483871,34.3384615 10.4612903,32.5661538 C11.7225806,31.9015385 10.6096774,29.9815385 9.3483871,30.6461538 C7.12258065,31.7538462 4.30322581,30.4246154 3.63548387,28.1353846 C3.26451613,26.7323077 1.11290323,27.3230769 1.48387097,28.7261538 L1.48387097,28.7261538 Z" id="Path" fill="#FFFFFF"></path>
                    </g>
                </g>
                <g id="books" transform="translate(196.000000, 5.000000)" fill="#000000">
                    <path d="M40,6.703125 C41.6662562,7.015625 44.0899015,7.484375 47.1194581,7.875 C61.5855911,10.0625 71.8860837,9.984375 84.6102217,10.140625 C92.2598522,10.21875 103.544951,10.453125 117.708128,11 C132.780172,9.90625 147.927956,8.8125 163,7.640625 C142.171798,5.453125 121.343596,3.1875 100.515394,1 C80.2931034,2.875 60.1465517,4.75 40,6.703125 Z" id="Path"></path>
                    <path d="M85,53.3913043 C89.3520679,54.2608696 93.7041357,55.1304348 98.0562036,56 C113.173913,55.1304348 129.742312,52.9565217 147.226935,48.6086957 C150.586426,47.8115942 153.869565,46.942029 157,46 C133.025451,48.4637681 109.050901,50.9275362 85,53.3913043 Z" id="Path"></path>
                    <path d="M41,113.121439 C41.0759607,119.544228 41.1519214,126.043478 41.227882,132.466267 C76.3217158,136.977511 111.49151,141.488756 146.585344,146 C146.585344,139.577211 146.585344,133.077961 146.585344,126.655172 C168.082216,117.02099 189.503128,107.386807 211,97.7526237 C204.999106,96.8350825 198.998213,95.9175412 192.997319,95 C192.313673,96.0704648 191.630027,97.1409295 191.022341,98.2878561 C164.967828,106.392804 138.913315,114.574213 112.858803,122.67916 C88.9311886,119.467766 64.9276139,116.256372 41,113.121439 Z" id="Path"></path>
                    <path d="M2,26.2072539 C28.2406903,29.4715026 54.5572207,32.7357513 80.797911,36 C102.791553,35.4559585 125.922797,33.9792746 150.039964,31.2590674 C156.486376,30.5595855 162.781108,29.7046632 169,28.8497409 C162.401907,26.8290155 155.879655,24.7305699 149.281562,22.7098446 C136.161217,23.9533679 122.965032,25.1968912 109.844687,26.4404145 C84.8932788,24.6528497 60.0177112,22.7875648 35.0663034,21 C24.0694823,22.7098446 12.9968211,24.4196891 2,26.2072539 Z" id="Path"></path>
                    <path d="M101,73.3211679 C109.142266,74.5474453 117.360629,75.7737226 125.502895,77 C148.027295,71.0985401 170.4756,65.2737226 193,59.3722628 C185.542597,58.2226277 178.16129,57.149635 170.703888,56 C147.418528,61.8248175 124.209264,67.5729927 101,73.3211679 Z" id="Path"></path>
                    <path d="M7,92.0152905 C41.6666667,96.9847095 76.2573099,102.030581 110.923977,107 C121.643275,104.706422 132.818713,102.030581 144.450292,98.8195719 C160.415205,94.4617737 175.239766,89.6452599 189,84.7522936 C183.830409,83.8348624 178.660819,82.9174312 173.491228,82 C157.298246,86.5107034 141.105263,91.0214067 124.836257,95.5321101 C96.0994152,91.5565749 67.3625731,87.6574924 38.625731,83.6819572 C28.1345029,86.5107034 17.5672515,89.2629969 7,92.0152905 Z" id="Path"></path>
                    <path d="M36,9.08830549 C36,13.6706444 36,18.3293556 36,22.9116945 C36,24.3627685 38,24.3627685 38,22.9116945 C38,18.3293556 38,13.6706444 38,9.08830549 C38,7.6372315 36,7.6372315 36,9.08830549 L36,9.08830549 Z" id="Path"></path>
                    <path d="M37.1398489,9.30783688 C64.0402838,10.2302198 91.0167086,11.0757376 117.917144,11.9981205 C119.360952,12.0749858 119.360952,9.76902837 117.917144,9.69216312 C91.0167086,8.76978015 64.0402838,7.92426243 37.1398489,7.00187946 C35.6200504,6.92501421 35.6200504,9.23097163 37.1398489,9.30783688 L37.1398489,9.30783688 Z" id="Path"></path>
                    <path d="M37.1315062,24.3992178 C61.4211717,24.8790614 85.7108373,26.0786703 109.925069,27.9980445 C111.35831,28.0780185 111.35831,25.6788006 109.925069,25.5988267 C85.7108373,23.7594264 61.4211717,22.5598175 37.1315062,22 C35.6228313,22 35.6228313,24.3992178 37.1315062,24.3992178 L37.1315062,24.3992178 Z" id="Path"></path>
                    <path d="M118.11144,11.9981766 C133.688044,10.6558728 149.340632,9.76100353 164.917236,9.23899647 C166.360921,9.16442404 166.360921,6.92725096 164.917236,7.0018234 C149.264649,7.44925801 133.688044,8.41869968 118.11144,9.76100353 C116.667755,9.83557596 116.591772,12.072749 118.11144,11.9981766 L118.11144,11.9981766 Z" id="Path"></path>
                    <path d="M110.079402,27.9924368 C128.334551,26.0950411 146.665449,24.2767035 164.920598,22.3793078 C166.359801,22.2211915 166.359801,19.8494469 164.920598,20.0075632 C146.665449,21.9049589 128.334551,23.7232965 110.079402,25.6206922 C108.640199,25.7788085 108.640199,28.1505531 110.079402,27.9924368 L110.079402,27.9924368 Z" id="Path"></path>
                    <path d="M116.818736,11.5597302 C116.27823,12.405251 115.892154,13.2507717 115.737724,14.2500236 C115.506078,15.9410652 116.201015,17.2477792 115.351648,18.9388207 C114.34785,21.0910555 113.730129,22.7820971 114.116205,25.1649284 C114.34785,26.6253735 116.587091,26.0104492 116.355445,24.5500042 C115.969369,22.0134418 117.282027,20.8604589 118.054179,18.7850897 C118.749116,16.6328549 117.436458,14.7880823 118.826331,12.7127131 C119.598483,11.4828646 117.590888,10.2530162 116.818736,11.5597302 L116.818736,11.5597302 Z" id="Path"></path>
                    <path d="M37.4094958,7.99258043 C57.8132823,5.30476447 78.2926383,3.41602894 98.9231335,2.18108647 C100.358956,2.1084428 100.358956,-0.0708674358 98.9231335,0.00177623864 C78.1414991,1.2367187 57.4354344,3.19809791 36.8805088,5.88591387 C35.3691172,6.10384489 35.9736738,8.13786777 37.4094958,7.99258043 L37.4094958,7.99258043 Z" id="Path"></path>
                    <path d="M98.0765302,2.27070195 C120.060411,2.41719886 141.968745,4.32165856 163.574896,7.98408107 C165.01027,8.20382642 165.614638,6.07962136 164.179264,5.85987601 C142.346475,2.12420505 120.211503,0.1464969 98.0765302,0 C96.6411566,0.0732484502 96.6411566,2.27070195 98.0765302,2.27070195 L98.0765302,2.27070195 Z" id="Path"></path>
                    <path d="M41.8197685,16.1889908 C48.309065,17.6921733 55.1001892,16.1138317 61.7403996,16.1889908 C69.1351793,16.2641499 76.529959,17.0909003 83.9247387,17.9928098 C85.3584204,18.143128 85.3584204,15.8883543 83.9247387,15.7380361 C77.0581575,14.9864448 70.1161194,14.1596945 63.1740813,14.0093762 C56.4584141,13.859058 49.0636344,15.5877178 42.423424,14.0845353 C40.9897423,13.6335806 40.3860868,15.8131952 41.8197685,16.1889908 L41.8197685,16.1889908 Z" id="Path"></path>
                    <path d="M71.0793245,21.3526031 C82.6678608,21.7443843 94.3321392,22.2928779 105.920676,22.9980841 C107.359775,23.0764403 107.359775,20.7257532 105.920676,20.6473969 C94.3321392,19.9421908 82.6678608,19.3936971 71.0793245,19.0019159 C69.6402252,18.9235597 69.6402252,21.2742468 71.0793245,21.3526031 L71.0793245,21.3526031 Z" id="Path"></path>
                    <path d="M90.0950242,17.104911 C96.6828053,17.5944957 103.345448,18.2239617 109.933229,18.993309 C111.35559,19.1331903 111.35559,17.0349703 109.933229,16.895089 C103.345448,16.1257417 96.7576664,15.4962757 90.0950242,15.006691 C88.5978012,14.8668097 88.6726624,16.9650297 90.0950242,17.104911 L90.0950242,17.104911 Z" id="Path"></path>
                    <path d="M122.81002,17.766071 C128.059458,18.5346299 133.158911,17.2280798 138.333357,16.4595209 C144.482698,15.4603943 150.707031,14.6918354 156.931364,14.3075559 C158.356212,14.2307 158.356212,11.9250233 156.931364,12.0018792 C151.906903,12.3093028 146.882441,12.9241499 141.932971,13.6158529 C135.933614,14.4612677 129.559297,16.4595209 123.484948,15.6141061 C121.985109,15.3066825 121.385173,17.5355033 122.81002,17.766071 L122.81002,17.766071 Z" id="Path"></path>
                    <path d="M132.084423,21.8994973 C136.802616,22.4222376 141.140309,20.7793396 145.706302,19.8832134 C151.033294,18.7630557 156.512485,18.3149926 161.915577,18.2403154 C163.361474,18.2403154 163.361474,16 161.915577,16 C157.197384,16.0746772 152.555291,16.4480631 147.913199,17.1948349 C142.738407,18.0909611 137.411415,20.3312765 132.084423,19.7338591 C130.638526,19.5098275 130.638526,21.750143 132.084423,21.8994973 L132.084423,21.8994973 Z" id="Path"></path>
                    <path d="M163,10.1586207 C163.088235,14.097931 163.176471,17.96 163.352941,21.8993103 C163.352941,23.3668966 166,23.3668966 166,21.8993103 C165.911765,17.96 165.823529,14.097931 165.647059,10.1586207 C165.647059,8.6137931 163,8.6137931 163,10.1586207 L163,10.1586207 Z" id="Path"></path>
                    <path d="M0.498239214,27.1074919 C0.58094205,32.0542888 0.415536379,37.0010858 0.0020221991,41.9478827 C-0.0806806368,43.3507058 2.40040444,43.3507058 2.48310728,41.9478827 C2.89662146,37.0010858 3.06202713,32.0542888 2.97932429,27.1074919 C2.89662146,25.630836 0.415536379,25.630836 0.498239214,27.1074919 L0.498239214,27.1074919 Z" id="Path"></path>
                    <path d="M2.10867188,44.2645141 C28.6366314,47.5752439 55.2403852,50.4345105 81.9199331,52.9928017 C83.3600223,53.1432894 83.3600223,50.8859736 81.9199331,50.7354859 C55.2403852,48.1771947 28.6366314,45.3179281 2.10867188,42.0071983 C0.592788473,41.8567106 0.668582643,44.1140264 2.10867188,44.2645141 L2.10867188,44.2645141 Z" id="Path"></path>
                    <path d="M80.7509158,37.1036446 C80.5261905,42.0603645 80.2265569,46.9396355 80.0018316,51.8963554 C79.9269232,53.3678815 82.1741758,53.3678815 82.2490842,51.8963554 C82.4738095,46.9396355 82.7734431,42.0603645 82.9981684,37.1036446 C83.0730768,35.6321185 80.8258242,35.6321185 80.7509158,37.1036446 L80.7509158,37.1036446 Z" id="Path"></path>
                    <path d="M82.0827353,37.9980884 C111.411566,36.8254002 140.740397,34.5582031 169.917265,31.3528555 C171.360912,31.196497 171.360912,28.8511207 169.917265,29.0074791 C140.740397,32.2128268 111.411566,34.4018447 82.0827353,35.6527121 C80.6390882,35.7308913 80.6390882,38.0762676 82.0827353,37.9980884 L82.0827353,37.9980884 Z" id="Path"></path>
                    <path d="M83.0798212,53.9929464 C111.95083,50.6750593 140.897616,47.7995572 169.920179,45.2189783 C171.35994,45.0715167 171.35994,42.8595919 169.920179,43.0070536 C140.973393,45.5876324 112.026607,48.5368654 83.0798212,51.7810217 C81.6400596,51.9284833 81.6400596,54.1404081 83.0798212,53.9929464 L83.0798212,53.9929464 Z" id="Path"></path>
                    <path d="M169,31.1764706 C169,35.4117647 169.064516,39.6470588 169.064516,43.8823529 C169.064516,45.372549 171,45.372549 171,43.8823529 C171,39.6470588 170.935484,35.4117647 170.935484,31.1764706 C170.935484,29.6078431 169,29.6078431 169,31.1764706 L169,31.1764706 Z" id="Path"></path>
                    <path d="M1.44174734,26.9927867 C12.9059879,25.5328347 24.3702284,24.2188779 35.9108972,23.1969115 C37.3630343,23.0509163 37.3630343,20.8609882 35.9108972,21.0069834 C24.2173718,22.0289499 12.5238465,23.3429067 0.830321177,24.8758563 C-0.621815954,25.0218515 -0.0103897937,27.1387819 1.44174734,26.9927867 L1.44174734,26.9927867 Z" id="Path"></path>
                    <path d="M3.08064302,29.1718797 C29.3194139,30.9803055 55.4823501,33.5844386 81.5694517,36.9842791 C83.0103091,37.2012902 83.6169859,35.1035163 82.1761285,34.8865052 C55.9373577,31.4866647 29.5469176,28.8101945 3.08064302,27.0017687 C1.63978566,26.9294317 1.63978566,29.0995427 3.08064302,29.1718797 L3.08064302,29.1718797 Z" id="Path"></path>
                    <path d="M149.810173,24.3457544 C156.521804,25.7031724 163.158861,27.5396791 169.646771,29.9351226 C170.989097,30.4142114 171.585687,28.098616 170.243361,27.6195272 C163.755451,25.3039318 157.192967,23.387577 150.406762,22.030159 C148.989862,21.7107666 148.393273,24.026362 149.810173,24.3457544 L149.810173,24.3457544 Z" id="Path"></path>
                    <path d="M14.0697051,39.459672 C27.5817694,38.7427781 40.4932976,43.7610354 53.9302949,44 C55.3565684,44 55.3565684,41.6103537 53.9302949,41.6103537 C40.4932976,41.371389 27.5067024,36.3531318 14.0697051,37.0700257 C12.6434316,37.1496805 12.6434316,39.5393269 14.0697051,39.459672 L14.0697051,39.459672 Z" id="Path"></path>
                    <path d="M40.7609473,36.2714722 C50.6607165,39.9714794 61.3854664,37.7061689 71.5852286,39.9714794 C73.0101954,40.2735208 73.6101814,38.0837206 72.1852146,37.7816792 C61.9854524,35.5163687 51.2607025,37.7816792 41.3609333,34.081672 C40.0109648,33.5530996 39.4109788,35.7428997 40.7609473,36.2714722 L40.7609473,36.2714722 Z" id="Path"></path>
                    <path d="M86.4398477,45.9716867 C111.780601,40.3495887 138.113613,39.7498983 163.912332,38.2506721 C165.362556,38.1757108 165.362556,35.9268716 163.912332,36.0018329 C137.808303,37.5760204 111.398963,38.1007495 85.8292272,43.7978088 C84.3790033,44.0976541 84.9896239,46.271532 86.4398477,45.9716867 L86.4398477,45.9716867 Z" id="Path"></path>
                    <path d="M129.098736,43.9616494 C138.19704,44.2002755 147.295344,43.3253131 156.162335,41.3367623 C157.627316,41.0185942 157.010482,38.7118753 155.545501,39.0300434 C146.832718,40.9390522 137.965727,41.8140145 129.098736,41.5753884 C127.633755,41.4958464 127.633755,43.8821073 129.098736,43.9616494 L129.098736,43.9616494 Z" id="Path"></path>
                    <path d="M17,46.0722772 C17,51.7158416 17,57.2841584 17,62.9277228 C17,64.3574257 19,64.3574257 19,62.9277228 C19,57.2841584 19,51.7158416 19,46.0722772 C19,44.6425743 17,44.6425743 17,46.0722772 L17,46.0722772 Z" id="Path"></path>
                    <path d="M17.7692298,64.2181853 C30.0511904,67.8180376 43.6219987,67.8930345 56.3588467,69.0929853 C69.8538404,70.367933 83.4246487,71.7178776 96.9196424,72.9928253 C98.3601192,73.1428191 98.3601192,70.8929114 96.9196424,70.7429176 C83.8795361,69.4679699 70.8394298,68.2680191 57.7993235,66.9930714 C44.8350318,65.7181237 30.8851507,65.7181237 18.3757464,62.0432745 C17.0110841,61.6682899 16.4045676,63.8432006 17.7692298,64.2181853 L17.7692298,64.2181853 Z" id="Path"></path>
                    <path d="M97.0631775,55.1477152 C97.1263549,60.4272051 97.1263549,65.6301807 97,70.9096706 C97,72.3634431 98.8953241,72.3634431 98.8953241,70.9096706 C99.0216791,65.6301807 99.0216791,60.4272051 98.9585016,55.1477152 C98.9585016,53.6174283 97.0631775,53.6174283 97.0631775,55.1477152 L97.0631775,55.1477152 Z" id="Path"></path>
                    <path d="M84.1371444,55.0849782 C88.3066737,55.4321916 92.4762031,56.0571756 96.5699228,56.9599304 C98.0103057,57.3071438 98.6167827,55.2933062 97.1763998,54.9460929 C92.8552512,53.9738954 88.5341026,53.3489113 84.1371444,53.001698 C82.6209519,52.9322553 82.6209519,55.0155355 84.1371444,55.0849782 L84.1371444,55.0849782 Z" id="Path"></path>
                    <path d="M98.079402,56.9981359 C119.288704,55.2446656 140.34651,52.0426765 161.177075,47.2396927 C162.616277,46.9347414 162.010297,44.7238441 160.571095,45.0287954 C139.967773,49.7555413 119.137209,52.9575305 98.079402,54.7110008 C96.6401993,54.7872386 96.6401993,57.0743737 98.079402,56.9981359 L98.079402,56.9981359 Z" id="Path"></path>
                    <path d="M98.3786496,72.9718523 C122.538559,68.4259471 146.54652,62.8367193 170.174608,56.2041691 C171.618125,55.8315539 171.010328,53.6703859 169.566811,54.043001 C145.862749,60.6755513 121.930763,66.339302 97.7708531,70.8106842 C96.403311,71.1087764 97.0111075,73.2699444 98.3786496,72.9718523 L98.3786496,72.9718523 Z" id="Path"></path>
                    <path d="M168.356596,44.043662 C168.443663,47.7056338 168.356596,51.3676056 168.008329,54.956338 C167.834196,56.3478873 170.446197,56.3478873 170.62033,54.956338 C170.968597,51.2943662 171.055663,47.6323944 170.968597,44.043662 C170.968597,42.6521127 168.356596,42.6521127 168.356596,44.043662 L168.356596,44.043662 Z" id="Path"></path>
                    <path d="M161.12993,47 C163.825902,47 166.521874,46.6476973 169.138553,46.0840129 C170.645126,45.7317101 170.010779,43.6883542 168.504207,44.0406569 C166.046114,44.6043413 163.667315,44.8861835 161.12993,44.8861835 C159.623357,44.8861835 159.623357,47 161.12993,47 L161.12993,47 Z" id="Path"></path>
                    <path d="M30.0779695,59.4142774 C48.3845388,61.7406603 66.6154612,63.9868231 84.9220305,65.9923256 C86.3593232,66.1527658 86.3593232,63.7461628 84.9220305,63.5857226 C66.6154612,61.5802201 48.3088918,59.4142774 30.0779695,57.0076744 C28.6406768,56.8472342 28.6406768,59.2538372 30.0779695,59.4142774 L30.0779695,59.4142774 Z" id="Path"></path>
                    <path d="M23.0650224,53.2639074 C30.6883408,54.0179287 38.3116592,54.6211457 45.9349776,54.9981563 C47.3550075,55.0735584 47.3550075,52.8114947 45.9349776,52.7360926 C38.3116592,52.3590819 30.6883408,51.7558649 23.0650224,51.0018437 C21.6449925,50.9264416 21.6449925,53.1885053 23.0650224,53.2639074 L23.0650224,53.2639074 Z" id="Path"></path>
                    <path d="M56.1184861,57.0264339 C65.9824867,57.0264339 75.7700221,57.6343641 85.5575575,58.98532 C87.0103948,59.1879634 87.6221158,57.2290773 86.1692785,57.0264339 C76.2288128,55.675478 66.211882,55 56.1184861,55 C54.6656488,55 54.5891837,57.0264339 56.1184861,57.0264339 L56.1184861,57.0264339 Z" id="Path"></path>
                    <path d="M101.436158,63.983841 C112.399159,62.2737249 123.286029,60.3405502 134.172898,58.1843168 C135.619405,57.8869053 135.01035,55.730672 133.563842,56.0280835 C122.676973,58.1843168 111.790103,60.1174916 100.827102,61.8276077 C99.3805949,62.0506663 99.9896505,64.2068997 101.436158,63.983841 L101.436158,63.983841 Z" id="Path"></path>
                    <path d="M122.36094,64.917487 C135.335702,60.4927906 148.685458,57.2124123 162.185211,55.2289277 C163.610184,55.0000641 163.010195,52.7877159 161.585222,53.0165795 C148.01047,55.0000641 134.735713,58.2041546 121.760951,62.7051388 C120.410976,63.2391539 121.010965,65.4515021 122.36094,64.917487 L122.36094,64.917487 Z" id="Path"></path>
                    <path d="M155.400508,52.944762 C159.182285,51.9249948 162.964062,51.3131345 166.900197,51.0411966 C168.366601,50.9732121 168.366601,48.9336778 166.900197,49.0016623 C162.809704,49.2736002 158.71921,49.8854605 154.783075,50.9732121 C153.393851,51.381119 154.011284,53.3526688 155.400508,52.944762 L155.400508,52.944762 Z" id="Path"></path>
                    <path d="M33.3526875,67.0621118 C33.2645157,72.3540373 33.0881719,77.6459627 33,82.9378882 C33,84.3540373 35.6451565,84.3540373 35.6451565,82.9378882 C35.7333284,77.6459627 35.9096722,72.3540373 35.9978441,67.0621118 C36.086016,65.6459627 33.4408594,65.6459627 33.3526875,67.0621118 L33.3526875,67.0621118 Z" id="Path"></path>
                    <path d="M35.0865103,85.2810123 C64.670088,89.2072101 94.329912,93.1334078 123.91349,96.9841018 C125.36217,97.2106132 125.36217,94.9454991 123.91349,94.7189877 C94.329912,90.7927899 64.670088,86.8665922 35.0865103,83.0158982 C33.6378299,82.7893868 33.6378299,85.0545009 35.0865103,85.2810123 L35.0865103,85.2810123 Z" id="Path"></path>
                    <path d="M99.813104,74.3911718 C108.494948,75.8643077 117.176793,77.0919209 125.93348,77.9921706 C127.355507,78.1558523 127.355507,75.7006259 125.93348,75.5369442 C117.401323,74.6366945 108.869166,73.4909222 100.411852,72.0177863 C98.9898256,71.7722637 98.3910778,74.1456492 99.813104,74.3911718 L99.813104,74.3911718 Z" id="Path"></path>
                    <path d="M127.073822,76.9929252 C149.529883,74.9215189 170.102047,64.8604026 192.181329,61.1614628 C193.613091,60.9395264 193.010244,58.7941413 191.578482,59.0160777 C169.649912,62.6410387 149.303816,72.6281762 127.073822,74.6995825 C125.642059,74.9215189 125.642059,77.1408828 127.073822,76.9929252 L127.073822,76.9929252 Z" id="Path"></path>
                    <path d="M169.82275,56.3854082 C177.471622,57.6100623 185.196225,58.508142 192.920828,58.9980037 C194.359724,59.0796473 194.359724,56.630339 192.920828,56.5486954 C185.347687,56.0588337 177.850279,55.2423976 170.428602,54.0177434 C168.989705,53.7728126 168.383854,56.1404773 169.82275,56.3854082 L169.82275,56.3854082 Z" id="Path"></path>
                    <path d="M123.632695,77.1352886 C123.396157,83.038789 123.238466,89.0179754 123.001928,94.9214759 C122.923082,96.359508 125.288459,96.359508 125.367305,94.9214759 C125.603843,89.0179754 125.761534,83.038789 125.998072,77.1352886 C126.076918,75.6215705 123.711541,75.6215705 123.632695,77.1352886 L123.632695,77.1352886 Z" id="Path"></path>
                    <path d="M124.42252,96.9707607 C146.969808,91.3970291 169.21546,84.8169292 191.234885,77.307874 C192.592247,76.8433964 191.988975,74.5984211 190.631613,75.0628987 C168.612188,82.5719539 146.366536,89.0746409 123.819248,94.7257855 C122.386477,95.0354372 122.989749,97.2804125 124.42252,96.9707607 L124.42252,96.9707607 Z" id="Path"></path>
                    <path d="M191.007664,60.0939394 C191.648593,65.6979798 191.808825,71.3020202 191.488361,76.9060606 C191.408245,78.3646465 193.811727,78.3646465 193.891843,76.9060606 C194.132192,71.3020202 193.971959,65.6979798 193.411147,60.0939394 C193.250915,58.6353535 190.847432,58.6353535 191.007664,60.0939394 L191.007664,60.0939394 Z" id="Path"></path>
                    <path d="M40.5943234,78.0074999 C40.0640967,78.0858961 39.6096167,78.1642922 39.07939,78.1642922 C37.6402033,78.3210845 37.6402033,80.3593847 39.07939,80.516177 C58.3190435,82.6328733 77.4072036,85.8471159 96.5711105,88.9829623 C98.0102971,89.2181508 98.6162705,86.9446622 97.1770838,86.7094737 C77.8616836,83.4952311 58.5462835,80.2809885 39.07939,78.1642922 C39.07939,78.9482538 39.07939,79.7322154 39.07939,80.516177 C39.6096167,80.4377809 40.0640967,80.3593847 40.5943234,80.3593847 C42.03351,80.2025924 42.03351,77.8507076 40.5943234,78.0074999 L40.5943234,78.0074999 Z" id="Path"></path>
                    <path d="M46.7864959,75.1560192 C52.6777345,76.5504223 58.5689731,77.8714358 64.537728,78.9722804 C66.0105377,79.2658389 66.6306681,77.1375394 65.1578584,76.8439808 C59.1891035,75.7431363 53.2978649,74.4955124 47.4066263,73.0277196 C46.0113329,72.7341611 45.3912025,74.8624606 46.7864959,75.1560192 L46.7864959,75.1560192 Z" id="Path"></path>
                    <path d="M70.8254735,78.1410856 C86.0978664,80.4220601 101.294277,82.7030346 116.56667,84.9840091 C118.010329,85.2047485 118.618186,83.0709337 117.174527,82.8501942 C101.902134,80.5692197 86.7057228,78.2882453 71.4333299,76.0072708 C69.9896709,75.8601111 69.3818144,77.993926 70.8254735,78.1410856 L70.8254735,78.1410856 Z" id="Path"></path>
                    <path d="M137.067807,81.9980684 C149.581757,81.6820712 160.896766,75.2831297 173.185914,73.3081478 C174.609657,73.07115 174.010187,70.7801709 172.586444,71.0171687 C160.522097,72.9921507 149.43189,79.3120929 137.067807,79.62809 C135.644064,79.7070893 135.644064,82.0770676 137.067807,81.9980684 L137.067807,81.9980684 Z" id="Path"></path>
                    <path d="M132.441,88.9733243 C138.01737,87.7020588 143.59374,86.4307934 149.170109,85.0889021 C150.621493,84.7357729 150.010384,82.687623 148.559,83.0407523 C142.98263,84.3120177 137.40626,85.5832831 131.829891,86.9251744 C130.378507,87.2076778 130.989616,89.2558277 132.441,88.9733243 L132.441,88.9733243 Z" id="Path"></path>
                    <path d="M170.442366,78.9539096 C177.018018,77.1167395 183.59367,75.2795694 190.169322,73.3625223 C191.622083,72.9631375 191.010394,70.6467055 189.557634,71.0460904 C182.981982,72.8832605 176.40633,74.7204306 169.830678,76.6374777 C168.377917,77.0368625 168.989606,79.3532945 170.442366,78.9539096 L170.442366,78.9539096 Z" id="Path"></path>
                    <path d="M5.07078405,92.9926358 C17.0184798,91.6840192 28.8158901,89.1437634 40.2375867,85.2948909 C41.590156,84.8330262 40.9890141,82.6006802 39.6364448,83.0625449 C28.3650337,86.8344399 16.8681943,89.3746957 5.07078405,90.6833124 C3.64307198,90.8372673 3.64307198,93.1465907 5.07078405,92.9926358 L5.07078405,92.9926358 Z" id="Path"></path>
                    <path d="M4.00183161,93.1079914 C4.22655687,98.3952484 4.52619055,103.604752 4.75091581,108.892009 C4.82582423,110.36933 7.0730768,110.36933 6.99816839,108.892009 C6.77344313,103.604752 6.47380945,98.3952484 6.24908419,93.1079914 C6.17417577,91.6306695 3.9269232,91.6306695 4.00183161,93.1079914 L4.00183161,93.1079914 Z" id="Path"></path>
                    <path d="M6.05078698,110.275589 C41.0327676,114.870371 75.9390297,119.465153 110.92101,123.984611 C112.359663,124.210584 112.359663,121.875531 110.92101,121.724882 C75.9390297,117.1301 41.0327676,112.535318 6.05078698,108.01586 C4.6121341,107.789888 4.68785267,110.049616 6.05078698,110.275589 L6.05078698,110.275589 Z" id="Path"></path>
                    <path d="M5.79908554,94.1694543 C39.4821506,98.8664022 73.1652157,103.116022 106.923803,106.992868 C108.358732,107.141977 108.358732,104.905335 106.923803,104.756226 C73.3917834,100.953935 39.8597635,96.704315 6.40326608,92.0073671 C5.04385986,91.8582577 4.36415675,94.0203448 5.79908554,94.1694543 L5.79908554,94.1694543 Z" id="Path"></path>
                    <path d="M110.432481,123.95689 C137.542016,116.261592 164.499677,108.043313 191.229527,99.2273411 C192.596395,98.7790714 191.988898,96.6124341 190.622031,97.0607039 C163.816244,105.801964 136.93452,114.094955 109.824985,121.790253 C108.38218,122.163811 108.989677,124.330448 110.432481,123.95689 L110.432481,123.95689 Z" id="Path"></path>
                    <path d="M120.428487,106.971157 C144.433418,101.549334 168.059723,94.6766009 191.231676,86.2765936 C192.594732,85.8184114 191.988929,83.603864 190.625873,84.0620462 C167.45392,92.4620535 143.827616,99.3347868 119.822684,104.75661 C118.383903,105.062064 118.989706,107.276612 120.428487,106.971157 L120.428487,106.971157 Z" id="Path"></path>
                    <path d="M189.002221,85.0768262 C189.093063,89.384131 189.183905,93.615869 189.274747,97.9231738 C189.274747,99.3589421 192,99.3589421 192,97.9231738 C191.909158,93.615869 191.818316,89.384131 191.727475,85.0768262 C191.636633,83.6410579 188.911379,83.6410579 189.002221,85.0768262 L189.002221,85.0768262 Z" id="Path"></path>
                    <path d="M172.102515,84.2632008 C178.059961,84.8648025 183.940039,85.4664043 189.897485,85.9928059 C191.367505,86.1432063 191.367505,83.8871997 189.897485,83.7367992 C183.940039,83.1351975 178.059961,82.5335957 172.102515,82.0071941 C170.632495,81.8567937 170.632495,84.1128003 172.102515,84.2632008 L172.102515,84.2632008 Z" id="Path"></path>
                    <path d="M13.0999774,106.198752 C29.7191269,107.150769 46.1878769,109.128034 62.5814271,111.984085 C64.0102228,112.203781 64.611821,110.080051 63.1830253,109.860355 C46.6390755,106.931073 29.9447262,105.027039 13.0999774,104.001791 C11.5959819,103.928559 11.6711817,106.12552 13.0999774,106.198752 L13.0999774,106.198752 Z" id="Path"></path>
                    <path d="M57.8152002,105.217259 C71.0966484,107.190361 84.3780966,109.467016 97.5845084,111.971337 C99.0102006,112.274891 99.610492,110.074124 98.1847998,109.77057 C84.9783881,107.266249 71.6969398,104.989594 58.4154916,103.016493 C56.9897994,102.788827 56.389508,104.989594 57.8152002,105.217259 L57.8152002,105.217259 Z" id="Path"></path>
                    <path d="M110.00198,111.0721 C110.163928,114.382445 110.40685,117.69279 110.568798,120.9279 C110.649772,122.357367 113.078994,122.357367 112.99802,120.9279 C112.836072,117.617555 112.59315,114.30721 112.431202,111.0721 C112.350228,109.642633 109.921006,109.642633 110.00198,111.0721 L110.00198,111.0721 Z" id="Path"></path>
                    <path d="M122.439613,111.970314 C133.734255,109.376618 144.952581,106.468534 156.170908,103.32466 C157.620896,102.931676 157.010374,100.652367 155.560387,101.045352 C144.418375,104.189226 133.123734,107.097309 121.829092,109.691005 C120.379104,110.005392 120.989626,112.284701 122.439613,111.970314 L122.439613,111.970314 Z" id="Path"></path>
                    <path d="M122.126773,115.992448 C125.210574,115.676696 128.215302,115.203068 131.140959,114.33475 C132.643324,113.94006 132.010749,111.650859 130.508385,112.045549 C127.740872,112.834928 124.973358,113.308556 122.126773,113.624308 C120.624409,113.782184 120.624409,116.150324 122.126773,115.992448 L122.126773,115.992448 Z" id="Path"></path>
                    <path d="M163.362628,103.938871 C170.346151,101.681818 177.329674,99.4247649 184.238105,97.2429471 C185.589755,96.7915365 184.989022,94.6097186 183.637372,95.0611292 C176.653849,97.3181822 169.670326,99.5752351 162.761895,101.757053 C161.410245,102.208464 162.010978,104.390281 163.362628,103.938871 L163.362628,103.938871 Z" id="Path"></path>
                    <path d="M177.349033,95.955719 C180.276583,95.0348244 183.277323,94.190671 186.204873,93.2697763 C187.595459,92.8860702 187.009949,90.6605749 185.619363,91.044281 C182.691813,91.9651756 179.691073,92.809329 176.763523,93.7302237 C175.446125,94.1139298 175.958447,96.3394251 177.349033,95.955719 L177.349033,95.955719 Z" id="Path"></path>
                    <path d="M40.006822,114.081594 C40.7199187,120.001898 41.0051575,125.922201 40.7912284,131.918406 C40.7199187,133.360531 42.8592091,133.360531 42.9305188,131.918406 C43.1444478,125.922201 42.8592091,120.001898 42.1461123,114.081594 C42.003493,112.639469 39.8642026,112.639469 40.006822,114.081594 L40.006822,114.081594 Z" id="Path"></path>
                    <path d="M42.0787053,133.309387 C77.051468,137.895968 111.948532,142.406106 146.921295,146.992687 C148.359568,147.145573 148.359568,144.852282 146.921295,144.699396 C111.948532,140.112815 77.051468,135.602677 42.0787053,131.016096 C40.6404316,130.786767 40.6404316,133.080057 42.0787053,133.309387 L42.0787053,133.309387 Z" id="Path"></path>
                    <path d="M146.001665,128.108651 C146.342196,134.020488 146.61462,140.008117 146.955151,145.919953 C147.023257,147.360016 149.066441,147.360016 148.998335,145.919953 C148.657804,140.008117 148.38538,134.020488 148.044849,128.108651 C147.976743,126.668589 145.933559,126.592796 146.001665,128.108651 L146.001665,128.108651 Z" id="Path"></path>
                    <path d="M146.734907,146.858503 C168.609366,136.242425 190.559515,125.702175 212.433974,115.086096 C213.720707,114.479463 212.585355,112.507906 211.298622,113.114539 C189.424163,123.730618 167.474014,134.270867 145.599554,144.886946 C144.237131,145.569408 145.448174,147.540966 146.734907,146.858503 L146.734907,146.858503 Z" id="Path"></path>
                    <path d="M147.368177,127.917607 C169.685818,119.842857 191.400279,110.24457 212.436164,99.1227444 C213.71792,98.4371524 212.586958,96.4565534 211.305202,97.1421454 C190.49551,108.111617 168.931843,117.633728 146.764997,125.708477 C145.407844,126.241716 146.011023,128.450845 147.368177,127.917607 L147.368177,127.917607 Z" id="Path"></path>
                    <path d="M210,98.1253702 C210.166554,103.752221 210.333107,109.379072 210.499661,114.930898 C210.582937,116.356367 213.081241,116.356367 212.997964,114.930898 C212.83141,109.304047 212.664857,103.677196 212.498303,98.1253702 C212.498303,96.6248766 210,96.6248766 210,98.1253702 L210,98.1253702 Z" id="Path"></path>
                    <path d="M192.064515,96.4381657 C198.264845,96.5194379 204.465175,97.007071 210.590803,97.9823373 C212.010155,98.2261539 212.607777,95.8692604 211.188425,95.6254438 C204.838689,94.6501775 198.488953,94.0812722 192.064515,94 C190.645162,94 190.645162,96.4381657 192.064515,96.4381657 L192.064515,96.4381657 Z" id="Path"></path>
                    <path d="M111.820266,124.353901 C119.446037,125.796159 127.14731,126.677539 134.924087,126.998041 C136.358638,127.078166 136.358638,124.674403 134.924087,124.594278 C127.373818,124.273776 119.899053,123.472522 112.424287,122.030264 C110.989736,121.709762 110.385715,124.0334 111.820266,124.353901 L111.820266,124.353901 Z" id="Path"></path>
                    <path d="M153.413291,130.970718 C161.748329,128.877521 169.704501,125.931539 177.433355,122.132773 C178.721497,121.512567 177.584901,119.496895 176.296758,120.117102 C168.795225,123.838342 160.990598,126.629272 152.88288,128.722469 C151.367418,129.032572 151.973603,131.280821 153.413291,130.970718 L153.413291,130.970718 Z" id="Path"></path>
                    <path d="M154.377938,136.91848 C160.956547,134.431286 167.310886,131.491875 173.440953,128.100246 C174.711821,127.421921 173.590467,125.462313 172.3196,126.140639 C166.339046,129.456898 160.208978,132.32094 153.779882,134.732764 C152.434258,135.260351 152.957556,137.446067 154.377938,136.91848 L154.377938,136.91848 Z" id="Path"></path>
                    <path d="M181.379872,117.939621 C189.820523,115.038594 198.185133,111.691255 206.397659,108.046376 C207.766414,107.451293 206.549743,105.517276 205.257031,106.112358 C197.27263,109.682852 189.136146,112.88142 180.771536,115.708062 C179.402782,116.228759 180.011117,118.385932 181.379872,117.939621 L181.379872,117.939621 Z" id="Path"></path>
                    <path d="M184.753129,122.907184 C193.016342,119.338198 200.900509,115.085789 208.481439,110.149956 C209.694387,109.314662 208.557248,107.416265 207.344299,108.175623 C199.839179,113.111456 191.879203,117.363865 183.615989,120.932851 C182.251422,121.540338 183.388562,123.438735 184.753129,122.907184 L184.753129,122.907184 Z" id="Path"></path>
                </g>
            </g>
            <g id="anima" transform="translate(55.000000, 13.000000)" fill-rule="nonzero">
                <g id="andae-b">
                    <g id="BODY" transform="translate(0.803279, 85.384400)">
                        <path d="M88.1668479,102.385654 C85.0025875,104.157934 82.376321,105.36848 79.901817,106.195455 L76.2627302,107.411343 L79.6852811,109.144358 C82.0098964,110.321515 84.220489,111.822678 86.4431263,113.73439 L88.1585505,115.210177 L88.9864186,113.106412 C90.073648,110.342884 90.6028091,107.199257 90.5589131,103.762877 L90.5241175,101.065593 L88.1668479,102.385654 Z M240.169382,111.311428 C237.208007,116.650438 233.633159,121.906644 230.175812,126.989762 C222.5454,138.208414 214.655091,149.809303 212.225553,163.681968 C212.036586,164.831791 211.901508,167.431135 211.820318,171.48 L214.082034,170.559803 C221.634825,167.486427 229.648257,165.200225 237.39751,162.989617 C240.392877,162.135129 243.489688,161.251794 246.525204,160.332933 C247.761252,160.002517 248.990608,159.616275 250.180083,159.242587 C253.065711,158.33628 255.791814,157.479923 258.657902,157.33408 L259.53047,157.28974 L259.967021,156.534351 C263.915789,149.701657 260.954413,143.188695 257.563446,137.102576 C255.526564,132.666133 252.906721,128.498136 250.372529,124.466099 C247.745995,120.287418 245.030063,115.966634 243.045642,111.444716 L241.742412,108.47578 L240.169382,111.311428 Z M94.4281863,167.911133 C98.9173569,172.611214 103.087211,177.386888 106.822119,182.105399 L109.65823,180.803234 C108.287283,173.833513 104.030975,168.923483 96.2629862,165.349808 L94.4281863,167.911133 Z M244.607698,272.910776 C244.158299,272.910776 243.736737,273.084932 243.420899,273.400924 C243.100512,273.721724 242.92466,274.15391 242.925983,274.61708 L244.607698,274.611738 L244.607698,272.910776 Z M57.8028496,389.117319 C55.1653415,384.594599 54.7777718,377.493994 58.7305544,373.644393 C57.401094,365.330036 60.012907,356.038855 65.7972777,349.419316 L65.8106606,349.439349 C74.3990231,336.582773 75.0301622,332.00209 68.7551732,317.630729 C57.5408118,317.202284 45.9894682,317.074338 35.0398212,314.455583 L35.4493389,312.009116 C35.0441038,311.90147 32.9737642,311.358434 32.5291832,311.243576 C32.5886035,311.699 32.8972139,313.776054 32.8897194,314.191945 C32.3782238,314.751275 31.1419086,315.270806 30.9119898,314.170042 C24.0237949,284.739777 17.8590812,255.892881 11.1606563,226.506422 C4.1501414,196.846976 -9.9485094,149.408904 24.562324,133.06306 L23.8498168,130.02414 C21.9440873,130.024675 21.178316,127.94869 20.3046782,125.01608 C16.4107804,114.523969 23.9823078,104.236732 31.0626816,97.7472755 C40.7406824,88.0621059 49.6689714,77.3092945 58.3060479,66.9144115 C82.9434897,36.972362 116.466395,-2.9836705 159.317739,3.8044156 L159.173471,5.5681481 C165.876714,6.4106155 172.87572,8.18236123 179.663007,6.9483094 C202.836089,2.9355043 228.046855,12.0135311 242.299142,30.6527881 L242.822682,27.1787454 C242.871932,26.8510005 242.989166,26.5478297 243.508156,26.5478297 C244.187206,26.5237898 244.546136,27.0791131 244.7972,27.5914315 C269.396099,37.3110585 279.585863,68.9479259 287.44673,90.6325129 C288.450182,94.2978069 288.167267,95.3822767 288.079742,95.5978351 L286.652319,96.4480487 C301.477395,116.164831 309.624121,139.880261 316.612956,162.366714 C318.92285,168.361214 319.163742,172.515054 315.305978,176.140549 C340.743184,191.420888 360.703559,215.234615 349.418001,242.383487 C334.689014,268.800475 295.687404,285.561677 266.392969,300.734904 C254.75999,307.035513 237.840217,310.390425 227.135745,320.708647 C226.420561,321.764803 225.394358,322.794515 224.772587,322.709841 C219.804308,323.444662 212.40997,292.421883 213.533869,289.937485 C208.289366,291.812336 202.45521,291.712704 196.969814,292.690863 C197.461236,293.770258 199.070667,295.231888 197.866471,296.433085 C197.948107,300.076476 197.38763,304.015025 196.585457,307.728666 C203.168521,306.673845 203.019167,310.126519 196.685561,308.299214 C196.513456,309.90829 196.074229,314.010577 195.906139,315.565696 C197.796612,314.734981 201.559357,314.151611 202.87704,315.451105 C202.338779,317.183052 197.676166,315.552073 195.880176,316.06546 C194.829616,323.854143 194.487013,331.511408 193.749881,339.278455 C199.354653,344.615863 208.109231,345.87716 213.110968,351.649958 C217.348807,356.043663 216.737743,363.417256 211.765984,366.951666 C214.811136,370.521868 212.374104,376.448255 207.927759,377.417066 C201.870376,378.830616 195.538644,376.875899 189.566109,375.233702 C179.638115,371.965068 169.24038,366.86993 157.781379,359.657672 C153.248044,356.834845 149.871531,352.399471 148.267185,347.164901 C136.641432,311.344544 133.534718,287.004609 139.022256,274.787764 C142.153778,272.422764 145.644485,273.882392 148.535768,272.590791 C149.913813,271.975188 151.155688,271.14746 152.157603,268.211496 C137.074772,266.730901 115.087686,269.482142 102.997277,262.257063 L103.422587,261.352359 C102.306183,260.639974 99.8530914,257.659552 98.9197658,256.701426 C100.602,276.930526 101.954212,297.683164 102.623358,317.841213 C104.841178,321.570346 106.724424,325.430097 108.791819,329.736457 C110.229681,331.148137 112.745405,333.567894 111.269267,335.168956 C111.269,335.168956 123.683275,364.22954 127.477068,378.919297 C131.089122,379.071817 132.553482,385.188387 132.415905,389.251142 C131.86667,396.644768 122.375227,397.429272 114.054523,398.153677 C108.361156,398.751203 102.507194,399.060509 96.7402215,399.060509 C86.3205386,399.068264 60.267718,398.351339 57.8028496,389.117319 Z" id="-Background" fill="#FFFFFF"></path>
                        <path d="M108.521756,14.5394463 C126.207568,2.7977909 149.168664,-3.3847552 169.679345,4.3034943 C169.922914,4.3889697 169.826289,4.7442271 169.572014,4.6881338 C166.330935,3.9776192 163.038467,3.5796241 159.727797,3.4433976 C166.438266,4.2623592 172.950133,6.0215508 179.745718,4.8358461 C202.443706,1.0901517 226.513176,8.78427757 241.593599,26.406911 C241.983577,23.8175391 245.203778,23.913699 246.253535,25.7444763 C266.309197,32.8028785 277.668361,59.3197666 285.243904,77.7215622 C286.133869,81.0016825 292.314909,94.6221952 289.346575,96.3899343 C303.474936,115.727953 311.424398,138.626291 318.478273,161.276484 L318.680095,161.827459 C320.281307,166.260545 321.503105,171.277475 318.111848,175.222338 C332.179986,183.815825 345.187393,195.358483 351.336315,210.999155 C361.129676,234.070848 348.65036,253.617748 329.193184,266.117731 C309.910253,280.06679 289.019764,291.680766 267.425333,301.653881 C260.163755,305.00345 252.811172,308.147344 245.416032,311.192674 L244.680041,311.493034 C238.870731,313.879417 233.008719,316.684558 228.663278,321.276106 C220.213562,333.596056 212.408637,296.692031 212.322718,291.54908 C208.360032,292.739059 203.996126,292.76577 199.905767,293.38707 C200.425292,294.276549 200.465173,295.433138 199.833231,296.381381 C199.842867,299.392254 199.52355,302.4269 198.934166,305.409459 C205.212099,304.853334 204.99476,311.179318 198.449971,309.720627 L198.12316,312.779045 L198.12316,312.779045 C201.111301,311.854307 207.422424,313.331697 203.725523,316.890147 C201.789548,317.845602 199.726971,316.964671 197.662787,317.066173 C196.773358,324.056996 196.434769,331.052627 195.784091,338.074435 C201.39154,342.943865 209.715723,344.23401 214.693638,350.078394 C219.043894,354.82976 219.152028,362.263186 214.172239,366.735422 C216.847487,371.298208 213.613368,377.24169 208.666501,378.440483 C202.29007,379.953933 195.612254,377.937246 189.45905,376.234148 C178.269019,372.554602 167.67974,366.991101 157.716848,360.751145 L157.284074,360.47942 C152.354337,357.409516 148.786447,352.631973 147.09083,347.099841 L146.728229,345.978827 C140.706809,327.297196 129.996967,290.654147 138.03112,273.345748 C141.816617,269.155849 147.918163,274.034894 150.123937,269.09842 C135.89226,267.985903 112.960607,270.461219 101.364564,262.337846 C102.503184,278.678615 104.19211,295.009233 104.12466,311.398082 C103.835589,313.553399 105.293526,314.901774 104.707621,317.076857 C106.824533,320.6914 108.652106,324.459532 110.465226,328.23167 L110.579771,328.338398 C112.462403,330.119489 114.882433,333.733319 112.405483,335.852074 C120.835124,348.180304 125.408072,362.73063 129.144854,377.040555 C133.119585,377.950335 134.621149,385.335413 134.374904,388.865549 C133.259302,398.351454 121.991142,398.412623 114.586901,399.213421 C110.261537,399.667509 105.922791,399.950647 101.576015,400.068175 C92.7810197,400.305904 83.974783,399.841131 75.2520558,398.697363 C68.1459868,398.076063 60.2902059,396.221513 56.7509558,389.351691 C53.8974472,384.420559 53.4520632,377.020789 57.3989574,372.595832 C56.2452256,364.12107 58.9498761,355.287386 64.2348815,348.605431 L64.3958217,348.403609 L64.3823495,348.398484 C64.2611719,348.345298 64.2719397,348.145266 64.7665388,348.045311 L64.8213989,348.034996 L65.0587975,347.668282 C72.8242836,335.655444 73.7918629,332.361708 68.0303583,318.660824 L62.7948492,318.473904 C53.0931565,318.119271 43.2897861,317.609369 33.901206,315.20174 C32.5712103,316.307578 30.2316062,316.179632 29.7096719,314.010693 C22.8798265,284.842463 16.613135,255.538541 9.9540558,226.328108 C3.0329389,195.586596 -11.8807324,148.918604 24.209287,131.092966 C20.5230923,131.093768 19.7016479,126.679762 18.8057945,123.894331 C15.5213554,113.069667 22.7585772,103.067971 30.328231,96.0400192 C56.9011123,69.4184237 76.8936062,35.8791933 108.521756,14.5394463 Z M57.8459473,375.854584 C57.3464963,390.186145 68.2147751,393.622792 80.4473099,393.988734 C88.0699601,394.712604 95.7493539,394.934306 103.401447,394.635409 L107.005996,394.427105 C113.026035,394.073468 119.091551,393.631473 124.950375,392.260527 C128.808675,391.469078 129.775993,388.024952 128.382294,384.658555 C127.780063,384.925665 127.067823,384.944363 126.511093,384.554381 C125.887448,384.118991 125.435373,383.656889 125.092502,383.11225 C105.269971,391.915153 80.3271312,390.95115 61.1167358,380.822844 C58.6550794,380.702377 58.3354949,377.768165 57.8459473,375.854584 Z M106.032799,330.491428 C98.8282312,326.142597 84.2376238,324.251987 77.2782317,329.724553 C77.7551994,332.474191 76.6401335,335.01762 75.5946589,337.468094 C78.7698933,336.711636 106.389855,332.997728 102.488731,339.773527 C100.304636,341.530849 97.3312165,340.321104 94.8069279,340.083108 C88.0370381,339.521374 81.220308,339.700072 74.4704926,340.465344 C73.882179,342.111548 73.6549368,343.957817 72.9231581,345.510799 C79.7594321,343.259609 86.9115153,342.182555 94.0845399,341.797539 L94.4830609,341.776858 C97.6146669,341.610982 101.279181,340.919165 103.610488,343.472477 C105.597318,346.183919 101.187642,348.049687 98.9157556,347.783912 C89.239896,347.494364 79.5442297,347.852025 69.8772028,348.26765 L69.4522558,348.967336 C62.6210055,360.253716 61.1500647,364.698488 63.9110919,378.234541 C63.8953001,378.221185 63.8789729,378.210501 63.86559,378.197145 C63.8548836,378.929296 63.6196117,379.588792 63.1188224,380.080276 C83.9514967,386.827227 103.355142,386.443923 124.056663,379.751997 C121.029712,364.577701 115.022917,350.245071 110.55623,335.491474 C109.377193,334.832779 109.027363,333.377292 108.144357,332.414358 C107.251716,332.338231 106.367372,331.634662 106.032799,330.491428 Z M155.956754,269.266967 C146.879915,275.672283 150.979107,283.241668 153.488674,291.939062 C157.156936,304.724319 159.975113,317.749442 163.113946,330.669858 C164.962932,342.145738 172.234146,352.099354 182.695316,357.261002 C187.401023,359.735517 192.56389,361.336044 197.83971,361.994205 C199.876592,362.200682 202.133489,361.98272 203.497745,363.805216 C204.271547,364.641273 204.35693,366.014223 203.497745,366.83452 C200.800014,369.887062 192.958419,367.13315 189.320671,366.371884 C162.363967,358.217259 158.266916,338.724583 153.067379,314.28555 C150.547909,300.712316 144.357232,286.416814 148.092408,272.650993 C145.83337,273.856464 142.36264,273.442977 140.760436,275.720096 C137.061661,299.108048 145.220164,322.833896 151.508,345.192938 C152.904108,349.890882 155.851297,354.022818 160.139724,356.489319 C169.287493,362.064723 178.87556,367.159594 189.020358,370.678511 L189.327989,370.765559 C194.476365,372.2399 205.598405,376.217395 209.549775,372.058939 C210.374163,370.843585 210.336691,369.542756 209.298176,368.735814 L208.794843,368.544822 C207.828389,368.171963 206.690399,367.646944 206.514321,366.519665 L206.50382,366.441867 L206.541024,366.428244 C205.700844,364.889953 207.33142,363.166822 208.792033,362.790195 C210.850596,362.715939 211.808011,361.347797 212.539789,359.339124 C213.852387,349.507044 200.018986,346.879742 195.433191,340.152824 C194.947123,342.608374 191.160021,342.140396 191.179827,339.663745 C191.030206,332.140837 192.668545,324.549014 193.790034,317.127608 C192.063904,317.053886 190.229639,317.750244 188.549011,317.373083 C188.300891,315.823306 193.148992,314.199273 194.48327,313.687489 C194.758959,312.40509 195.050707,311.1283 195.361191,309.85712 C184.57776,310.507268 189.586723,307.056197 196.39703,305.874498 C196.609015,305.153528 196.794847,304.412934 196.964132,303.680637 L197.04744,303.31531 C197.478103,301.480259 197.70588,299.74671 197.780825,297.954397 C193.013289,300.134822 187.649945,301.457822 182.483866,300.347709 C173.149539,298.183578 168.311074,286.874909 172.058295,278.388533 C171.205802,275.378461 172.879471,272.177139 174.392546,269.637984 C168.247371,269.616615 162.098985,269.448335 155.956754,269.266967 Z M64.698276,348.181907 C64.6177776,348.229987 64.5419466,348.284227 64.4685245,348.343163 L64.3958217,348.403609 L64.4141177,348.408545 C64.5025354,348.426825 64.6312899,348.376898 64.7089823,348.18992 C64.6926551,348.205947 64.6926551,348.197934 64.698276,348.181907 Z M65.2657123,347.992258 C65.1185,347.99671 64.9935927,348.008582 64.8847944,348.024782 L64.8213989,348.034996 L64.8012036,348.066574 C64.7633771,348.123737 64.7398778,348.147679 64.7116589,348.187516 C64.8671686,348.061707 65.0780836,348.00321 65.2657123,347.992258 Z M76.4083411,339.028021 C75.9056782,339.094531 75.4038183,339.154631 74.8984788,339.217937 L74.7994451,339.487451 L74.7994451,339.487451 C75.3347624,339.327185 75.8700796,339.174932 76.4083411,339.028021 Z M98.7174205,317.274519 C89.7492504,318.185901 80.7109537,317.624167 71.7401069,318.642126 C73.4991595,321.066958 74.7539431,323.750887 75.8061092,326.58333 C83.1742161,319.639251 94.9942889,321.763316 103.859143,324.320902 C103.262532,322.581743 102.713029,320.826558 102.221072,319.056148 C100.894556,319.26957 99.3798756,318.525666 98.7174205,317.274519 Z M317.456085,176.07175 C305.197319,188.539145 286.669989,191.966444 270.814159,197.470261 C266.964425,199.876662 268.846065,204.645124 269.336684,208.266612 C270.254753,214.211162 270.983587,220.184293 271.512748,226.176389 C273.471474,223.915564 278.603025,223.620139 281.474735,222.701278 L281.857314,222.615096 C285.688206,221.737695 289.669587,220.421875 293.578526,221.274906 C295.155035,221.616808 295.261831,223.794028 294.009189,224.568382 C290.8362,226.535133 286.954218,226.591699 283.31704,227.021902 L282.386818,227.133094 C279.168111,227.515332 275.924183,227.864224 272.690179,227.728303 C272.283337,227.792409 271.87382,227.637485 271.616867,227.362361 C272.019694,233.626643 272.827487,239.980407 272.553673,246.255106 C272.404051,247.368958 272.045389,248.581641 271.252852,249.407013 L271.226668,249.502429 C270.778265,251.08713 269.319532,253.916105 267.639728,251.821695 L267.324188,251.25559 C264.85728,246.812551 262.518189,242.166867 261.325661,237.205393 C260.928723,247.239142 260.607533,257.267816 260.20658,267.29836 L260.193483,267.539121 C260.091212,269.241716 259.757899,271.289699 258.648807,272.600242 C258.74677,273.37887 258.047645,273.832424 257.423198,273.554095 L257.340283,273.592334 C256.74178,273.859763 255.778423,274.106747 255.412814,273.377534 C253.30634,268.460025 251.063361,263.619978 249.007743,258.689113 C249.116412,261.21972 248.993824,263.75567 249.074657,266.288414 C249.115074,269.178553 249.653068,272.576202 248.271681,275.249981 C247.092378,277.592008 244.154556,278.20476 242.578315,276.166438 C241.315234,274.219735 240.599247,271.813601 239.449921,269.75017 C236.211519,285.723394 228.011261,262.243556 226.505681,257.40431 C221.877864,260.1048 216.998715,262.385926 211.953082,264.210293 C213.340892,266.308448 213.005248,269.160657 213.441531,271.572133 C213.834722,275.167177 214.145206,278.765159 214.45569,282.36875 L214.570347,283.058418 C216.460353,294.328351 219.213049,305.847937 225.272043,315.658499 C230.401453,310.645364 237.131462,307.688181 243.713455,305.032832 C251.639095,301.77141 259.500229,298.360405 267.254032,294.714343 C288.213576,284.878256 308.394769,273.346817 327.206889,259.848106 L327.846314,259.401391 C338.300767,252.058646 349.195153,242.430411 349.462704,228.729968 C350.364446,206.270226 331.547509,190.948752 317.456085,176.07175 Z M86.4372424,163.34125 C68.5407833,146.583522 41.1400337,124.916297 16.4222943,140.836633 C-6.6659393,160.339459 11.6269223,207.102009 16.3430674,232.285213 C22.3399591,258.756692 28.6781155,285.155784 34.5569697,311.651837 C55.5205291,314.412962 76.7993904,315.859366 97.8665337,313.372031 C97.6283175,294.690036 96.3652364,276.031814 95.9525068,257.342874 C95.5686844,247.714065 95.7019784,238.047593 94.2560864,228.510937 C93.0291392,220.756444 94.6048456,211.389137 90.2781438,204.615474 C88.6767422,202.148974 86.0721561,199.98965 85.4899985,197.016173 C85.4766156,196.877008 85.6583558,196.831599 85.7466832,196.909061 C87.0129762,198.020242 88.030079,199.345112 89.3734576,200.410884 L90.3614145,201.174497 C91.9681355,202.423078 93.5685758,203.755801 94.5636262,205.531397 C94.6658718,204.774672 92.7480977,198.030392 93.8966209,198.83493 L94.1130349,199.426274 C95.6575338,203.666394 97.0498775,207.955938 97.4463097,212.492304 C98.9623282,227.954546 99.8094677,243.492914 101.107612,258.977592 C104.238683,260.386335 107.115478,262.457245 110.534817,263.205956 C116.135079,263.758956 121.743143,263.446182 127.353152,263.372405 L127.879096,263.366222 C144.24776,263.12235 160.565301,264.039609 176.92192,263.780778 C193.640949,264.428255 210.731755,260.056453 225.00144,251.274118 C217.183399,216.030453 244.026616,190.893994 256.437946,160.766569 C242.140961,164.366154 227.912763,168.232316 213.655391,172.025022 C215.579588,176.720562 209.356525,190.026685 207.014512,194.742259 C194.484073,219.400857 169.143225,235.516185 146.355572,211.982123 C146.366278,212.054242 146.37404,212.126362 146.382337,212.201153 C145.617101,211.503994 144.771568,210.890441 143.91961,210.301996 C142.775102,219.67892 139.679362,229.130634 133.83691,236.660487 L133.199597,237.45859 C131.377189,239.726911 128.738711,242.709718 125.820801,240.995695 C123.672305,239.8359 123.268141,237.578547 123.684885,235.300893 C116.66527,242.926372 109.017192,244.648969 113.813635,231.526885 L113.654886,231.691097 C110.969837,234.443475 103.843265,240.525217 103.117728,233.334958 C103.434101,229.755139 105.643355,226.559426 106.766183,223.206117 C105.566805,223.946014 104.217805,224.311956 102.844717,223.785748 C99.1620015,222.375403 101.057025,218.171346 101.878469,215.524279 C103.958444,208.832886 106.080709,202.152446 108.238573,195.485361 C107.490735,191.521971 109.858979,187.578348 107.63875,184.133153 C106.688562,184.629979 105.408886,184.525806 104.491085,183.302439 C99.1057932,176.14387 92.9255554,169.511509 86.4372424,163.34125 Z M34.8058922,312.867191 C34.811513,312.907525 34.811513,312.94225 34.813922,312.982049 C35.0202868,312.995672 35.2237073,313.014102 35.4295368,313.0328 C35.2196925,312.982049 35.0125247,312.921148 34.8058922,312.867191 Z M211.597096,287.131335 C208.29392,253.181021 216.865153,269.169471 182.053203,269.555179 C182.209516,270.405393 181.0899,270.30763 181.485499,270.07097 C180.981498,268.194784 178.123172,273.692725 177.724896,274.405911 C176.973043,275.997891 176.630172,277.979853 176.365457,279.721148 C174.499877,289.474698 181.452042,298.019572 191.589613,293.872944 C190.284777,293.76423 188.818543,294.235146 187.735596,293.402829 C187.740949,293.400158 187.743626,293.394816 187.748711,293.389474 C186.778984,291.655391 192.097897,291.580065 193.155684,291.116628 C197.277626,290.256799 201.410008,289.45787 205.507862,288.493333 C207.504863,288.023218 209.549775,287.28626 211.597096,287.131335 Z M245.065399,274.013258 C244.768298,273.839636 244.920595,274.408582 245.019897,274.120102 C245.03328,274.082707 245.051748,274.047982 245.065399,274.013258 Z M282.55099,92.7358589 C267.651505,93.7976242 258.005355,101.143171 247.431501,110.562832 C246.641908,111.243965 245.841341,111.911742 245.022573,112.55815 C249.642629,120.644394 254.623756,128.516683 259.4384,136.491275 L260.340706,137.991196 C261.744905,140.33065 263.116076,142.712175 263.951927,145.316882 C266.799547,154.311036 256.854423,170.142158 253.240496,178.973107 C235.947072,209.436824 219.70287,230.586388 235.43745,266.667712 C236.282181,264.390859 234.416332,256.442177 237.206941,256.132863 L237.150698,255.567965 C236.258716,246.396115 236.218597,235.349462 239.002395,227.250442 C237.461752,242.921831 239.131674,259.345938 245.081458,273.97613 C246.638161,260.106135 244.575583,244.612108 245.054425,230.364686 C245.035956,228.174378 248.354656,228.198418 248.448604,230.364686 L248.561777,234.043324 C248.950628,246.509934 249.622429,259.564413 256.884936,270.11077 C257.584328,254.056344 254.65079,237.145293 260.286878,221.753035 C260.747518,220.644525 262.406734,220.73 262.454912,222.047124 C262.558496,227.286502 264.778457,245.022123 268.608384,248.098171 C269.66055,244.89017 269.553219,241.380335 269.384327,238.020081 C268.862928,225.843302 267.103875,213.961413 264.944673,201.955051 C264.554159,199.582573 265.253551,196.662518 267.714405,195.747397 C269.542513,194.011177 272.066802,192.779529 274.154539,191.791486 C287.42211,185.248073 305.674287,186.508569 314.648613,173.032029 L315.08408,172.376081 C316.130417,170.795847 317.111178,169.235373 317.552442,167.339899 C316.34316,162.830534 314.60445,158.435494 313.128045,154.0084 C311.808193,150.097097 310.453436,146.198775 309.032555,142.323171 L308.556435,141.032158 C302.212926,123.746352 294.136862,107.153964 282.55099,92.7358589 Z M179.815577,269.611272 C179.475985,269.721355 179.207093,270.06069 178.918169,270.313442 L178.855682,270.366066 L179.03214,270.225814 C179.2194,270.075159 179.388238,269.934975 179.647962,269.737311 L179.815577,269.611272 Z M101.238765,260.705799 L101.319062,261.752873 L101.319062,261.752873 C101.832967,261.857314 102.336433,261.987931 102.839631,262.116144 C102.255868,261.694109 101.712788,261.226665 101.238765,260.705799 Z M177.146887,237.053087 C177.088002,236.847678 177.382426,236.727478 177.492434,236.908312 C181.822616,244.512422 190.347008,247.539588 198.554224,248.744525 C199.951402,249.070667 199.780101,250.996536 198.554224,251.402277 C193.966555,252.919734 188.669591,250.876069 184.91434,248.154477 C181.065409,245.368245 178.439946,241.604654 177.146887,237.053087 Z M259.700973,232.71259 C258.888361,238.565521 258.962235,244.534913 258.892376,250.443403 C259.160035,244.534913 259.382191,238.62108 259.700973,232.71259 Z M140.151057,243.020315 C141.002479,243.314136 141.883076,243.506723 142.750022,243.581247 C141.829544,244.019576 140.777378,243.800278 140.151057,243.020315 Z M73.3835309,53.74837 C60.3672916,68.4576262 48.9722607,84.5590638 34.9723759,98.3828478 C26.7691741,105.781816 19.0081444,115.894363 25.405721,127.030211 C26.7549882,127.561762 26.9921338,129.545326 25.8286217,130.478611 C26.1064513,130.442819 27.8920021,129.57925 27.4907818,130.286292 C23.9044238,131.814165 20.7511374,134.028514 18.0344023,136.707635 C34.9611342,124.280306 57.4053812,134.229648 72.1683607,145.367366 C79.4542964,150.680199 86.2284687,156.535268 92.5719783,162.836678 C94.8419912,163.242419 97.1890897,164.452431 99.0811686,165.398003 C112.131133,171.654539 114.175777,180.109129 113.098987,193.623599 C109.182338,201.074654 107.329605,209.595221 104.600825,217.583703 C101.794157,223.793761 107.315686,219.608402 108.107153,216.899632 C110.028693,214.512668 110.955884,211.340823 112.133809,208.565899 L112.21839,208.368381 C112.552963,207.574795 113.270288,206.98448 114.19371,207.24892 C114.935068,207.460937 115.622583,208.376073 115.334824,209.168687 L114.74358,210.688438 C111.880675,218.032051 108.922759,225.414122 106.64306,232.939634 C114.346276,228.334911 118.160411,219.619354 122.204466,211.923358 C123.315517,209.87729 126.305263,211.680287 125.30422,213.731698 C124.375445,215.625514 123.427933,217.513987 122.424213,219.370407 C119.800891,224.949015 117.899176,230.835068 116.324273,236.7887 C124.982762,231.634798 128.000613,221.134406 130.491177,212.27354 C130.644813,209.745604 134.297015,210.242964 133.920152,212.72469 C132.993785,217.65048 131.580815,222.503616 129.369955,227.015117 L128.785388,230.426319 C128.396332,232.700718 128.010963,234.975908 127.643557,237.253473 C127.852063,237.151971 128.077164,237.138615 128.293699,237.192038 C135.965063,229.482419 139.035643,218.845801 141.714103,208.622136 C140.440583,204.298147 141.99916,199.876395 141.821167,195.418583 C142.498611,189.711227 140.654175,184.392518 138.099909,179.296578 C136.569169,163.531967 121.355452,156.693931 110.748408,147.427592 C97.7570613,134.614288 90.926413,114.995535 72.6662058,108.644977 C70.7677031,108.765444 68.9374534,108.358634 67.1604677,107.747484 C67.0828467,107.726116 67.0694638,107.59256 67.1604677,107.579205 C68.9679665,107.284581 70.7743946,106.824082 72.5861759,106.494735 C73.0743852,104.905426 75.0264196,104.711236 76.4942596,105.421751 C92.2834423,98.5150676 105.370344,86.370342 117.916842,74.8153969 C105.666106,63.5045911 89.8046557,56.482783 73.3835309,53.74837 Z M146.037058,214.08156 C146.299363,214.372711 146.529282,214.687901 146.700851,215.032741 C146.747691,215.121155 146.742338,215.226397 146.75706,215.323892 C146.531959,214.901857 146.293742,214.484897 146.037058,214.08156 Z M95.9500979,166.271455 C100.311863,170.838783 104.499918,175.59843 108.441726,180.577909 C107.027953,173.391293 102.397459,169.237454 95.9500979,166.271455 Z M241.933793,111.553813 C232.463227,128.627801 217.634136,143.626071 214.166886,163.424055 C213.888521,165.117537 213.869517,166.832655 213.834722,168.541897 C224.40697,164.239811 235.537019,161.559621 246.443573,158.257865 C250.577561,157.155499 254.592172,155.420614 258.935201,155.199714 C262.514868,149.005682 259.639947,142.942535 256.488802,137.292874 C252.383453,128.323829 245.88952,120.567199 241.933793,111.553813 Z M89.3121638,103.249339 C86.5737483,104.783089 83.7496821,106.185955 80.7711769,107.18121 C83.3353466,108.479368 85.6797685,110.119428 87.8507477,111.986533 C88.9414566,109.214457 89.3499037,106.211865 89.3121638,103.249339 Z M158.938204,4.8243603 C157.516401,17.3326237 157.585457,30.2394164 160.913792,42.4471802 C165.876719,61.4721452 184.252822,79.2587847 205.044812,75.5285827 C226.023361,71.1530411 236.334642,49.4695225 240.65947,30.4028882 C229.612128,16.4137627 212.3179,7.6629465 194.493977,6.9585754 C182.904358,6.4857893 169.802468,10.2146558 158.938204,4.8243603 Z" id="-Ink" fill="#000000"></path>
                    </g>
                    <g id="Head" transform="translate(156.282332, 0.016000)">
                        <g id="HEAD">
                            <path d="M94.122043,63.4055314 C93.558726,58.4649334 94.287753,48.1381185 94.336601,47.5107278 C94.645419,43.5444214 92.783529,27.8820702 89.263804,29.3252002 C83.3595576,24.659907 75.4956226,23.6297342 68.1422353,23.1376334 C52.8681261,22.1152966 36.6192617,24.4621786 24.8249664,34.7221146 C18.99224,40.0503334 13.3138028,47.7998762 13.7702421,55.8688666 C8.4708318,63.517325 0.9998525,74.0089454 7.6026863,82.950605 C9.8471141,85.807349 13.4142516,86.871217 16.2337822,89.034737 C21.904987,93.600513 25.4630172,100.152976 31.1880625,104.691587 C46.3555622,118.295667 72.1100965,121.137523 87.0121435,105.664035 C98.535629,94.45751 96.672341,77.6921266 94.645419,63.4055314 C93.282704,53.8005495 95.221016,73.0441261 94.122043,63.4055314 Z" id="-Background" fill="#FFFFFF"></path>
                            <path d="M47.7381178,2.1860761 C51.8230662,1.3632961 56.0176618,0.8513441 60.1892289,1.0054521 L60.510856,1.0179206 C63.6495753,1.1431303 67.6245154,1.4201071 70.3626084,3.2418465 C70.5201445,3.0840817 70.7734584,3.0031097 71.0032204,3.1125525 C74.257048,4.6627745 77.8358919,5.7835837 81.2619101,6.8973405 C84.6722271,8.0056121 88.210248,8.7372333 91.784643,9.0321281 C93.129457,9.1431381 94.280361,10.5925369 93.428828,11.8925293 C93.226282,12.2023125 93.028969,12.5152301 92.832441,12.8289313 C93.161121,12.7947141 93.489801,12.7594521 93.818481,12.7262797 C94.900038,12.6176205 95.980547,13.7697737 95.916434,14.8208425 C95.876395,15.4819397 95.804954,16.1352009 95.699233,16.7806261 C96.111129,16.7720065 96.520671,16.8336497 96.916343,17.0005565 C98.919826,17.8450161 98.780346,20.2268989 98.630399,22.0391045 C98.422619,24.5539381 97.480281,27.2176557 95.730635,29.0998629 C97.036981,30.4541849 97.961786,32.0715353 98.513424,33.9924001 C98.913545,35.3950441 99.136242,36.8891081 99.026333,38.3492161 L98.991294,38.7863651 C98.855373,40.3708675 98.585138,42.1251122 97.443121,43.2650001 C96.85694,43.8527001 96.134681,44.0668841 95.44618,43.9989721 C95.862526,47.6505481 96.129447,51.3230201 96.380668,54.9824321 L96.49847,56.7314675 C97.058867,65.1890898 97.48001,73.7017935 97.369848,82.1733521 C97.267528,90.090324 95.700279,97.774828 90.835501,104.20296 C86.4048628,110.056452 80.0434912,114.371476 72.8470735,116.011812 C68.9688585,116.89728 65.0095203,116.959968 61.0842016,116.395776 C59.1814687,116.121516 57.2661749,115.700984 55.4602665,115.037536 C53.4612325,114.300952 52.0245659,113.216972 50.67949,111.592308 C50.0433267,110.821768 50.3495015,109.181432 51.6163327,109.33554 C53.5322451,109.567414 55.2812504,109.846888 57.1180336,110.412495 L57.3810559,110.495268 C59.2105161,111.080356 61.1051366,111.51656 63.0178136,111.702012 C66.9355434,112.080752 70.9129381,111.6994 74.6658045,110.513552 C80.7762174,108.580672 86.0387614,104.273484 89.411919,98.86142 C93.415744,92.446348 93.868464,85.164092 93.810631,77.7878041 C93.748652,69.6936285 93.484923,61.5947644 93.054376,53.5089789 L92.98108,52.1614721 C92.753412,48.0005561 92.533594,43.8370281 92.340206,39.6735001 C92.280018,38.3675001 92.188427,37.0510521 92.023302,35.7476641 C90.513625,34.8648081 89.160698,33.6476161 88.27881,32.1457161 C86.5071828,32.8770761 84.6439648,33.4047001 82.9296472,33.8252321 C78.9587948,34.8000305 74.8361633,35.0366777 70.7943934,34.4262533 C69.7042016,34.8757785 68.5922896,35.2709741 67.4633679,35.6110565 C67.1582398,35.7460969 66.8531117,35.8787865 66.5482453,36.0088641 C63.8264293,37.1712041 61.0656217,38.1559281 58.1925501,38.8768401 L57.4867337,39.0525231 C55.9747396,39.424556 54.3324154,39.7909214 52.7232726,39.9059681 C52.4589678,40.0078361 52.173728,40.0940321 51.8620577,40.1697801 C50.396867,40.5250121 48.8761985,40.6373281 47.3743716,40.5119521 C45.9112744,40.3891881 44.8540553,38.9134081 45.660054,37.5316601 C46.2488519,36.5234281 46.8431451,35.5178081 47.4424104,34.5148001 C45.3567577,35.3819841 43.2030662,36.1028961 41.0310565,36.7141041 C38.8381117,37.3305361 36.6137644,37.8503241 34.3865386,38.3283201 C33.1958585,38.5816841 32.0002064,38.8063161 30.8121433,39.0596801 C29.9616576,39.2399081 28.6558349,39.3339401 27.9621002,39.8929081 C27.1956163,40.5067281 26.9784153,41.9381041 26.68768,42.8209601 C26.3056157,43.9676281 25.9471032,45.1195201 25.6199933,46.2844721 C24.9686521,48.6091521 24.4348087,50.9677881 24.0213418,53.3499321 C23.6078749,55.7346881 23.330224,58.1429521 23.1758282,60.5590521 C23.021694,62.9725401 23.0894712,65.4017001 22.8411293,67.8047401 C22.7074068,69.0793961 21.3364238,69.7350081 20.3236916,68.8443161 C20.2048852,68.7398361 20.0851485,68.6341952 19.9665748,68.5273935 L19.7898482,68.3663201 C18.9233995,67.5827201 18.0833813,66.7521041 17.39017,65.8170081 C17.2645598,65.6446161 17.1441834,65.4643881 17.0316576,65.2815481 C17.0133394,65.2815481 16.9976381,65.2763241 16.97932,65.2632641 L16.7871079,65.118896 C14.6706676,63.5465201 11.1348082,61.4965773 9.0711111,64.1087601 C8.4134991,64.940924 8.0768083,66.0005361 7.7973671,67.0228017 L7.3070388,68.852358 C6.9898838,70.0467068 6.6914084,71.2477044 6.5167753,72.4697721 C6.1216266,75.2071481 6.3205094,78.3624441 8.207541,80.5565241 C8.9612022,81.4341561 10.0001032,82.0610361 11.159119,82.2255921 C11.8057498,82.3144001 12.4442684,82.2046961 13.0854038,82.1237241 C13.7370067,82.0427521 14.364796,82.1733521 15.0166606,82.1106641 C16.0529447,82.0087961 16.5056648,83.2468841 16.1183667,84.02526 C15.9090164,84.44318 15.6627681,84.803636 15.3830237,85.10924 C15.6078136,85.302528 15.8226594,85.511488 16.0293928,85.730896 C16.6417426,85.926796 17.1910255,86.347328 17.6021372,86.903684 C17.9344809,87.352948 18.1069332,87.841392 18.1359806,88.355956 C18.1723552,88.483944 18.2037577,88.614544 18.2328051,88.747756 L18.7942262,89.657234 C18.9177052,89.856707 19.0407404,90.053756 19.1641524,90.247044 C20.5929684,92.493364 22.1790589,94.3949 24.1495689,96.186732 C26.0468063,97.910652 28.1060285,99.454344 29.8883849,101.30364 L30.0983449,101.52321 C31.7599749,103.270883 33.5114542,105.386478 32.8611597,107.927672 C32.6936794,108.580672 31.7801269,109.050832 31.1837401,108.609404 C29.2655677,107.188476 28.2996776,104.936932 26.6722404,103.213012 C24.9971761,101.436852 23.1418087,99.84092 21.462034,98.069984 C19.8733267,96.398304 18.6198415,94.504604 17.6754098,92.420228 C17.2983175,92.835536 16.7490346,93.130692 15.9875228,93.24562 C14.6790832,93.44152 13.4593558,92.676204 12.8891378,91.545208 C12.5225131,91.707152 12.148561,91.853424 11.7714687,91.968352 C9.7878743,92.574336 8.5398846,90.37242 9.2883121,88.745144 C9.6884329,87.872736 10.1882568,87.115256 10.8087189,86.477928 C8.8693497,86.211504 6.8962228,85.211108 5.6218027,83.9625721 C2.424238,80.8255601 1.9846023,76.1109001 2.7042441,71.9186401 C3.0863084,69.6958281 3.7455003,67.4468961 4.6014815,65.3599081 C4.7503819,64.9968401 4.9102732,64.6311601 5.0853424,64.2707041 C4.9885179,64.2680921 4.8890765,64.2263001 4.8262714,64.1453281 C4.2479411,63.3565041 3.5442623,62.7113401 3.1148324,61.8284841 C2.7196837,61.0187641 2.2803097,60.1985961 1.9686393,59.3549201 C1.3277656,57.6283881 1.0137401,55.6798361 0.8043898,53.8540481 C0.3726047,50.1162761 0.5398233,46.4020121 1.1131815,42.6877481 C2.0890158,36.3614841 4.4463005,30.3073905 7.9191609,24.9951049 C7.7300727,24.8959235 7.5488672,24.7762087 7.3799938,24.6346444 L7.2966053,24.5620353 L7.161051,24.4397937 C6.1700389,23.5446613 6.2556108,21.8669737 7.161051,20.9603485 L7.4470173,20.6742321 C7.8091264,20.3151636 8.1213933,20.0306855 8.7063182,19.6397213 C8.7926752,19.5819961 8.880864,19.5276665 8.9700996,19.4769937 C8.6639247,18.9122793 8.5576794,18.2519657 8.7709551,17.5234789 C9.5141488,14.9856597 13.1725458,15.0755125 15.4913625,16.1822169 C18.0566891,13.8969781 20.9012368,11.9131641 23.9844438,10.3067841 C31.3276685,6.4828161 39.6307644,3.8159641 47.7381178,2.1860761 Z M9.7803639,69.0271561 C11.1516086,68.5805041 12.9729565,69.5182121 14.2055066,70.0824041 C15.7677834,70.7980921 17.097158,71.8559521 18.3846626,72.9738881 C19.025798,73.5328561 19.140679,74.4470561 18.9813111,75.2280441 C18.9653481,75.3064041 18.9499085,75.3873761 18.9313287,75.4683481 C18.7612315,76.3015761 17.8296225,76.9571881 17.0053056,76.9336801 C15.2807822,76.8866641 14.4593438,75.4004361 13.4829862,74.1414521 C13.3681052,74.3451881 13.2241769,74.5332521 13.0459674,74.6743001 L12.9256303,74.7683184 C12.5205154,75.0762243 12.0739157,75.3223136 11.538645,75.2985681 C11.1591975,75.2802841 10.795713,75.1836401 10.4604908,75.0086361 C9.6230894,74.5672081 9.2543712,73.4858401 9.481778,72.6055961 C9.6230894,72.0518521 9.9475825,71.6182601 10.3715169,71.3178801 L10.2134906,71.2099974 C9.8753727,70.975124 9.5669902,70.7275337 9.3266624,70.3621502 L9.2724276,70.2756921 L9.2933627,70.2756921 C9.0316747,69.8264281 9.2020336,69.2152201 9.7803639,69.0271561 Z" id="-Ink" fill="#000000"></path>
                        </g>
                        <g id="FACE" transform="translate(42.608379, 45.583200)" fill="#000000">
                            <path d="M25.3599334,49.9300158 C23.6007951,49.2137138 22.031199,48.0188749 20.8836728,46.4925455 C20.4847201,45.9619306 20.3812784,45.4016097 20.4649699,44.8891246 C20.5590752,44.3128713 20.9006323,43.7906003 21.3664396,43.4402769 C21.8336897,43.0888684 22.4181603,42.9155624 22.9832215,43.0039089 C23.4742265,43.0806768 23.9629986,43.3490122 24.3498251,43.9055303 L24.4306429,44.0168207 C25.1128671,44.9380606 26.0018679,45.6939269 27.0148223,46.1811265 C27.9911457,46.6507077 29.0830647,46.8698793 30.2130226,46.7424264 C32.3651004,46.4997766 33.8484207,45.3380799 35.4250284,43.7605153 C35.6204535,43.5613438 35.8160038,43.3559285 36.012502,43.1472067 C36.1365946,42.9580014 36.3088038,42.836399 36.5000029,42.7725962 C36.7122956,42.7017546 36.9524481,42.7057628 37.1724095,42.7823814 C37.3845633,42.8562803 37.5742182,42.9963156 37.7013869,43.1826933 C37.8222504,43.3598302 37.8907764,43.5786589 37.8685415,43.830366 C37.7242318,45.4652536 36.867897,46.924321 35.6515091,48.0699972 C34.3005549,49.3424169 32.5097665,50.2226853 30.8238175,50.531423 C28.9663967,50.8715095 27.0737344,50.627857 25.3599334,49.9300158 L25.3599334,49.9300158 Z M31.7000394,24.7087008 C33.6761439,25.9076207 36.6871203,28.703268 34.5612867,31.6755366 C32.0589772,34.2962839 28.4562164,31.2914181 26.6808384,29.9324343 C25.0346246,28.8792142 23.1850112,31.5880173 24.7123693,32.8178294 C37.5412884,42.2981451 42.7475355,25.0222016 32.6995255,23.2990649 C31.5932035,23.1091826 31.1823127,24.3378018 31.7000394,24.7087008 Z M8.7104932,13.6806397 C8.9288269,10.9755805 13.0563444,10.3613101 13.4669328,13.0380877 C13.8346043,15.4359037 13.4017725,17.6386033 12.319693,19.7974213 C11.285764,21.8598565 8.6870676,20.8976334 8.49054,19.0196054 C8.2271028,16.5021869 8.5746772,15.3633414 8.7104932,13.6806397 Z M40.1297128,12.4830638 C40.7051645,11.7308078 41.5360237,11.2172886 42.5314845,11.5074818 C45.6416454,12.4146294 44.7249526,16.821857 43.6326673,18.9670926 C43.0391591,20.1320446 41.120725,20.4274618 40.2537529,19.4017294 C38.8406381,17.7290046 38.1639132,14.3885178 39.9604007,12.7408682 C40.0090747,12.655717 40.0632441,12.5697822 40.1297128,12.4830638 Z M12.2758864,1.8441266 L12.7671717,1.7582976 C14.2870025,1.4959366 16.1767373,1.2438368 17.2518821,2.4634318 C17.8221001,3.110163 18.0183661,4.3122054 17.2518821,4.9312494 C15.903666,6.0204534 14.4130916,5.5983542 12.7974304,5.6905578 C11.4659623,5.7668282 10.1863084,5.9867586 8.9037759,6.3526998 C6.0901074,7.1553674 3.7974596,8.6206994 1.3943794,10.2296914 C1.0790455,10.440741 0.7571693,10.0382318 0.9076399,9.7438594 C2.2948475,7.0318198 4.9831675,4.804045 7.6759362,3.4460662 C9.1131262,2.7212362 10.6858706,2.1199538 12.2758864,1.8441266 Z M37.2945535,0.629256 L37.6705807,0.7060699 C41.7626565,1.5598305 47.0792209,3.2652874 49.0170162,7.277177 C49.0908551,7.8444723 49.0128373,7.9660551 48.9493948,8.0454903 L48.9282718,8.0719237 C48.8759951,8.1397567 48.8342823,8.2332642 48.5879326,8.3104741 C48.5195706,8.2942164 48.4505281,8.2769974 48.3807543,8.2587464 C47.4925028,8.0264023 46.7897241,7.7063156 46.1093598,7.3741874 L45.3716723,7.011433 C44.5158074,6.5925678 43.6523859,6.1889474 42.7373573,5.8909796 C40.7846078,5.2552332 38.776037,4.8073895 36.7363473,4.5682511 C36.2942602,4.5164639 35.8685581,4.3675378 35.5327098,4.1123028 C35.2139223,3.8700336 34.9703892,3.5346061 34.8593518,3.08875 C34.7154473,2.5117409 34.7568023,2.0748978 35.0669708,1.5543511 C35.3001984,1.1634317 35.6339097,0.8924735 36.0170948,0.73688 C36.4077354,0.5782593 36.8524759,0.5408645 37.2945535,0.629256 Z" id="-Ink"></path>
                        </g>
                        <g id="FACIAL-HAIR" transform="translate(44.187614, 102.285600)" fill="#000000">
                            <path d="M1.7229677,2.481664 C-1.1485699,3.7473305 2.2628746,6.1783157 5.3161265,8.2658 C8.37046,10.3540238 13.6124073,13.8787193 18.935917,14.3964484 C23.1983835,14.8095857 26.8459817,13.8235969 30.9307365,12.2230877 C34.0615979,10.9967497 40.3455034,5.4313605 40.3455034,2.481664 C40.3455034,-0.4680325 38.9994703,2.4327645 34.3685834,4.0165503 C29.7376964,5.600336 28.4103979,0.5857575 25.3887066,0.83243 C22.3670153,1.0791024 23.8803271,5.4313605 17.193108,5.4313605 C10.5058889,5.4313605 4.5945052,1.2159975 1.7229677,2.481664 Z" id="-Ink"></path>
                        </g>
                    </g>
                </g>
                <path d="M178.262146,172.918219 L180.231397,175.435942 L184.222223,175.435992 L184.222225,194.45502 C187.591043,190.652665 192.514725,188.255297 197.999261,188.255297 C208.154078,188.255297 216.386185,196.473927 216.386185,206.61212 C216.386185,216.648932 208.317897,224.804379 198.303322,224.966485 L197.999261,224.968944 L197.999261,224.968944 C192.514725,224.968944 187.591044,222.571576 184.222226,218.769221 L184.222223,224.968944 L179.612336,224.968944 L179.612333,218.769221 C176.243515,222.571576 171.319834,224.968944 165.835299,224.968944 C155.680481,224.968944 147.448374,216.750314 147.448374,206.61212 C147.448374,205.071996 147.638351,203.57617 147.996186,202.146727 L143.330061,205.788625 L140.605966,202.305811 L178.262146,172.918219 Z M165.651975,193.096879 C158.174901,193.096879 152.113534,199.452489 152.113534,207.292532 C152.113534,215.132574 158.174901,221.488184 165.651975,221.488184 C172.932198,221.488184 178.870275,215.462822 179.177898,207.90858 L179.177898,206.676502 C178.870285,199.122251 172.932204,193.096879 165.651975,193.096879 Z M198.681924,192.877734 C191.401694,192.877734 185.463613,198.903106 185.156001,206.457357 L185.156001,207.689435 C185.463623,215.243677 191.401701,221.269039 198.681924,221.269039 C206.158998,221.269039 212.220365,214.913429 212.220365,207.073386 C212.220365,199.233344 206.158998,192.877734 198.681924,192.877734 Z M179.230112,176.527886 L165.69793,188.116471 L165.736277,188.116152 C171.108072,188.116152 175.930543,190.692776 179.230112,194.779439 L179.230112,176.527886 Z" id="logo-biwabits" fill="#FFFFFF" transform="translate(178.496075, 198.943582) rotate(16.000000) translate(-178.496075, -198.943582) "></path>
            </g>
        </g>
    </g>
</svg>