<?xml version="1.0" encoding="UTF-8"?>
<svg width="1280px" height="500px" viewBox="0 0 1280 500" version="1.1" xmlns="http://www.w3.org/2000/svg" xmlns:xlink="http://www.w3.org/1999/xlink">
    <g id="Page-1" stroke="none" stroke-width="1" fill="none" fill-rule="evenodd">
        <g id="julianda-c">
            <rect id="Rectangle" x="0" y="0" width="1280" height="500"></rect>
            <g id="kucing" transform="translate(128.000000, 341.999243)" fill-rule="nonzero">
                <g id="ground" transform="translate(0.000000, 119.000757)" fill="#919191">
                    <path d="M1.31618656,3 C34.1053955,3 66.8946045,3 99.6838134,3 C101.438729,3 101.438729,0 99.6838134,0 C66.8946045,0 34.1053955,0 1.31618656,0 C-0.438728853,0 -0.438728853,3 1.31618656,3 L1.31618656,3 Z" id="Path"></path>
                    <path d="M105.321233,30 C175.137984,30 244.862016,30 314.678767,30 C316.440411,30 316.440411,27 314.678767,27 C244.862016,27 175.137984,27 105.321233,27 C103.559589,27 103.559589,30 105.321233,30 L105.321233,30 Z" id="Path"></path>
                    <path d="M829.38896,29 C899.392521,29 969.48868,29 1039.49224,29 C1059.58586,29 1079.58687,29 1099.68049,29 C1101.43984,29 1101.43984,26 1099.68049,26 C1029.67693,26 959.580768,26 889.577207,26 C869.483592,26 849.482574,26 829.38896,26 C827.537013,26 827.537013,29 829.38896,29 L829.38896,29 Z" id="Path"></path>
                </g>
                <g id="cat" transform="translate(840.720652, 0.000000)">
                    <g id="paw_front_right" transform="translate(74.415509, 69.425071)" fill="#919191" stroke="#919191" stroke-width="3">
                        <path d="M0.61383929,3.69876364 C-1.33616071,6.86469771 1.43883929,10.5460164 7.81383929,24.3877746 C17.5638393,45.5185438 17.1138393,50.3778845 15.5388393,53.6174449 C12.9138393,58.9185438 7.28883929,59.5811812 7.81383929,62.1581043 C8.56383929,65.9130493 20.9388393,68.7844779 25.2888393,64.1460164 C27.2388393,62.0844779 26.9388393,59.2130493 26.3388393,53.5438186 C23.6388393,30.0570054 23.1138393,28.3635988 22.2138393,21.2218405 C20.6388393,8.5581043 21.4638393,5.31854386 18.0888393,2.52074167 C13.0638393,-1.38145614 3.31383929,-0.57156603 0.61383929,3.69876364 Z" id="Path"></path>
                    </g>
                    <g id="leg_back_right" transform="translate(186.311727, 68.070027)" fill="#919191" stroke="#919191" stroke-width="3">
                        <path d="M4.11162051,1.54705685 C9.66162051,-2.3468207 19.3556205,1.76746501 24.3876205,6.61644461 C28.6056205,10.5837915 27.6436205,13.2286895 32.5276205,16.6817507 C33.6376205,17.489914 38.7436205,21.089914 45.1816205,20.722567 C50.1396205,20.4286895 51.1016205,18.0041997 54.8016205,18.7388936 C57.3916205,19.1797099 58.5016205,20.6490976 63.4596205,25.2776691 C71.2296205,32.6246079 74.1156205,34.3144038 73.5976205,35.3429752 C73.0796205,36.2980772 70.6376205,35.7837915 59.9076205,34.3144038 C52.0636205,33.212363 47.9936205,32.6980772 45.1816205,32.5511385 C38.7436205,32.2572609 38.4476205,33.0654242 28.9756205,33.2858323 C19.2076205,33.5797099 14.2496205,33.5797099 10.6976205,31.7429752 C2.77962051,27.6286895 0.707620509,18.5184854 0.559620509,17.6368527 C0.337620509,16.4613425 -1.80837949,5.66134256 4.11162051,1.54705685 Z" id="Path"></path>
                    </g>
                    <g id="body" transform="translate(69.583968, 41.070316)" fill="#919191" stroke="#919191" stroke-width="3">
                        <path d="M13.9164322,0.00439954233 C18.7059059,0.152316209 20.7690638,5.77314954 25.042748,10.6543995 C36.1690638,23.5231495 55.5480112,23.9668995 71.4638007,24.3366912 C101.526959,25.0023162 109.632222,13.5387745 124.000643,21.3043995 C131.884854,25.5939829 139.326959,34.3950245 139.179591,44.0835662 C138.958538,56.7304412 125.769064,65.6793995 116.484854,68.9335662 C108.232222,71.8179412 103.737485,70.0429412 81.1164322,65.9012745 C44.7164322,59.1710662 37.4953796,60.2064829 23.5690638,52.2189829 C15.6111691,47.6335662 8.46380063,41.7908579 3.89537958,32.9898162 C1.97959011,29.2918995 -1.04146253,23.1533579 0.35853747,15.7575245 C1.75853747,7.99189954 7.94801116,-0.217475458 13.9164322,0.00439954233 Z" id="Path"></path>
                    </g>
                    <g id="tail" transform="translate(188.841659, 0.000000)" fill="#919191" stroke="#919191" stroke-width="3">
                        <path d="M0.321205161,62.9419338 C1.86735901,60.8095808 7.97834802,66.1772279 14.4574689,63.4566397 C19.9794469,61.1036985 22.4827436,54.2654632 24.0288975,49.8536985 C26.9003261,41.9860514 24.9860403,39.1919338 28.078348,36.2507573 C31.023403,33.3831102 33.6003261,35.2213455 42.2146118,32.7213455 C48.0310953,31.0301691 52.7431832,29.7066397 55.3201063,25.662522 C57.3816447,22.4272279 55.9091173,20.8095808 57.3080184,12.5742867 C57.7497766,10.0742867 59.4431832,0.0742867279 61.8728535,0.000757316123 C63.6398865,-0.0727720957 65.7750513,5.22134556 65.9223041,10.0742867 C65.9959305,12.0595808 65.701425,13.4566397 62.9036228,22.6478161 C61.1365898,28.3831102 60.2530733,31.2507573 59.8849414,31.6919338 C56.2772491,36.1772279 51.4915349,33.9713455 42.2146118,38.2360514 C37.723403,40.2948749 33.3794469,42.2801691 31.0970294,46.7654632 C29.0354909,50.8831102 30.8025239,52.7213455 28.5937327,58.8242867 C26.5321942,64.412522 23.2190074,67.7213455 22.55637,68.3831102 C20.1266997,70.8095808 15.1937327,75.5889926 9.45087548,74.412522 C2.97175461,73.2360514 -1.22494869,65.0742867 0.321205161,62.9419338 Z" id="Path"></path>
                    </g>
                    <g id="_x3B_eg_back_left" transform="translate(169.462207, 82.254609)" fill="#919191" stroke="#919191" stroke-width="3">
                        <path d="M2.69974958,15.9222847 C1.81279305,17.6950119 -0.700250428,22.7916028 0.186706093,29.0700119 C1.07366262,35.4961483 5.06496697,41.035921 7.79974958,44.7291028 C11.5693148,49.973421 13.7867061,51.0813756 13.3432279,53.2972847 C12.5301844,58.1722847 1.59105392,58.5416028 1.66496697,60.9052392 C1.81279305,63.2688756 12.8997496,64.4506938 21.3997496,63.9336483 C27.7562713,63.5643301 29.2345322,62.4563756 30.0475757,61.4222847 C31.8214887,58.910921 29.8258366,55.9563756 29.0127931,49.3086483 C28.4214887,44.5813756 28.864967,41.2575119 29.5301844,35.6438756 C30.63888,26.410921 32.4127931,25.8200119 33.0780105,18.9506938 C33.5954018,13.4847847 34.4823583,4.39955739 30.0475757,1.22342103 C23.9867061,-3.06066988 8.53888001,4.39955739 2.69974958,15.9222847 Z" id="Path"></path>
                    </g>
                    <g id="paw_front_left" transform="translate(0.000000, 24.185453)" fill="#919191">
                        <path d="M21.748913,27.4998111 C22.9315217,33.4322055 29.4358695,37.1674168 38.9706521,41.0491069 C49.0967391,45.2237548 77.775,56.9420647 83.0228261,49.1054449 C84.3532608,47.1279802 83.9097826,44.3448816 83.0228261,42.5871351 C80.8054348,38.4124872 74.7445652,38.8519238 64.248913,37.0941773 C55.0836956,35.5561492 46.5836956,34.1645999 37.9358695,29.5505154 C29.9532608,25.3758675 25.2228261,20.3223464 22.7097826,22.0068534 C20.9358695,23.2519238 21.675,27.133614 21.748913,27.4998111 Z" id="Path" stroke="#919191" stroke-width="3"></path>
                        <path d="M10.2184782,1.64629006 C12.5097826,5.45474076 15.3184782,8.89699428 18.6445652,11.9730506 C19.6793478,12.9251633 21.2315217,11.3871351 20.1967391,10.4350224 C17.0184782,7.50544499 14.3576087,4.20967034 12.1402174,0.547698504 C11.4010869,-0.697371918 9.47934783,0.401219631 10.2184782,1.64629006 L10.2184782,1.64629006 Z" id="Path"></path>
                        <path d="M0.683695657,7.1392478 C2.975,9.92234644 5.93152174,11.8998111 9.2576087,13.0716421 C10.5880435,13.5843182 11.1793478,11.4603745 9.84891303,10.9476985 C6.81847826,9.84910694 4.23152174,8.01812104 2.23586957,5.60121963 C1.34891305,4.50262808 -0.203260869,6.04065625 0.683695657,7.1392478 L0.683695657,7.1392478 Z" id="Path"></path>
                        <path d="M1.05326087,21.5674168 C3.12282609,21.7871351 5.19239131,21.933614 7.33586957,22.1533323 C8.7402174,22.2998111 8.7402174,20.102628 7.33586957,19.9561492 C5.26630435,19.7364309 3.19673913,19.589952 1.05326087,19.3702337 C-0.351086956,19.2237548 -0.351086956,21.4209379 1.05326087,21.5674168 L1.05326087,21.5674168 Z" id="Path"></path>
                    </g>
                    <g id="head_1_" transform="translate(42.989040, 19.517680)">
                        <path d="M18.9515985,11.0769231 C16.3548243,12.1107692 12.2741792,14.0307692 8.26772753,17.6492307 C4.85482431,20.7507692 1.59030818,23.7046154 1.14514689,27.7661538 C0.329017858,35.1507692 9.38063078,42.1661538 16.4290179,44.9723077 C17.6903082,45.4892307 32.6032114,51.1015384 40.8386953,42.4615384 C46.4032114,36.5538461 45.1419211,28.1353846 44.9193405,26.8061538 C43.2128888,15.8030769 33.2709534,10.6338461 32.2322437,10.1169231 C29.709663,6.72 27.1128888,3.39692307 24.5903082,-1.33226763e-15 C22.7354695,3.69230769 20.8806308,7.38461538 18.9515985,11.0769231 Z" id="Path" stroke="#919191" stroke-width="3" fill="#919191"></path>
                        <path d="M12.0515985,21.0461538 C13.1645017,24.2215384 16.1322437,26.3630769 19.5451469,26.2892307 C20.9548243,26.2153846 20.9548243,24 19.5451469,24.0738461 C17.1709534,24.1476923 14.9451469,22.6707692 14.2032114,20.4553846 C13.6838566,19.1261538 11.5322437,19.7169231 12.0515985,21.0461538 L12.0515985,21.0461538 Z" id="Path" fill="#FFFFFF"></path>
                        <path d="M1.21934044,26.2892307 C1.88708237,26.2892307 2.18385657,26.5107692 2.25805012,27.0276923 C2.03546947,27.2492307 1.88708237,27.5446154 1.66450173,27.7661538 C1.21934044,27.9138461 1.14514689,27.6923077 0.996759788,27.5446154 C0.922566238,27.4707692 0.996759788,27.3969231 0.922566238,27.4707692 C0.848372698,27.5446154 0.848372698,27.7661538 0.774179148,27.9138461 C1.21934044,27.6923077 1.66450173,27.3969231 2.10966302,27.1753846 C2.18385657,27.2492307 2.18385657,27.2492307 2.10966302,27.1753846 C2.18385657,27.1753846 2.18385657,27.2492307 2.18385657,27.2492307 C2.25805012,27.3230769 2.18385657,27.3230769 2.18385657,27.1753846 C2.25805012,27.2492307 2.25805012,27.2492307 2.18385657,27.1753846 C2.10966302,26.5846154 1.36772753,26.2892307 0.848372698,26.4369231 C0.254824307,26.5846154 -0.0419498874,27.1753846 0.10643721,27.7661538 C0.254824307,28.5046154 0.848372698,29.0953846 1.59030818,29.3169231 C2.18385657,29.5384615 2.70321141,29.0953846 2.92579205,28.5784615 C3.22256624,27.9138461 3.29675979,27.1753846 2.92579205,26.5846154 C2.55482431,25.92 1.73869528,25.5507692 0.996759788,25.7723077 C0.254824307,25.9938461 -0.116143435,26.8061538 0.0322436616,27.5446154 C0.254824307,28.2830769 0.996759788,28.8 1.73869528,28.5784615 C2.33224366,28.4307692 2.70321141,27.84 2.48063076,27.2492307 C2.40643721,26.5107692 1.81288883,26.1415384 1.21934044,26.2892307 L1.21934044,26.2892307 Z" id="Path" fill="#FFFFFF"></path>
                        <path d="M0.774179148,28.2092307 C1.88708237,31.9753846 6.33869528,33.8215384 9.75159848,32.0492307 C11.0128888,31.3846154 9.89998558,29.4646154 8.63869528,30.1292307 C6.41288883,31.2369231 3.59353399,29.9076923 2.92579205,27.6184615 C2.55482431,26.2153846 0.403211408,26.8061538 0.774179148,28.2092307 L0.774179148,28.2092307 Z" id="Path" fill="#FFFFFF"></path>
                    </g>
                </g>
                <g id="books" transform="translate(196.000000, 5.000757)" fill="#919191">
                    <path d="M40,6.703125 C41.6662562,7.015625 44.0899015,7.484375 47.1194581,7.875 C61.5855911,10.0625 71.8860837,9.984375 84.6102217,10.140625 C92.2598522,10.21875 103.544951,10.453125 117.708128,11 C132.780172,9.90625 147.927956,8.8125 163,7.640625 C142.171798,5.453125 121.343596,3.1875 100.515394,1 C80.2931034,2.875 60.1465517,4.75 40,6.703125 Z" id="Path"></path>
                    <path d="M85,53.3913043 C89.3520679,54.2608696 93.7041357,55.1304348 98.0562036,56 C113.173913,55.1304348 129.742312,52.9565217 147.226935,48.6086957 C150.586426,47.8115942 153.869565,46.942029 157,46 C133.025451,48.4637681 109.050901,50.9275362 85,53.3913043 Z" id="Path"></path>
                    <path d="M41,113.121439 C41.0759607,119.544228 41.1519214,126.043478 41.227882,132.466267 C76.3217158,136.977511 111.49151,141.488756 146.585344,146 C146.585344,139.577211 146.585344,133.077961 146.585344,126.655172 C168.082216,117.02099 189.503128,107.386807 211,97.7526237 C204.999106,96.8350825 198.998213,95.9175412 192.997319,95 C192.313673,96.0704648 191.630027,97.1409295 191.022341,98.2878561 C164.967828,106.392804 138.913315,114.574213 112.858803,122.67916 C88.9311886,119.467766 64.9276139,116.256372 41,113.121439 Z" id="Path"></path>
                    <path d="M2,26.2072539 C28.2406903,29.4715026 54.5572207,32.7357513 80.797911,36 C102.791553,35.4559585 125.922797,33.9792746 150.039964,31.2590674 C156.486376,30.5595855 162.781108,29.7046632 169,28.8497409 C162.401907,26.8290155 155.879655,24.7305699 149.281562,22.7098446 C136.161217,23.9533679 122.965032,25.1968912 109.844687,26.4404145 C84.8932788,24.6528497 60.0177112,22.7875648 35.0663034,21 C24.0694823,22.7098446 12.9968211,24.4196891 2,26.2072539 Z" id="Path"></path>
                    <path d="M101,73.3211679 C109.142266,74.5474453 117.360629,75.7737226 125.502895,77 C148.027295,71.0985401 170.4756,65.2737226 193,59.3722628 C185.542597,58.2226277 178.16129,57.149635 170.703888,56 C147.418528,61.8248175 124.209264,67.5729927 101,73.3211679 Z" id="Path"></path>
                    <path d="M7,92.0152905 C41.6666667,96.9847095 76.2573099,102.030581 110.923977,107 C121.643275,104.706422 132.818713,102.030581 144.450292,98.8195719 C160.415205,94.4617737 175.239766,89.6452599 189,84.7522936 C183.830409,83.8348624 178.660819,82.9174312 173.491228,82 C157.298246,86.5107034 141.105263,91.0214067 124.836257,95.5321101 C96.0994152,91.5565749 67.3625731,87.6574924 38.625731,83.6819572 C28.1345029,86.5107034 17.5672515,89.2629969 7,92.0152905 Z" id="Path"></path>
                    <path d="M36,9.08830549 C36,13.6706444 36,18.3293556 36,22.9116945 C36,24.3627685 38,24.3627685 38,22.9116945 C38,18.3293556 38,13.6706444 38,9.08830549 C38,7.6372315 36,7.6372315 36,9.08830549 L36,9.08830549 Z" id="Path"></path>
                    <path d="M37.1398489,9.30783688 C64.0402838,10.2302198 91.0167086,11.0757376 117.917144,11.9981205 C119.360952,12.0749858 119.360952,9.76902837 117.917144,9.69216312 C91.0167086,8.76978015 64.0402838,7.92426243 37.1398489,7.00187946 C35.6200504,6.92501421 35.6200504,9.23097163 37.1398489,9.30783688 L37.1398489,9.30783688 Z" id="Path"></path>
                    <path d="M37.1315062,24.3992178 C61.4211717,24.8790614 85.7108373,26.0786703 109.925069,27.9980445 C111.35831,28.0780185 111.35831,25.6788006 109.925069,25.5988267 C85.7108373,23.7594264 61.4211717,22.5598175 37.1315062,22 C35.6228313,22 35.6228313,24.3992178 37.1315062,24.3992178 L37.1315062,24.3992178 Z" id="Path"></path>
                    <path d="M118.11144,11.9981766 C133.688044,10.6558728 149.340632,9.76100353 164.917236,9.23899647 C166.360921,9.16442404 166.360921,6.92725096 164.917236,7.0018234 C149.264649,7.44925801 133.688044,8.41869968 118.11144,9.76100353 C116.667755,9.83557596 116.591772,12.072749 118.11144,11.9981766 L118.11144,11.9981766 Z" id="Path"></path>
                    <path d="M110.079402,27.9924368 C128.334551,26.0950411 146.665449,24.2767035 164.920598,22.3793078 C166.359801,22.2211915 166.359801,19.8494469 164.920598,20.0075632 C146.665449,21.9049589 128.334551,23.7232965 110.079402,25.6206922 C108.640199,25.7788085 108.640199,28.1505531 110.079402,27.9924368 L110.079402,27.9924368 Z" id="Path"></path>
                    <path d="M116.818736,11.5597302 C116.27823,12.405251 115.892154,13.2507717 115.737724,14.2500236 C115.506078,15.9410652 116.201015,17.2477792 115.351648,18.9388207 C114.34785,21.0910555 113.730129,22.7820971 114.116205,25.1649284 C114.34785,26.6253735 116.587091,26.0104492 116.355445,24.5500042 C115.969369,22.0134418 117.282027,20.8604589 118.054179,18.7850897 C118.749116,16.6328549 117.436458,14.7880823 118.826331,12.7127131 C119.598483,11.4828646 117.590888,10.2530162 116.818736,11.5597302 L116.818736,11.5597302 Z" id="Path"></path>
                    <path d="M37.4094958,7.99258043 C57.8132823,5.30476447 78.2926383,3.41602894 98.9231335,2.18108647 C100.358956,2.1084428 100.358956,-0.0708674358 98.9231335,0.00177623864 C78.1414991,1.2367187 57.4354344,3.19809791 36.8805088,5.88591387 C35.3691172,6.10384489 35.9736738,8.13786777 37.4094958,7.99258043 L37.4094958,7.99258043 Z" id="Path"></path>
                    <path d="M98.0765302,2.27070195 C120.060411,2.41719886 141.968745,4.32165856 163.574896,7.98408107 C165.01027,8.20382642 165.614638,6.07962136 164.179264,5.85987601 C142.346475,2.12420505 120.211503,0.1464969 98.0765302,0 C96.6411566,0.0732484502 96.6411566,2.27070195 98.0765302,2.27070195 L98.0765302,2.27070195 Z" id="Path"></path>
                    <path d="M41.8197685,16.1889908 C48.309065,17.6921733 55.1001892,16.1138317 61.7403996,16.1889908 C69.1351793,16.2641499 76.529959,17.0909003 83.9247387,17.9928098 C85.3584204,18.143128 85.3584204,15.8883543 83.9247387,15.7380361 C77.0581575,14.9864448 70.1161194,14.1596945 63.1740813,14.0093762 C56.4584141,13.859058 49.0636344,15.5877178 42.423424,14.0845353 C40.9897423,13.6335806 40.3860868,15.8131952 41.8197685,16.1889908 L41.8197685,16.1889908 Z" id="Path"></path>
                    <path d="M71.0793245,21.3526031 C82.6678608,21.7443843 94.3321392,22.2928779 105.920676,22.9980841 C107.359775,23.0764403 107.359775,20.7257532 105.920676,20.6473969 C94.3321392,19.9421908 82.6678608,19.3936971 71.0793245,19.0019159 C69.6402252,18.9235597 69.6402252,21.2742468 71.0793245,21.3526031 L71.0793245,21.3526031 Z" id="Path"></path>
                    <path d="M90.0950242,17.104911 C96.6828053,17.5944957 103.345448,18.2239617 109.933229,18.993309 C111.35559,19.1331903 111.35559,17.0349703 109.933229,16.895089 C103.345448,16.1257417 96.7576664,15.4962757 90.0950242,15.006691 C88.5978012,14.8668097 88.6726624,16.9650297 90.0950242,17.104911 L90.0950242,17.104911 Z" id="Path"></path>
                    <path d="M122.81002,17.766071 C128.059458,18.5346299 133.158911,17.2280798 138.333357,16.4595209 C144.482698,15.4603943 150.707031,14.6918354 156.931364,14.3075559 C158.356212,14.2307 158.356212,11.9250233 156.931364,12.0018792 C151.906903,12.3093028 146.882441,12.9241499 141.932971,13.6158529 C135.933614,14.4612677 129.559297,16.4595209 123.484948,15.6141061 C121.985109,15.3066825 121.385173,17.5355033 122.81002,17.766071 L122.81002,17.766071 Z" id="Path"></path>
                    <path d="M132.084423,21.8994973 C136.802616,22.4222376 141.140309,20.7793396 145.706302,19.8832134 C151.033294,18.7630557 156.512485,18.3149926 161.915577,18.2403154 C163.361474,18.2403154 163.361474,16 161.915577,16 C157.197384,16.0746772 152.555291,16.4480631 147.913199,17.1948349 C142.738407,18.0909611 137.411415,20.3312765 132.084423,19.7338591 C130.638526,19.5098275 130.638526,21.750143 132.084423,21.8994973 L132.084423,21.8994973 Z" id="Path"></path>
                    <path d="M163,10.1586207 C163.088235,14.097931 163.176471,17.96 163.352941,21.8993103 C163.352941,23.3668966 166,23.3668966 166,21.8993103 C165.911765,17.96 165.823529,14.097931 165.647059,10.1586207 C165.647059,8.6137931 163,8.6137931 163,10.1586207 L163,10.1586207 Z" id="Path"></path>
                    <path d="M0.498239214,27.1074919 C0.58094205,32.0542888 0.415536379,37.0010858 0.0020221991,41.9478827 C-0.0806806368,43.3507058 2.40040444,43.3507058 2.48310728,41.9478827 C2.89662146,37.0010858 3.06202713,32.0542888 2.97932429,27.1074919 C2.89662146,25.630836 0.415536379,25.630836 0.498239214,27.1074919 L0.498239214,27.1074919 Z" id="Path"></path>
                    <path d="M2.10867188,44.2645141 C28.6366314,47.5752439 55.2403852,50.4345105 81.9199331,52.9928017 C83.3600223,53.1432894 83.3600223,50.8859736 81.9199331,50.7354859 C55.2403852,48.1771947 28.6366314,45.3179281 2.10867188,42.0071983 C0.592788473,41.8567106 0.668582643,44.1140264 2.10867188,44.2645141 L2.10867188,44.2645141 Z" id="Path"></path>
                    <path d="M80.7509158,37.1036446 C80.5261905,42.0603645 80.2265569,46.9396355 80.0018316,51.8963554 C79.9269232,53.3678815 82.1741758,53.3678815 82.2490842,51.8963554 C82.4738095,46.9396355 82.7734431,42.0603645 82.9981684,37.1036446 C83.0730768,35.6321185 80.8258242,35.6321185 80.7509158,37.1036446 L80.7509158,37.1036446 Z" id="Path"></path>
                    <path d="M82.0827353,37.9980884 C111.411566,36.8254002 140.740397,34.5582031 169.917265,31.3528555 C171.360912,31.196497 171.360912,28.8511207 169.917265,29.0074791 C140.740397,32.2128268 111.411566,34.4018447 82.0827353,35.6527121 C80.6390882,35.7308913 80.6390882,38.0762676 82.0827353,37.9980884 L82.0827353,37.9980884 Z" id="Path"></path>
                    <path d="M83.0798212,53.9929464 C111.95083,50.6750593 140.897616,47.7995572 169.920179,45.2189783 C171.35994,45.0715167 171.35994,42.8595919 169.920179,43.0070536 C140.973393,45.5876324 112.026607,48.5368654 83.0798212,51.7810217 C81.6400596,51.9284833 81.6400596,54.1404081 83.0798212,53.9929464 L83.0798212,53.9929464 Z" id="Path"></path>
                    <path d="M169,31.1764706 C169,35.4117647 169.064516,39.6470588 169.064516,43.8823529 C169.064516,45.372549 171,45.372549 171,43.8823529 C171,39.6470588 170.935484,35.4117647 170.935484,31.1764706 C170.935484,29.6078431 169,29.6078431 169,31.1764706 L169,31.1764706 Z" id="Path"></path>
                    <path d="M1.44174734,26.9927867 C12.9059879,25.5328347 24.3702284,24.2188779 35.9108972,23.1969115 C37.3630343,23.0509163 37.3630343,20.8609882 35.9108972,21.0069834 C24.2173718,22.0289499 12.5238465,23.3429067 0.830321177,24.8758563 C-0.621815954,25.0218515 -0.0103897937,27.1387819 1.44174734,26.9927867 L1.44174734,26.9927867 Z" id="Path"></path>
                    <path d="M3.08064302,29.1718797 C29.3194139,30.9803055 55.4823501,33.5844386 81.5694517,36.9842791 C83.0103091,37.2012902 83.6169859,35.1035163 82.1761285,34.8865052 C55.9373577,31.4866647 29.5469176,28.8101945 3.08064302,27.0017687 C1.63978566,26.9294317 1.63978566,29.0995427 3.08064302,29.1718797 L3.08064302,29.1718797 Z" id="Path"></path>
                    <path d="M149.810173,24.3457544 C156.521804,25.7031724 163.158861,27.5396791 169.646771,29.9351226 C170.989097,30.4142114 171.585687,28.098616 170.243361,27.6195272 C163.755451,25.3039318 157.192967,23.387577 150.406762,22.030159 C148.989862,21.7107666 148.393273,24.026362 149.810173,24.3457544 L149.810173,24.3457544 Z" id="Path"></path>
                    <path d="M14.0697051,39.459672 C27.5817694,38.7427781 40.4932976,43.7610354 53.9302949,44 C55.3565684,44 55.3565684,41.6103537 53.9302949,41.6103537 C40.4932976,41.371389 27.5067024,36.3531318 14.0697051,37.0700257 C12.6434316,37.1496805 12.6434316,39.5393269 14.0697051,39.459672 L14.0697051,39.459672 Z" id="Path"></path>
                    <path d="M40.7609473,36.2714722 C50.6607165,39.9714794 61.3854664,37.7061689 71.5852286,39.9714794 C73.0101954,40.2735208 73.6101814,38.0837206 72.1852146,37.7816792 C61.9854524,35.5163687 51.2607025,37.7816792 41.3609333,34.081672 C40.0109648,33.5530996 39.4109788,35.7428997 40.7609473,36.2714722 L40.7609473,36.2714722 Z" id="Path"></path>
                    <path d="M86.4398477,45.9716867 C111.780601,40.3495887 138.113613,39.7498983 163.912332,38.2506721 C165.362556,38.1757108 165.362556,35.9268716 163.912332,36.0018329 C137.808303,37.5760204 111.398963,38.1007495 85.8292272,43.7978088 C84.3790033,44.0976541 84.9896239,46.271532 86.4398477,45.9716867 L86.4398477,45.9716867 Z" id="Path"></path>
                    <path d="M129.098736,43.9616494 C138.19704,44.2002755 147.295344,43.3253131 156.162335,41.3367623 C157.627316,41.0185942 157.010482,38.7118753 155.545501,39.0300434 C146.832718,40.9390522 137.965727,41.8140145 129.098736,41.5753884 C127.633755,41.4958464 127.633755,43.8821073 129.098736,43.9616494 L129.098736,43.9616494 Z" id="Path"></path>
                    <path d="M17,46.0722772 C17,51.7158416 17,57.2841584 17,62.9277228 C17,64.3574257 19,64.3574257 19,62.9277228 C19,57.2841584 19,51.7158416 19,46.0722772 C19,44.6425743 17,44.6425743 17,46.0722772 L17,46.0722772 Z" id="Path"></path>
                    <path d="M17.7692298,64.2181853 C30.0511904,67.8180376 43.6219987,67.8930345 56.3588467,69.0929853 C69.8538404,70.367933 83.4246487,71.7178776 96.9196424,72.9928253 C98.3601192,73.1428191 98.3601192,70.8929114 96.9196424,70.7429176 C83.8795361,69.4679699 70.8394298,68.2680191 57.7993235,66.9930714 C44.8350318,65.7181237 30.8851507,65.7181237 18.3757464,62.0432745 C17.0110841,61.6682899 16.4045676,63.8432006 17.7692298,64.2181853 L17.7692298,64.2181853 Z" id="Path"></path>
                    <path d="M97.0631775,55.1477152 C97.1263549,60.4272051 97.1263549,65.6301807 97,70.9096706 C97,72.3634431 98.8953241,72.3634431 98.8953241,70.9096706 C99.0216791,65.6301807 99.0216791,60.4272051 98.9585016,55.1477152 C98.9585016,53.6174283 97.0631775,53.6174283 97.0631775,55.1477152 L97.0631775,55.1477152 Z" id="Path"></path>
                    <path d="M84.1371444,55.0849782 C88.3066737,55.4321916 92.4762031,56.0571756 96.5699228,56.9599304 C98.0103057,57.3071438 98.6167827,55.2933062 97.1763998,54.9460929 C92.8552512,53.9738954 88.5341026,53.3489113 84.1371444,53.001698 C82.6209519,52.9322553 82.6209519,55.0155355 84.1371444,55.0849782 L84.1371444,55.0849782 Z" id="Path"></path>
                    <path d="M98.079402,56.9981359 C119.288704,55.2446656 140.34651,52.0426765 161.177075,47.2396927 C162.616277,46.9347414 162.010297,44.7238441 160.571095,45.0287954 C139.967773,49.7555413 119.137209,52.9575305 98.079402,54.7110008 C96.6401993,54.7872386 96.6401993,57.0743737 98.079402,56.9981359 L98.079402,56.9981359 Z" id="Path"></path>
                    <path d="M98.3786496,72.9718523 C122.538559,68.4259471 146.54652,62.8367193 170.174608,56.2041691 C171.618125,55.8315539 171.010328,53.6703859 169.566811,54.043001 C145.862749,60.6755513 121.930763,66.339302 97.7708531,70.8106842 C96.403311,71.1087764 97.0111075,73.2699444 98.3786496,72.9718523 L98.3786496,72.9718523 Z" id="Path"></path>
                    <path d="M168.356596,44.043662 C168.443663,47.7056338 168.356596,51.3676056 168.008329,54.956338 C167.834196,56.3478873 170.446197,56.3478873 170.62033,54.956338 C170.968597,51.2943662 171.055663,47.6323944 170.968597,44.043662 C170.968597,42.6521127 168.356596,42.6521127 168.356596,44.043662 L168.356596,44.043662 Z" id="Path"></path>
                    <path d="M161.12993,47 C163.825902,47 166.521874,46.6476973 169.138553,46.0840129 C170.645126,45.7317101 170.010779,43.6883542 168.504207,44.0406569 C166.046114,44.6043413 163.667315,44.8861835 161.12993,44.8861835 C159.623357,44.8861835 159.623357,47 161.12993,47 L161.12993,47 Z" id="Path"></path>
                    <path d="M30.0779695,59.4142774 C48.3845388,61.7406603 66.6154612,63.9868231 84.9220305,65.9923256 C86.3593232,66.1527658 86.3593232,63.7461628 84.9220305,63.5857226 C66.6154612,61.5802201 48.3088918,59.4142774 30.0779695,57.0076744 C28.6406768,56.8472342 28.6406768,59.2538372 30.0779695,59.4142774 L30.0779695,59.4142774 Z" id="Path"></path>
                    <path d="M23.0650224,53.2639074 C30.6883408,54.0179287 38.3116592,54.6211457 45.9349776,54.9981563 C47.3550075,55.0735584 47.3550075,52.8114947 45.9349776,52.7360926 C38.3116592,52.3590819 30.6883408,51.7558649 23.0650224,51.0018437 C21.6449925,50.9264416 21.6449925,53.1885053 23.0650224,53.2639074 L23.0650224,53.2639074 Z" id="Path"></path>
                    <path d="M56.1184861,57.0264339 C65.9824867,57.0264339 75.7700221,57.6343641 85.5575575,58.98532 C87.0103948,59.1879634 87.6221158,57.2290773 86.1692785,57.0264339 C76.2288128,55.675478 66.211882,55 56.1184861,55 C54.6656488,55 54.5891837,57.0264339 56.1184861,57.0264339 L56.1184861,57.0264339 Z" id="Path"></path>
                    <path d="M101.436158,63.983841 C112.399159,62.2737249 123.286029,60.3405502 134.172898,58.1843168 C135.619405,57.8869053 135.01035,55.730672 133.563842,56.0280835 C122.676973,58.1843168 111.790103,60.1174916 100.827102,61.8276077 C99.3805949,62.0506663 99.9896505,64.2068997 101.436158,63.983841 L101.436158,63.983841 Z" id="Path"></path>
                    <path d="M122.36094,64.917487 C135.335702,60.4927906 148.685458,57.2124123 162.185211,55.2289277 C163.610184,55.0000641 163.010195,52.7877159 161.585222,53.0165795 C148.01047,55.0000641 134.735713,58.2041546 121.760951,62.7051388 C120.410976,63.2391539 121.010965,65.4515021 122.36094,64.917487 L122.36094,64.917487 Z" id="Path"></path>
                    <path d="M155.400508,52.944762 C159.182285,51.9249948 162.964062,51.3131345 166.900197,51.0411966 C168.366601,50.9732121 168.366601,48.9336778 166.900197,49.0016623 C162.809704,49.2736002 158.71921,49.8854605 154.783075,50.9732121 C153.393851,51.381119 154.011284,53.3526688 155.400508,52.944762 L155.400508,52.944762 Z" id="Path"></path>
                    <path d="M33.3526875,67.0621118 C33.2645157,72.3540373 33.0881719,77.6459627 33,82.9378882 C33,84.3540373 35.6451565,84.3540373 35.6451565,82.9378882 C35.7333284,77.6459627 35.9096722,72.3540373 35.9978441,67.0621118 C36.086016,65.6459627 33.4408594,65.6459627 33.3526875,67.0621118 L33.3526875,67.0621118 Z" id="Path"></path>
                    <path d="M35.0865103,85.2810123 C64.670088,89.2072101 94.329912,93.1334078 123.91349,96.9841018 C125.36217,97.2106132 125.36217,94.9454991 123.91349,94.7189877 C94.329912,90.7927899 64.670088,86.8665922 35.0865103,83.0158982 C33.6378299,82.7893868 33.6378299,85.0545009 35.0865103,85.2810123 L35.0865103,85.2810123 Z" id="Path"></path>
                    <path d="M99.813104,74.3911718 C108.494948,75.8643077 117.176793,77.0919209 125.93348,77.9921706 C127.355507,78.1558523 127.355507,75.7006259 125.93348,75.5369442 C117.401323,74.6366945 108.869166,73.4909222 100.411852,72.0177863 C98.9898256,71.7722637 98.3910778,74.1456492 99.813104,74.3911718 L99.813104,74.3911718 Z" id="Path"></path>
                    <path d="M127.073822,76.9929252 C149.529883,74.9215189 170.102047,64.8604026 192.181329,61.1614628 C193.613091,60.9395264 193.010244,58.7941413 191.578482,59.0160777 C169.649912,62.6410387 149.303816,72.6281762 127.073822,74.6995825 C125.642059,74.9215189 125.642059,77.1408828 127.073822,76.9929252 L127.073822,76.9929252 Z" id="Path"></path>
                    <path d="M169.82275,56.3854082 C177.471622,57.6100623 185.196225,58.508142 192.920828,58.9980037 C194.359724,59.0796473 194.359724,56.630339 192.920828,56.5486954 C185.347687,56.0588337 177.850279,55.2423976 170.428602,54.0177434 C168.989705,53.7728126 168.383854,56.1404773 169.82275,56.3854082 L169.82275,56.3854082 Z" id="Path"></path>
                    <path d="M123.632695,77.1352886 C123.396157,83.038789 123.238466,89.0179754 123.001928,94.9214759 C122.923082,96.359508 125.288459,96.359508 125.367305,94.9214759 C125.603843,89.0179754 125.761534,83.038789 125.998072,77.1352886 C126.076918,75.6215705 123.711541,75.6215705 123.632695,77.1352886 L123.632695,77.1352886 Z" id="Path"></path>
                    <path d="M124.42252,96.9707607 C146.969808,91.3970291 169.21546,84.8169292 191.234885,77.307874 C192.592247,76.8433964 191.988975,74.5984211 190.631613,75.0628987 C168.612188,82.5719539 146.366536,89.0746409 123.819248,94.7257855 C122.386477,95.0354372 122.989749,97.2804125 124.42252,96.9707607 L124.42252,96.9707607 Z" id="Path"></path>
                    <path d="M191.007664,60.0939394 C191.648593,65.6979798 191.808825,71.3020202 191.488361,76.9060606 C191.408245,78.3646465 193.811727,78.3646465 193.891843,76.9060606 C194.132192,71.3020202 193.971959,65.6979798 193.411147,60.0939394 C193.250915,58.6353535 190.847432,58.6353535 191.007664,60.0939394 L191.007664,60.0939394 Z" id="Path"></path>
                    <path d="M40.5943234,78.0074999 C40.0640967,78.0858961 39.6096167,78.1642922 39.07939,78.1642922 C37.6402033,78.3210845 37.6402033,80.3593847 39.07939,80.516177 C58.3190435,82.6328733 77.4072036,85.8471159 96.5711105,88.9829623 C98.0102971,89.2181508 98.6162705,86.9446622 97.1770838,86.7094737 C77.8616836,83.4952311 58.5462835,80.2809885 39.07939,78.1642922 C39.07939,78.9482538 39.07939,79.7322154 39.07939,80.516177 C39.6096167,80.4377809 40.0640967,80.3593847 40.5943234,80.3593847 C42.03351,80.2025924 42.03351,77.8507076 40.5943234,78.0074999 L40.5943234,78.0074999 Z" id="Path"></path>
                    <path d="M46.7864959,75.1560192 C52.6777345,76.5504223 58.5689731,77.8714358 64.537728,78.9722804 C66.0105377,79.2658389 66.6306681,77.1375394 65.1578584,76.8439808 C59.1891035,75.7431363 53.2978649,74.4955124 47.4066263,73.0277196 C46.0113329,72.7341611 45.3912025,74.8624606 46.7864959,75.1560192 L46.7864959,75.1560192 Z" id="Path"></path>
                    <path d="M70.8254735,78.1410856 C86.0978664,80.4220601 101.294277,82.7030346 116.56667,84.9840091 C118.010329,85.2047485 118.618186,83.0709337 117.174527,82.8501942 C101.902134,80.5692197 86.7057228,78.2882453 71.4333299,76.0072708 C69.9896709,75.8601111 69.3818144,77.993926 70.8254735,78.1410856 L70.8254735,78.1410856 Z" id="Path"></path>
                    <path d="M137.067807,81.9980684 C149.581757,81.6820712 160.896766,75.2831297 173.185914,73.3081478 C174.609657,73.07115 174.010187,70.7801709 172.586444,71.0171687 C160.522097,72.9921507 149.43189,79.3120929 137.067807,79.62809 C135.644064,79.7070893 135.644064,82.0770676 137.067807,81.9980684 L137.067807,81.9980684 Z" id="Path"></path>
                    <path d="M132.441,88.9733243 C138.01737,87.7020588 143.59374,86.4307934 149.170109,85.0889021 C150.621493,84.7357729 150.010384,82.687623 148.559,83.0407523 C142.98263,84.3120177 137.40626,85.5832831 131.829891,86.9251744 C130.378507,87.2076778 130.989616,89.2558277 132.441,88.9733243 L132.441,88.9733243 Z" id="Path"></path>
                    <path d="M170.442366,78.9539096 C177.018018,77.1167395 183.59367,75.2795694 190.169322,73.3625223 C191.622083,72.9631375 191.010394,70.6467055 189.557634,71.0460904 C182.981982,72.8832605 176.40633,74.7204306 169.830678,76.6374777 C168.377917,77.0368625 168.989606,79.3532945 170.442366,78.9539096 L170.442366,78.9539096 Z" id="Path"></path>
                    <path d="M5.07078405,92.9926358 C17.0184798,91.6840192 28.8158901,89.1437634 40.2375867,85.2948909 C41.590156,84.8330262 40.9890141,82.6006802 39.6364448,83.0625449 C28.3650337,86.8344399 16.8681943,89.3746957 5.07078405,90.6833124 C3.64307198,90.8372673 3.64307198,93.1465907 5.07078405,92.9926358 L5.07078405,92.9926358 Z" id="Path"></path>
                    <path d="M4.00183161,93.1079914 C4.22655687,98.3952484 4.52619055,103.604752 4.75091581,108.892009 C4.82582423,110.36933 7.0730768,110.36933 6.99816839,108.892009 C6.77344313,103.604752 6.47380945,98.3952484 6.24908419,93.1079914 C6.17417577,91.6306695 3.9269232,91.6306695 4.00183161,93.1079914 L4.00183161,93.1079914 Z" id="Path"></path>
                    <path d="M6.05078698,110.275589 C41.0327676,114.870371 75.9390297,119.465153 110.92101,123.984611 C112.359663,124.210584 112.359663,121.875531 110.92101,121.724882 C75.9390297,117.1301 41.0327676,112.535318 6.05078698,108.01586 C4.6121341,107.789888 4.68785267,110.049616 6.05078698,110.275589 L6.05078698,110.275589 Z" id="Path"></path>
                    <path d="M5.79908554,94.1694543 C39.4821506,98.8664022 73.1652157,103.116022 106.923803,106.992868 C108.358732,107.141977 108.358732,104.905335 106.923803,104.756226 C73.3917834,100.953935 39.8597635,96.704315 6.40326608,92.0073671 C5.04385986,91.8582577 4.36415675,94.0203448 5.79908554,94.1694543 L5.79908554,94.1694543 Z" id="Path"></path>
                    <path d="M110.432481,123.95689 C137.542016,116.261592 164.499677,108.043313 191.229527,99.2273411 C192.596395,98.7790714 191.988898,96.6124341 190.622031,97.0607039 C163.816244,105.801964 136.93452,114.094955 109.824985,121.790253 C108.38218,122.163811 108.989677,124.330448 110.432481,123.95689 L110.432481,123.95689 Z" id="Path"></path>
                    <path d="M120.428487,106.971157 C144.433418,101.549334 168.059723,94.6766009 191.231676,86.2765936 C192.594732,85.8184114 191.988929,83.603864 190.625873,84.0620462 C167.45392,92.4620535 143.827616,99.3347868 119.822684,104.75661 C118.383903,105.062064 118.989706,107.276612 120.428487,106.971157 L120.428487,106.971157 Z" id="Path"></path>
                    <path d="M189.002221,85.0768262 C189.093063,89.384131 189.183905,93.615869 189.274747,97.9231738 C189.274747,99.3589421 192,99.3589421 192,97.9231738 C191.909158,93.615869 191.818316,89.384131 191.727475,85.0768262 C191.636633,83.6410579 188.911379,83.6410579 189.002221,85.0768262 L189.002221,85.0768262 Z" id="Path"></path>
                    <path d="M172.102515,84.2632008 C178.059961,84.8648025 183.940039,85.4664043 189.897485,85.9928059 C191.367505,86.1432063 191.367505,83.8871997 189.897485,83.7367992 C183.940039,83.1351975 178.059961,82.5335957 172.102515,82.0071941 C170.632495,81.8567937 170.632495,84.1128003 172.102515,84.2632008 L172.102515,84.2632008 Z" id="Path"></path>
                    <path d="M13.0999774,106.198752 C29.7191269,107.150769 46.1878769,109.128034 62.5814271,111.984085 C64.0102228,112.203781 64.611821,110.080051 63.1830253,109.860355 C46.6390755,106.931073 29.9447262,105.027039 13.0999774,104.001791 C11.5959819,103.928559 11.6711817,106.12552 13.0999774,106.198752 L13.0999774,106.198752 Z" id="Path"></path>
                    <path d="M57.8152002,105.217259 C71.0966484,107.190361 84.3780966,109.467016 97.5845084,111.971337 C99.0102006,112.274891 99.610492,110.074124 98.1847998,109.77057 C84.9783881,107.266249 71.6969398,104.989594 58.4154916,103.016493 C56.9897994,102.788827 56.389508,104.989594 57.8152002,105.217259 L57.8152002,105.217259 Z" id="Path"></path>
                    <path d="M110.00198,111.0721 C110.163928,114.382445 110.40685,117.69279 110.568798,120.9279 C110.649772,122.357367 113.078994,122.357367 112.99802,120.9279 C112.836072,117.617555 112.59315,114.30721 112.431202,111.0721 C112.350228,109.642633 109.921006,109.642633 110.00198,111.0721 L110.00198,111.0721 Z" id="Path"></path>
                    <path d="M122.439613,111.970314 C133.734255,109.376618 144.952581,106.468534 156.170908,103.32466 C157.620896,102.931676 157.010374,100.652367 155.560387,101.045352 C144.418375,104.189226 133.123734,107.097309 121.829092,109.691005 C120.379104,110.005392 120.989626,112.284701 122.439613,111.970314 L122.439613,111.970314 Z" id="Path"></path>
                    <path d="M122.126773,115.992448 C125.210574,115.676696 128.215302,115.203068 131.140959,114.33475 C132.643324,113.94006 132.010749,111.650859 130.508385,112.045549 C127.740872,112.834928 124.973358,113.308556 122.126773,113.624308 C120.624409,113.782184 120.624409,116.150324 122.126773,115.992448 L122.126773,115.992448 Z" id="Path"></path>
                    <path d="M163.362628,103.938871 C170.346151,101.681818 177.329674,99.4247649 184.238105,97.2429471 C185.589755,96.7915365 184.989022,94.6097186 183.637372,95.0611292 C176.653849,97.3181822 169.670326,99.5752351 162.761895,101.757053 C161.410245,102.208464 162.010978,104.390281 163.362628,103.938871 L163.362628,103.938871 Z" id="Path"></path>
                    <path d="M177.349033,95.955719 C180.276583,95.0348244 183.277323,94.190671 186.204873,93.2697763 C187.595459,92.8860702 187.009949,90.6605749 185.619363,91.044281 C182.691813,91.9651756 179.691073,92.809329 176.763523,93.7302237 C175.446125,94.1139298 175.958447,96.3394251 177.349033,95.955719 L177.349033,95.955719 Z" id="Path"></path>
                    <path d="M40.006822,114.081594 C40.7199187,120.001898 41.0051575,125.922201 40.7912284,131.918406 C40.7199187,133.360531 42.8592091,133.360531 42.9305188,131.918406 C43.1444478,125.922201 42.8592091,120.001898 42.1461123,114.081594 C42.003493,112.639469 39.8642026,112.639469 40.006822,114.081594 L40.006822,114.081594 Z" id="Path"></path>
                    <path d="M42.0787053,133.309387 C77.051468,137.895968 111.948532,142.406106 146.921295,146.992687 C148.359568,147.145573 148.359568,144.852282 146.921295,144.699396 C111.948532,140.112815 77.051468,135.602677 42.0787053,131.016096 C40.6404316,130.786767 40.6404316,133.080057 42.0787053,133.309387 L42.0787053,133.309387 Z" id="Path"></path>
                    <path d="M146.001665,128.108651 C146.342196,134.020488 146.61462,140.008117 146.955151,145.919953 C147.023257,147.360016 149.066441,147.360016 148.998335,145.919953 C148.657804,140.008117 148.38538,134.020488 148.044849,128.108651 C147.976743,126.668589 145.933559,126.592796 146.001665,128.108651 L146.001665,128.108651 Z" id="Path"></path>
                    <path d="M146.734907,146.858503 C168.609366,136.242425 190.559515,125.702175 212.433974,115.086096 C213.720707,114.479463 212.585355,112.507906 211.298622,113.114539 C189.424163,123.730618 167.474014,134.270867 145.599554,144.886946 C144.237131,145.569408 145.448174,147.540966 146.734907,146.858503 L146.734907,146.858503 Z" id="Path"></path>
                    <path d="M147.368177,127.917607 C169.685818,119.842857 191.400279,110.24457 212.436164,99.1227444 C213.71792,98.4371524 212.586958,96.4565534 211.305202,97.1421454 C190.49551,108.111617 168.931843,117.633728 146.764997,125.708477 C145.407844,126.241716 146.011023,128.450845 147.368177,127.917607 L147.368177,127.917607 Z" id="Path"></path>
                    <path d="M210,98.1253702 C210.166554,103.752221 210.333107,109.379072 210.499661,114.930898 C210.582937,116.356367 213.081241,116.356367 212.997964,114.930898 C212.83141,109.304047 212.664857,103.677196 212.498303,98.1253702 C212.498303,96.6248766 210,96.6248766 210,98.1253702 L210,98.1253702 Z" id="Path"></path>
                    <path d="M192.064515,96.4381657 C198.264845,96.5194379 204.465175,97.007071 210.590803,97.9823373 C212.010155,98.2261539 212.607777,95.8692604 211.188425,95.6254438 C204.838689,94.6501775 198.488953,94.0812722 192.064515,94 C190.645162,94 190.645162,96.4381657 192.064515,96.4381657 L192.064515,96.4381657 Z" id="Path"></path>
                    <path d="M111.820266,124.353901 C119.446037,125.796159 127.14731,126.677539 134.924087,126.998041 C136.358638,127.078166 136.358638,124.674403 134.924087,124.594278 C127.373818,124.273776 119.899053,123.472522 112.424287,122.030264 C110.989736,121.709762 110.385715,124.0334 111.820266,124.353901 L111.820266,124.353901 Z" id="Path"></path>
                    <path d="M153.413291,130.970718 C161.748329,128.877521 169.704501,125.931539 177.433355,122.132773 C178.721497,121.512567 177.584901,119.496895 176.296758,120.117102 C168.795225,123.838342 160.990598,126.629272 152.88288,128.722469 C151.367418,129.032572 151.973603,131.280821 153.413291,130.970718 L153.413291,130.970718 Z" id="Path"></path>
                    <path d="M154.377938,136.91848 C160.956547,134.431286 167.310886,131.491875 173.440953,128.100246 C174.711821,127.421921 173.590467,125.462313 172.3196,126.140639 C166.339046,129.456898 160.208978,132.32094 153.779882,134.732764 C152.434258,135.260351 152.957556,137.446067 154.377938,136.91848 L154.377938,136.91848 Z" id="Path"></path>
                    <path d="M181.379872,117.939621 C189.820523,115.038594 198.185133,111.691255 206.397659,108.046376 C207.766414,107.451293 206.549743,105.517276 205.257031,106.112358 C197.27263,109.682852 189.136146,112.88142 180.771536,115.708062 C179.402782,116.228759 180.011117,118.385932 181.379872,117.939621 L181.379872,117.939621 Z" id="Path"></path>
                    <path d="M184.753129,122.907184 C193.016342,119.338198 200.900509,115.085789 208.481439,110.149956 C209.694387,109.314662 208.557248,107.416265 207.344299,108.175623 C199.839179,113.111456 191.879203,117.363865 183.615989,120.932851 C182.251422,121.540338 183.388562,123.438735 184.753129,122.907184 L184.753129,122.907184 Z" id="Path"></path>
                </g>
            </g>
            <g id="anima" transform="translate(56.754833, 13.994133)" fill-rule="nonzero">
                <g id="andae-b">
                    <g id="BODY" transform="translate(-0.000000, 85.294181)">
                        <path d="M87.2152943,101.48174 C84.0510339,103.25402 81.4247674,104.464566 78.9502634,105.291541 L75.3111766,106.507429 L78.7337275,108.240444 C81.0583428,109.417601 83.2689354,110.918764 85.4915727,112.830476 L87.2069969,114.306263 L88.034865,112.202498 C89.1220944,109.43897 89.6512555,106.295343 89.6073595,102.858963 L89.5725639,100.161679 L87.2152943,101.48174 Z M239.217828,110.407514 C236.256453,115.746524 232.681605,121.00273 229.224258,126.085848 C221.593846,137.3045 213.703537,148.905389 211.273999,162.778054 C211.085032,163.927877 210.949954,166.527221 210.868764,170.576086 L213.13048,169.655889 C220.683271,166.582513 228.696703,164.296311 236.445956,162.085703 C239.441323,161.231215 242.538134,160.34788 245.57365,159.429019 C246.809698,159.098603 248.039054,158.712361 249.228529,158.338673 C252.114157,157.432366 254.84026,156.576009 257.706348,156.430166 L258.578916,156.385826 L259.015467,155.630437 C262.964235,148.797743 260.002859,142.284781 256.611892,136.198662 C254.57501,131.762219 251.955167,127.594222 249.420975,123.562185 C246.794441,119.383504 244.078509,115.06272 242.094088,110.540802 L240.790858,107.571866 L239.217828,110.407514 Z M93.4766327,167.007219 C97.9658033,171.7073 102.135657,176.482974 105.870565,181.201485 L108.706676,179.89932 C107.335729,172.929599 103.079421,168.019569 95.3114326,164.445894 L93.4766327,167.007219 Z M243.656144,272.006862 C243.206745,272.006862 242.785183,272.181018 242.469345,272.49701 C242.148958,272.81781 241.973106,273.249996 241.974422,273.713166 L243.656144,273.707824 L243.656144,272.006862 Z M56.851296,388.213405 C54.2137879,383.690685 53.8262182,376.59008 57.7790008,372.740479 C56.4495404,364.426122 59.0613534,355.134941 64.8457241,348.515402 L64.859107,348.535435 C73.4474695,335.678859 74.0786086,331.098176 67.8036196,316.726815 C56.5892582,316.29837 45.0379146,316.170424 34.0882676,313.551669 L34.4977853,311.105202 C34.0925502,310.997556 32.0222106,310.45452 31.5776296,310.339662 C31.6370499,310.795086 31.9456603,312.87214 31.9381658,313.288031 C31.4266702,313.847361 30.190355,314.366892 29.9604362,313.266128 C23.0722413,283.835863 16.9075276,254.988967 10.2091027,225.602508 C3.19858781,195.943062 -10.900063,148.50499 23.6107704,132.159146 L22.8982632,129.120226 C20.9925337,129.120761 20.2267624,127.044776 19.3531246,124.112166 C15.4592268,113.620055 23.0307542,103.332818 30.111128,96.8433616 C39.7891288,87.158192 48.7174178,76.4053806 57.3544943,66.0104976 C81.9919361,36.0684481 115.514841,-3.88758443 158.366185,2.90050167 L158.221917,4.66423417 C164.92516,5.50670157 171.924166,7.2784473 178.711453,6.04439547 C201.884535,2.03159037 227.095301,11.1096172 241.347588,29.7488742 L241.871128,26.2748315 C241.920378,25.9470866 242.037612,25.6439158 242.556602,25.6439158 C243.235652,25.6198759 243.594582,26.1751992 243.845646,26.6875176 C268.444545,36.4071446 278.634309,68.044012 286.495176,89.728599 C287.498628,93.393893 287.215713,94.4783628 287.128188,94.6939212 L285.700765,95.5441348 C300.525841,115.260917 308.672567,138.976347 315.661402,161.4628 C317.971296,167.4573 318.212188,171.61114 314.354424,175.236635 C339.79163,190.516974 359.752005,214.330701 348.466447,241.479573 C333.73746,267.896561 294.73585,284.657763 265.441415,299.83099 C253.808436,306.131599 236.888663,309.486511 226.184191,319.804733 C225.469007,320.860889 224.442804,321.890601 223.821033,321.805927 C218.852754,322.540748 211.458416,291.517969 212.582315,289.033571 C207.337812,290.908422 201.503656,290.80879 196.01826,291.786949 C196.509682,292.866344 198.119113,294.327974 196.914917,295.529171 C196.996553,299.172562 196.436076,303.111111 195.633903,306.824752 C202.216967,305.769931 202.067613,309.222605 195.734007,307.3953 C195.561902,309.004376 195.122675,313.106663 194.954585,314.661782 C196.845058,313.831067 200.607803,313.247697 201.925486,314.547191 C201.387225,316.279138 196.724612,314.648159 194.928622,315.161546 C193.878062,322.950229 193.535459,330.607494 192.798327,338.374541 C198.403099,343.711949 207.157677,344.973246 212.159414,350.746044 C216.397253,355.139749 215.786189,362.513342 210.81443,366.047752 C213.859582,369.617954 211.42255,375.544341 206.976205,376.513152 C200.918822,377.926702 194.58709,375.971985 188.614555,374.329788 C178.686561,371.061154 168.288826,365.966016 156.829825,358.753758 C152.29649,355.930931 148.919977,351.495557 147.315631,346.260987 C135.689878,310.44063 132.583164,286.100695 138.070702,273.88385 C141.202224,271.51885 144.692931,272.978478 147.584214,271.686877 C148.962259,271.071274 150.204134,270.243546 151.206049,267.307582 C136.123218,265.826987 114.136132,268.578228 102.045723,261.353149 L102.471033,260.448445 C101.354629,259.73606 98.9015378,256.755638 97.9682122,255.797512 C99.6504464,276.026612 101.002658,296.77925 101.671804,316.937299 C103.889624,320.666432 105.77287,324.526183 107.840265,328.832543 C109.278127,330.244223 111.793851,332.66398 110.317713,334.265042 C110.317446,334.265042 122.731721,363.325626 126.525514,378.015383 C130.137568,378.167903 131.601928,384.284473 131.464351,388.347228 C130.915116,395.740854 121.423673,396.525358 113.102969,397.249763 C107.409602,397.847289 101.55564,398.156656 95.7886679,398.156656 C85.368985,398.16435 59.3161644,397.447425 56.851296,388.213405 Z" id="ðŸŽ¨-Background" fill="#FFFFFF"></path>
                        <path d="M107.570202,13.6355324 C125.256014,1.89387697 148.21711,-4.28866913 168.727791,3.39958037 C168.97136,3.48505577 168.874735,3.84031317 168.62046,3.78421987 C165.379381,3.07370527 162.086913,2.67571017 158.776243,2.53948367 C165.486712,3.35844527 171.998579,5.11763687 178.794164,3.93193217 C201.492152,0.186237773 225.561622,7.88036364 240.642045,25.5029971 C241.032023,22.9136252 244.252224,23.0097851 245.301981,24.8405624 C265.357643,31.8989646 276.716807,58.4158527 284.29235,76.8176483 C285.182315,80.0977686 291.363355,93.7182813 288.395021,95.4860204 C302.523382,114.824039 310.472844,137.722377 317.526719,160.37257 L317.728541,160.923545 C319.329753,165.356631 320.551551,170.373561 317.160294,174.318424 C331.228432,182.911911 344.235839,194.454569 350.384761,210.095241 C360.178122,233.166934 347.698806,252.713834 328.24163,265.213817 C308.958699,279.162876 288.06821,290.776852 266.473779,300.749967 C259.212201,304.099536 251.859618,307.24343 244.464478,310.28876 L243.728487,310.58912 C237.919177,312.975503 232.057165,315.780644 227.711724,320.372192 C219.262008,332.692142 211.457083,295.788117 211.371164,290.645166 C207.408478,291.835145 203.044572,291.861856 198.954213,292.483156 C199.473738,293.372635 199.513619,294.529224 198.881677,295.477467 C198.891313,298.48834 198.571996,301.522986 197.982612,304.505545 C204.260545,303.94942 204.043206,310.275404 197.498417,308.816713 L197.171606,311.875131 L197.171606,311.875131 C200.159747,310.950393 206.47087,312.427783 202.773969,315.986233 C200.837994,316.941688 198.775417,316.060757 196.711233,316.162259 C195.821804,323.153082 195.483215,330.148713 194.832537,337.170521 C200.439986,342.039951 208.764169,343.330096 213.742084,349.17448 C218.09234,353.925846 218.200474,361.359272 213.220685,365.831508 C215.895933,370.394294 212.661814,376.337776 207.714947,377.536569 C201.338516,379.050019 194.6607,377.033332 188.507496,375.330234 C177.317465,371.650688 166.728186,366.087187 156.765294,359.847231 L156.33252,359.575506 C151.402783,356.505602 147.834893,351.728059 146.139276,346.195927 L145.776675,345.074913 C139.755255,326.393282 129.045413,289.750233 137.079566,272.441834 C140.865063,268.251935 146.966609,273.13098 149.172383,268.194506 C134.940706,267.081989 112.009053,269.557305 100.41301,261.433932 C101.55163,277.774701 103.240556,294.105319 103.173106,310.494168 C102.884035,312.649485 104.341972,313.99786 103.756067,316.172943 C105.872979,319.787486 107.700552,323.555618 109.513672,327.327756 L109.628217,327.434484 C111.510849,329.215575 113.930879,332.829405 111.453929,334.94816 C119.88357,347.27639 124.456518,361.826716 128.1933,376.136641 C132.168031,377.046421 133.669595,384.431499 133.42335,387.961635 C132.307748,397.44754 121.039588,397.508709 113.635347,398.309507 C109.309983,398.763595 104.971237,399.046733 100.624461,399.164261 C91.8294661,399.40199 83.0232294,398.937217 74.3005022,397.793449 C67.1944332,397.172149 59.3386523,395.317599 55.7994022,388.447777 C52.9458936,383.516645 52.5005096,376.116875 56.4474038,371.691918 C55.293672,363.217156 57.9983225,354.383472 63.2833279,347.701517 L63.4442681,347.499695 L63.4307959,347.49457 C63.3096183,347.441384 63.3203861,347.241352 63.8149852,347.141397 L63.8698453,347.131082 L64.1072439,346.764368 C71.87273,334.75153 72.8403093,331.457794 67.0788047,317.75691 L61.8432956,317.56999 C52.1416029,317.215357 42.3382325,316.705455 32.9496524,314.297826 C31.6196567,315.403664 29.2800526,315.275718 28.7581183,313.106779 C21.9282729,283.938549 15.6615814,254.634627 9.00250221,225.424194 C2.08138531,194.682682 -12.832286,148.01469 23.2577334,130.189052 C19.5715387,130.189854 18.7500943,125.775848 17.8542409,122.990417 C14.5698018,112.165753 21.8070236,102.164057 29.3766774,95.1361053 C55.9495587,68.5145098 75.9420526,34.9752794 107.570202,13.6355324 Z M56.8943937,374.95067 C56.3949427,389.282231 67.2632215,392.718878 79.4957563,393.08482 C87.1184065,393.80869 94.7978003,394.030392 102.449893,393.731495 L106.054442,393.523191 C112.074481,393.169554 118.139997,392.727559 123.998821,391.356613 C127.857121,390.565164 128.824439,387.121038 127.43074,383.754641 C126.828509,384.021751 126.116269,384.040449 125.559539,383.650467 C124.935894,383.215077 124.483819,382.752975 124.140948,382.208336 C104.318417,391.011239 79.3755776,390.047236 60.1651822,379.91893 C57.7035258,379.798463 57.3839413,376.864251 56.8943937,374.95067 Z M105.081245,329.587514 C97.8766776,325.238683 83.2860702,323.348073 76.3266781,328.820639 C76.8036458,331.570277 75.6885799,334.113706 74.6431053,336.56418 C77.8183397,335.807722 105.438301,332.093814 101.537177,338.869613 C99.3530824,340.626935 96.3796629,339.41719 93.8553743,339.179194 C87.0854845,338.61746 80.2687544,338.796158 73.518939,339.56143 C72.9306254,341.207634 72.7033832,343.053903 71.9716045,344.606885 C78.8078785,342.355695 85.9599617,341.278641 93.1329863,340.893625 L93.5315073,340.872944 C96.6631133,340.707068 100.327627,340.015251 102.658934,342.568563 C104.645764,345.280005 100.236088,347.145773 97.964202,346.879998 C88.2883424,346.59045 78.5926761,346.948111 68.9256492,347.363736 L68.5007022,348.063422 C61.6694519,359.349802 60.1985111,363.794574 62.9595383,377.330627 C62.9437465,377.317271 62.9274193,377.306587 62.9140364,377.293231 C62.90333,378.025382 62.6680581,378.684878 62.1672688,379.176362 C82.9999431,385.923313 102.403588,385.540009 123.105109,378.848083 C120.078158,363.673787 114.071363,349.341157 109.604676,334.58756 C108.425639,333.928865 108.075809,332.473378 107.192803,331.510444 C106.300162,331.434317 105.415818,330.730748 105.081245,329.587514 Z M155.0052,268.363053 C145.928361,274.768369 150.027553,282.337754 152.53712,291.035148 C156.205382,303.820405 159.023559,316.845528 162.162392,329.765944 C164.011378,341.241824 171.282592,351.19544 181.743762,356.357088 C186.449469,358.831603 191.612336,360.43213 196.888156,361.090291 C198.925038,361.296768 201.181935,361.078806 202.546191,362.901302 C203.319993,363.737359 203.405376,365.110309 202.546191,365.930606 C199.84846,368.983148 192.006865,366.229236 188.369117,365.46797 C161.412413,357.313345 157.315362,337.820669 152.115825,313.381636 C149.596355,299.808402 143.405678,285.5129 147.140854,271.747079 C144.881816,272.95255 141.411086,272.539063 139.808882,274.816182 C136.110107,298.204134 144.26861,321.929982 150.556446,344.289024 C151.952554,348.986968 154.899743,353.118904 159.18817,355.585405 C168.335939,361.160809 177.924006,366.25568 188.068804,369.774597 L188.376435,369.861645 C193.524811,371.335986 204.646851,375.313481 208.598221,371.155025 C209.422609,369.939671 209.385137,368.638842 208.346622,367.8319 L207.843289,367.640908 C206.876835,367.268049 205.738845,366.74303 205.562767,365.615751 L205.552266,365.537953 L205.58947,365.52433 C204.74929,363.986039 206.379866,362.262908 207.840479,361.886281 C209.899042,361.812025 210.856457,360.443883 211.588235,358.43521 C212.900833,348.60313 199.067432,345.975828 194.481637,339.24891 C193.995569,341.70446 190.208467,341.236482 190.228273,338.759831 C190.078652,331.236923 191.716991,323.6451 192.83848,316.223694 C191.11235,316.149972 189.278085,316.84633 187.597457,316.469169 C187.349337,314.919392 192.197438,313.295359 193.531716,312.783575 C193.807405,311.501176 194.099153,310.224386 194.409637,308.953206 C183.626206,309.603354 188.635169,306.152283 195.445476,304.970584 C195.657461,304.249614 195.843293,303.50902 196.012578,302.776723 L196.095886,302.411396 C196.526549,300.576345 196.754326,298.842796 196.829271,297.050483 C192.061735,299.230908 186.698391,300.553908 181.532312,299.443795 C172.197985,297.279664 167.35952,285.970995 171.106741,277.484619 C170.254248,274.474547 171.927917,271.273225 173.440992,268.73407 C167.295817,268.712701 161.147431,268.544421 155.0052,268.363053 Z M63.7467224,347.277993 C63.666224,347.326073 63.590393,347.380313 63.5169709,347.439249 L63.4442681,347.499695 L63.4625641,347.504631 C63.5509818,347.522911 63.6797363,347.472984 63.7574287,347.286006 C63.7411015,347.302033 63.7411015,347.29402 63.7467224,347.277993 Z M64.3141587,347.088344 C64.1669464,347.092796 64.0420391,347.104668 63.9332408,347.120868 L63.8698453,347.131082 L63.84965,347.16266 C63.8118235,347.219823 63.7883242,347.243765 63.7601053,347.283602 C63.915615,347.157793 64.12653,347.099296 64.3141587,347.088344 Z M75.4567875,338.124107 C74.9541246,338.190617 74.4522647,338.250717 73.9469252,338.314023 L73.8478915,338.583537 L73.8478915,338.583537 C74.3832088,338.423271 74.918526,338.271018 75.4567875,338.124107 Z M97.7658669,316.370605 C88.7976968,317.281987 79.7594001,316.720253 70.7885533,317.738212 C72.5476059,320.163044 73.8023895,322.846973 74.8545556,325.679416 C82.2226625,318.735337 94.0427353,320.859402 102.907589,323.416988 C102.310978,321.677829 101.761475,319.922644 101.269518,318.152234 C99.9430024,318.365656 98.428322,317.621752 97.7658669,316.370605 Z M316.504531,175.167836 C304.245765,187.635231 285.718435,191.06253 269.862605,196.566347 C266.012871,198.972748 267.894511,203.74121 268.38513,207.362698 C269.303199,213.307248 270.032033,219.280379 270.561194,225.272475 C272.51992,223.01165 277.651471,222.716225 280.523181,221.797364 L280.90576,221.711182 C284.736652,220.833781 288.718033,219.517961 292.626972,220.370992 C294.203481,220.712894 294.310277,222.890114 293.057635,223.664468 C289.884646,225.631219 286.002664,225.687785 282.365486,226.117988 L281.435264,226.22918 C278.216557,226.611418 274.972629,226.96031 271.738625,226.824389 C271.331783,226.888495 270.922266,226.733571 270.665313,226.458447 C271.06814,232.722729 271.875933,239.076493 271.602119,245.351192 C271.452497,246.465044 271.093835,247.677727 270.301298,248.503099 L270.275114,248.598515 C269.826711,250.183216 268.367978,253.012191 266.688174,250.917781 L266.372634,250.351676 C263.905726,245.908637 261.566635,241.262953 260.374107,236.301479 C259.977169,246.335228 259.655979,256.363902 259.255026,266.394446 L259.241929,266.635207 C259.139658,268.337802 258.806345,270.385785 257.697253,271.696328 C257.795216,272.474956 257.096091,272.92851 256.471644,272.650181 L256.388729,272.68842 C255.790226,272.955849 254.826869,273.202833 254.46126,272.47362 C252.354786,267.556111 250.111807,262.716064 248.056189,257.785199 C248.164858,260.315806 248.04227,262.851756 248.123103,265.3845 C248.16352,268.274639 248.701514,271.672288 247.320127,274.346067 C246.140824,276.688094 243.203002,277.300846 241.626761,275.262524 C240.36368,273.315821 239.647693,270.909687 238.498367,268.846256 C235.259965,284.81948 227.059707,261.339642 225.554127,256.500396 C220.92631,259.200886 216.047161,261.482012 211.001528,263.306379 C212.389338,265.404534 212.053694,268.256743 212.489977,270.668219 C212.883168,274.263263 213.193652,277.861245 213.504136,281.464836 L213.618793,282.154504 C215.508799,293.424437 218.261495,304.944023 224.320489,314.754585 C229.449899,309.74145 236.179908,306.784267 242.761901,304.128918 C250.687541,300.867496 258.548675,297.456491 266.302478,293.810429 C287.262022,283.974342 307.443215,272.442903 326.255335,258.944192 L326.89476,258.497477 C337.349213,251.154732 348.243599,241.526497 348.51115,227.826054 C349.412892,205.366312 330.595955,190.044838 316.504531,175.167836 Z M85.4856888,162.437336 C67.5892297,145.679608 40.1884801,124.012383 15.4707407,139.932719 C-7.61749289,159.435545 10.6753687,206.198095 15.3915138,231.381299 C21.3884055,257.852778 27.7265619,284.25187 33.6054161,310.747923 C54.5689755,313.509048 75.8478368,314.955452 96.9149801,312.468117 C96.6767639,293.786122 95.4136828,275.1279 95.0009532,256.43896 C94.6171308,246.810151 94.7504248,237.143679 93.3045328,227.607023 C92.0775856,219.85253 93.653292,210.485223 89.3265902,203.71156 C87.7251886,201.24506 85.1206025,199.085736 84.5384449,196.112259 C84.525062,195.973094 84.7068022,195.927685 84.7951296,196.005147 C86.0614226,197.116328 87.0785254,198.441198 88.421904,199.50697 L89.4098609,200.270583 C91.0165819,201.519164 92.6170222,202.851887 93.6120726,204.627483 C93.7143182,203.870758 91.7965441,197.126478 92.9450673,197.931016 L93.1614813,198.52236 C94.7059802,202.76248 96.0983239,207.052024 96.4947561,211.58839 C98.0107746,227.050632 98.8579141,242.589 100.156058,258.073678 C103.287129,259.482421 106.163924,261.553331 109.583263,262.302042 C115.183525,262.855042 120.791589,262.542268 126.401598,262.468491 L126.927542,262.462308 C143.296206,262.218436 159.613747,263.135695 175.970366,262.876864 C192.689395,263.524341 209.780201,259.152539 224.049886,250.370204 C216.231845,215.126539 243.075062,189.99008 255.486392,159.862655 C241.189407,163.46224 226.961209,167.328402 212.703837,171.121108 C214.628034,175.816648 208.404971,189.122771 206.062958,193.838345 C193.532519,218.496943 168.191671,234.612271 145.404018,211.078209 C145.414724,211.150328 145.422486,211.222448 145.430783,211.297239 C144.665547,210.60008 143.820014,209.986527 142.968056,209.398082 C141.823548,218.775006 138.727808,228.22672 132.885356,235.756573 L132.248043,236.554676 C130.425635,238.822997 127.787157,241.805804 124.869247,240.091781 C122.720751,238.931986 122.316587,236.674633 122.733331,234.396979 C115.713716,242.022458 108.065638,243.745055 112.862081,230.622971 L112.703332,230.787183 C110.018283,233.539561 102.891711,239.621303 102.166174,232.431044 C102.482547,228.851225 104.691801,225.655512 105.814629,222.302203 C104.615251,223.0421 103.266251,223.408042 101.893163,222.881834 C98.2104479,221.471489 100.105471,217.267432 100.926915,214.620365 C103.00689,207.928972 105.129155,201.248532 107.287019,194.581447 C106.539181,190.618057 108.907425,186.674434 106.687196,183.229239 C105.737008,183.726065 104.457332,183.621892 103.539531,182.398525 C98.1542396,175.239956 91.9740018,168.607595 85.4856888,162.437336 Z M33.8543386,311.963277 C33.8599594,312.003611 33.8599594,312.038336 33.8623684,312.078135 C34.0687332,312.091758 34.2721537,312.110188 34.4779832,312.128886 C34.2681389,312.078135 34.0609711,312.017234 33.8543386,311.963277 Z M210.645542,286.227421 C207.342366,252.277107 215.913599,268.265557 181.101649,268.651265 C181.257962,269.501479 180.138346,269.403716 180.533945,269.167056 C180.029944,267.29087 177.171618,272.788811 176.773342,273.501997 C176.021489,275.093977 175.678618,277.075939 175.413903,278.817234 C173.548323,288.570784 180.500488,297.115658 190.638059,292.96903 C189.333223,292.860316 187.866989,293.331232 186.784042,292.498915 C186.789395,292.496244 186.792072,292.490902 186.797157,292.48556 C185.82743,290.751477 191.146343,290.676151 192.20413,290.212714 C196.326072,289.352885 200.458454,288.553956 204.556308,287.589419 C206.553309,287.119304 208.598221,286.382346 210.645542,286.227421 Z M244.113845,273.109344 C243.816744,272.935722 243.969041,273.504668 244.068343,273.216188 C244.081726,273.178793 244.100194,273.144068 244.113845,273.109344 Z M281.599436,91.831945 C266.699951,92.8937103 257.053801,100.239257 246.479947,109.658918 C245.690354,110.340051 244.889787,111.007828 244.071019,111.654236 C248.691075,119.74048 253.672202,127.612769 258.486846,135.587361 L259.389152,137.087282 C260.793351,139.426736 262.164522,141.808261 263.000373,144.412968 C265.847993,153.407122 255.902869,169.238244 252.288942,178.069193 C234.995518,208.53291 218.751316,229.682474 234.485896,265.763798 C235.330627,263.486945 233.464778,255.538263 236.255387,255.228949 L236.199144,254.664051 C235.307162,245.492201 235.267043,234.445548 238.050841,226.346528 C236.510198,242.017917 238.18012,258.442024 244.129904,273.072216 C245.686607,259.202221 243.624029,243.708194 244.102871,229.460772 C244.084402,227.270464 247.403102,227.294504 247.49705,229.460772 L247.610223,233.13941 C247.999074,245.60602 248.670875,258.660499 255.933382,269.206856 C256.632774,253.15243 253.699236,236.241379 259.335324,220.849121 C259.795964,219.740611 261.45518,219.826086 261.503358,221.14321 C261.606942,226.382588 263.826903,244.118209 267.65683,247.194257 C268.708996,243.986256 268.601665,240.476421 268.432773,237.116167 C267.911374,224.939388 266.152321,213.057499 263.993119,201.051137 C263.602605,198.678659 264.301997,195.758604 266.762851,194.843483 C268.590959,193.107263 271.115248,191.875615 273.202985,190.887572 C286.470556,184.344159 304.722733,185.604655 313.697059,172.128115 L314.132526,171.472167 C315.178863,169.891933 316.159624,168.331459 316.600888,166.435985 C315.391606,161.92662 313.652896,157.53158 312.176491,153.104486 C310.856639,149.193183 309.501882,145.294861 308.081001,141.419257 L307.604881,140.128244 C301.261372,122.842438 293.185308,106.25005 281.599436,91.831945 Z M178.864023,268.707358 C178.524431,268.817441 178.255539,269.156776 177.966615,269.409528 L177.904128,269.462152 L178.080586,269.3219 C178.267846,269.171245 178.436684,269.031061 178.696408,268.833397 L178.864023,268.707358 Z M100.287211,259.801885 L100.367508,260.848959 L100.367508,260.848959 C100.881413,260.9534 101.384879,261.084017 101.888077,261.21223 C101.304314,260.790195 100.761234,260.322751 100.287211,259.801885 Z M176.195333,236.149173 C176.136448,235.943764 176.430872,235.823564 176.54088,236.004398 C180.871062,243.608508 189.395454,246.635674 197.60267,247.840611 C198.999848,248.166753 198.828547,250.092622 197.60267,250.498363 C193.015001,252.01582 187.718037,249.972155 183.962786,247.250563 C180.113855,244.464331 177.488392,240.70074 176.195333,236.149173 Z M258.749419,231.808676 C257.936807,237.661607 258.010681,243.630999 257.940822,249.539489 C258.208481,243.630999 258.430637,237.717166 258.749419,231.808676 Z M139.199503,242.116401 C140.050925,242.410222 140.931522,242.602809 141.798468,242.677333 C140.87799,243.115662 139.825824,242.896364 139.199503,242.116401 Z M72.4319773,52.8444561 C59.415738,67.5537123 48.0207071,83.6551499 34.0208223,97.4789339 C25.8176205,104.877902 18.0565908,114.990449 24.4541674,126.126297 C25.8034346,126.657848 26.0405802,128.641412 24.8770681,129.574697 C25.1548977,129.538905 26.9404485,128.675336 26.5392282,129.382378 C22.9528702,130.910251 19.7995838,133.1246 17.0828487,135.803721 C34.0095806,123.376392 56.4538276,133.325734 71.2168071,144.463452 C78.5027428,149.776285 85.2769151,155.631354 91.6204247,161.932764 C93.8904376,162.338505 96.2375361,163.548517 98.129615,164.494089 C111.179579,170.750625 113.224223,179.205215 112.147433,192.719685 C108.230784,200.17074 106.378051,208.691307 103.649271,216.679789 C100.842603,222.889847 106.364132,218.704488 107.155599,215.995718 C109.077139,213.608754 110.00433,210.436909 111.182255,207.661985 L111.266836,207.464467 C111.601409,206.670881 112.318734,206.080566 113.242156,206.345006 C113.983514,206.557023 114.671029,207.472159 114.38327,208.264773 L113.792026,209.784524 C110.929121,217.128137 107.971205,224.510208 105.691506,232.03572 C113.394722,227.430997 117.208857,218.71544 121.252912,211.019444 C122.363963,208.973376 125.353709,210.776373 124.352666,212.827784 C123.423891,214.7216 122.476379,216.610073 121.472659,218.466493 C118.849337,224.045101 116.947622,229.931154 115.372719,235.884786 C124.031208,230.730884 127.049059,220.230492 129.539623,211.369626 C129.693259,208.84169 133.345461,209.33905 132.968598,211.820776 C132.042231,216.746566 130.629261,221.599702 128.418401,226.111203 L127.833834,229.522405 C127.444778,231.796804 127.059409,234.071994 126.692003,236.349559 C126.900509,236.248057 127.12561,236.234701 127.342145,236.288124 C135.013509,228.578505 138.084089,217.941887 140.762549,207.718222 C139.489029,203.394233 141.047606,198.972481 140.869613,194.514669 C141.547057,188.807313 139.702621,183.488604 137.148355,178.392664 C135.617615,162.628053 120.403898,155.790017 109.796854,146.523678 C96.8055077,133.710374 89.9748594,114.091621 71.7146522,107.741063 C69.8161495,107.86153 67.9858998,107.45472 66.2089141,106.84357 C66.1312931,106.822202 66.1179102,106.688646 66.2089141,106.675291 C68.0164129,106.380667 69.822841,105.920168 71.6346223,105.590821 C72.1228316,104.001512 74.074866,103.807322 75.542706,104.517837 C91.3318887,97.6111537 104.41879,85.4664281 116.965288,73.911483 C104.714552,62.6006772 88.8531021,55.5788691 72.4319773,52.8444561 Z M145.085504,213.177646 C145.347809,213.468797 145.577728,213.783987 145.749297,214.128827 C145.796137,214.217241 145.790784,214.322483 145.805506,214.419978 C145.580405,213.997943 145.342188,213.580983 145.085504,213.177646 Z M94.9985443,165.367541 C99.3603094,169.934869 103.548364,174.694516 107.490172,179.673995 C106.076399,172.487379 101.445905,168.33354 94.9985443,165.367541 Z M240.982239,110.649899 C231.511673,127.723887 216.682582,142.722157 213.215332,162.520141 C212.936967,164.213623 212.917963,165.928741 212.883168,167.637983 C223.455416,163.335897 234.585465,160.655707 245.492019,157.353951 C249.626007,156.251585 253.640618,154.5167 257.983647,154.2958 C261.563314,148.101768 258.688393,142.038621 255.537248,136.38896 C251.431899,127.419915 244.937966,119.663285 240.982239,110.649899 Z M88.3606102,102.345425 C85.6221947,103.879175 82.7981285,105.282041 79.8196233,106.277296 C82.383793,107.575454 84.7282149,109.215514 86.8991941,111.082619 C87.989903,108.310543 88.3983501,105.307951 88.3606102,102.345425 Z M157.98665,3.92044637 C156.564847,16.4287098 156.633903,29.3355025 159.962238,41.5432663 C164.925165,60.5682313 183.301268,78.3548708 204.093258,74.6246688 C225.071807,70.2491272 235.383088,48.5656086 239.707916,29.4989743 C228.660574,15.5098488 211.366346,6.75903257 193.542423,6.05466147 C181.952804,5.58187537 168.850914,9.31074187 157.98665,3.92044637 Z" id="ðŸ–-Ink" fill="#919191"></path>
                    </g>
                    <g id="Head" transform="translate(155.088532, -0.000000)">
                        <g id="HEAD">
                            <path d="M93.5610102,62.4273987 C92.9976932,57.4868007 93.7267202,47.1599858 93.7755682,46.5325951 C94.0843862,42.5662887 92.2224962,26.9039375 88.7027712,28.3470675 C82.7985248,23.6817743 74.9345898,22.6516015 67.5812025,22.1595007 C52.3070933,21.1371639 36.0582289,23.4840459 24.2639336,33.7439819 C18.4312072,39.0722007 12.75277,46.8217435 13.2092093,54.8907339 C7.90979898,62.5391923 0.438819682,73.0308127 7.04165348,81.9724723 C9.28608128,84.8292163 12.8532188,85.8930843 15.6727494,88.0566043 C21.3439542,92.6223803 24.9019844,99.1748433 30.6270297,103.713454 C45.7945294,117.317534 71.5490637,120.15939 86.4511107,104.685902 C97.9745962,93.4793773 96.1113082,76.7139939 94.0843862,62.4273987 C92.7216712,52.8224168 94.6599832,72.0659934 93.5610102,62.4273987 Z" id="ðŸŽ¨-Background" fill="#FFFFFF"></path>
                            <path d="M47.177085,1.20794341 C51.2620334,0.385163408 55.456629,-0.126788592 59.6281961,0.0273194079 L59.9498232,0.0397879079 C63.0885425,0.164997608 67.0634826,0.441974408 69.8015756,2.26371381 C69.9591117,2.10594901 70.2124256,2.02497701 70.4421876,2.13441981 C73.6960152,3.68464181 77.2748591,4.80545101 80.7008773,5.91920781 C84.1111943,7.02747941 87.6492152,7.75910061 91.2236102,8.05399541 C92.5684242,8.16500541 93.7193282,9.61440421 92.8677952,10.9143966 C92.6652492,11.2241798 92.4679362,11.5370974 92.2714082,11.8507986 C92.6000882,11.8165814 92.9287682,11.7813194 93.2574482,11.748147 C94.3390052,11.6394878 95.4195142,12.791641 95.3554012,13.8427098 C95.3153622,14.503807 95.2439212,15.1570682 95.1382002,15.8024934 C95.5500962,15.7938738 95.9596382,15.855517 96.3553102,16.0224238 C98.3587932,16.8668834 98.2193132,19.2487662 98.0693662,21.0609718 C97.8615862,23.5758054 96.9192482,26.239523 95.1696022,28.1217302 C96.4759482,29.4760522 97.4007532,31.0934026 97.9523912,33.0142674 C98.3525122,34.4169114 98.5752092,35.9109754 98.4653002,37.3710834 L98.4302612,37.8082324 C98.2943402,39.3927348 98.0241052,41.1469795 96.8820882,42.2868674 C96.2959072,42.8745674 95.5736482,43.0887514 94.8851472,43.0208394 C95.3014932,46.6724154 95.5684142,50.3448874 95.8196352,54.0042994 L95.9374372,55.7533348 C96.4978342,64.2109571 96.9189772,72.7236608 96.8088152,81.1952194 C96.7064952,89.1121913 95.1392462,96.7966953 90.2744682,103.224827 C85.84383,109.078319 79.4824584,113.393343 72.2860407,115.033679 C68.4078257,115.919147 64.4484875,115.981835 60.5231688,115.417643 C58.6204359,115.143383 56.7051421,114.722851 54.8992337,114.059403 C52.9001997,113.322819 51.4635331,112.238839 50.1184572,110.614175 C49.4822939,109.843635 49.7884687,108.203299 51.0552999,108.357407 C52.9712123,108.589281 54.7202176,108.868755 56.5570008,109.434362 L56.8200231,109.517135 C58.6494833,110.102223 60.5441038,110.538427 62.4567808,110.723879 C66.3745106,111.102619 70.3519053,110.721267 74.1047717,109.535419 C80.2151846,107.602539 85.4777286,103.295351 88.8508862,97.8832873 C92.8547112,91.4682153 93.3074312,84.1859593 93.2495982,76.8096714 C93.1876192,68.7154958 92.9238902,60.6166317 92.4933432,52.5308462 L92.4200472,51.1833394 C92.1923792,47.0224234 91.9725612,42.8588954 91.7791732,38.6953674 C91.7189852,37.3893674 91.6273942,36.0729194 91.4622692,34.7695314 C89.9525922,33.8866754 88.5996652,32.6694834 87.7177772,31.1675834 C85.94615,31.8989434 84.082932,32.4265674 82.3686144,32.8470994 C78.397762,33.8218978 74.2751305,34.058545 70.2333606,33.4481206 C69.1431688,33.8976458 68.0312568,34.2928414 66.9023351,34.6329238 C66.597207,34.7679642 66.2920789,34.9006538 65.9872125,35.0307314 C63.2653965,36.1930714 60.5045889,37.1777954 57.6315173,37.8987074 L56.9257009,38.0743904 C55.4137068,38.4464233 53.7713826,38.8127887 52.1622398,38.9278354 C51.897935,39.0297034 51.6126952,39.1158994 51.3010249,39.1916474 C49.8358342,39.5468794 48.3151657,39.6591954 46.8133388,39.5338194 C45.3502416,39.4110554 44.2930225,37.9352754 45.0990212,36.5535274 C45.6878191,35.5452954 46.2821123,34.5396754 46.8813776,33.5366674 C44.7957249,34.4038514 42.6420334,35.1247634 40.4700237,35.7359714 C38.2770789,36.3524034 36.0527316,36.8721914 33.8255058,37.3501874 C32.6348257,37.6035514 31.4391736,37.8281834 30.2511105,38.0815474 C29.4006248,38.2617754 28.0948021,38.3558074 27.4010674,38.9147754 C26.6345835,39.5285954 26.4173825,40.9599714 26.1266472,41.8428274 C25.7445829,42.9894954 25.3860704,44.1413874 25.0589605,45.3063394 C24.4076193,47.6310194 23.8737759,49.9896554 23.460309,52.3717994 C23.0468421,54.7565554 22.7691912,57.1648194 22.6147954,59.5809194 C22.4606612,61.9944074 22.5284384,64.4235674 22.2800965,66.8266074 C22.146374,68.1012634 20.775391,68.7568754 19.7626588,67.8661834 C19.6438524,67.7617034 19.5241157,67.6560625 19.405542,67.5492608 L19.2288154,67.3881874 C18.3623667,66.6045874 17.5223485,65.7739714 16.8291372,64.8388754 C16.703527,64.6664834 16.5831506,64.4862554 16.4706248,64.3034154 C16.4523066,64.3034154 16.4366053,64.2981914 16.4182872,64.2851314 L16.2260751,64.1407633 C14.1096348,62.5683874 10.5737754,60.5184446 8.51007828,63.1306274 C7.85246628,63.9627913 7.51577548,65.0224034 7.23633428,66.044669 L6.74600598,67.8742253 C6.42885098,69.0685741 6.13037558,70.2695717 5.95574248,71.4916394 C5.56059378,74.2290154 5.75947658,77.3843114 7.64650818,79.5783914 C8.40016938,80.4560234 9.43907038,81.0829034 10.5980862,81.2474594 C11.244717,81.3362674 11.8832356,81.2265634 12.524371,81.1455914 C13.1759739,81.0646194 13.8037632,81.1952194 14.4556278,81.1325314 C15.4919119,81.0306634 15.944632,82.2687514 15.5573339,83.0471273 C15.3479836,83.4650473 15.1017353,83.8255033 14.8219909,84.1311073 C15.0467808,84.3243953 15.2616266,84.5333553 15.46836,84.7527633 C16.0807098,84.9486633 16.6299927,85.3691953 17.0411044,85.9255513 C17.3734481,86.3748153 17.5459004,86.8632593 17.5749478,87.3778233 C17.6113224,87.5058113 17.6427249,87.6364113 17.6717723,87.7696233 L18.2331934,88.6791013 C18.3566724,88.8785743 18.4797076,89.0756233 18.6031196,89.2689113 C20.0319356,91.5152313 21.6180261,93.4167673 23.5885361,95.2085993 C25.4857735,96.9325193 27.5449957,98.4762113 29.3273521,100.325507 L29.5373121,100.545077 C31.1989421,102.29275 32.9504214,104.408345 32.3001269,106.949539 C32.1326466,107.602539 31.2190941,108.072699 30.6227073,107.631271 C28.7045349,106.210343 27.7386448,103.958799 26.1112076,102.234879 C24.4361433,100.458719 22.5807759,98.8627873 20.9010012,97.0918513 C19.3122939,95.4201713 18.0588087,93.5264713 17.114377,91.4420953 C16.7372847,91.8574033 16.1880018,92.1525593 15.42649,92.2674873 C14.1180504,92.4633873 12.898323,91.6980713 12.328105,90.5670753 C11.9614803,90.7290193 11.5875282,90.8752913 11.2104359,90.9902193 C9.22684148,91.5962033 7.97885178,89.3942873 8.72727928,87.7670113 C9.12740008,86.8946033 9.62722398,86.1371233 10.2476861,85.4997953 C8.30831688,85.2333713 6.33518998,84.2329753 5.06076988,82.9844394 C1.86320518,79.8474274 1.42356948,75.1327674 2.14321128,70.9405074 C2.52527558,68.7176954 3.18446748,66.4687634 4.04044868,64.3817754 C4.18934908,64.0187074 4.34924038,63.6530274 4.52430958,63.2925714 C4.42748508,63.2899594 4.32804368,63.2481674 4.26523858,63.1671954 C3.68690828,62.3783714 2.98322948,61.7332074 2.55379958,60.8503514 C2.15865088,60.0406314 1.71927688,59.2204634 1.40760648,58.3767874 C0.766732782,56.6502554 0.452707282,54.7017034 0.243356982,52.8759154 C-0.188428118,49.1381434 -0.0212095184,45.4238794 0.552148682,41.7096154 C1.52798298,35.3833514 3.88526768,29.3292578 7.35812808,24.0169722 C7.16903988,23.9177908 6.98783438,23.798076 6.81896098,23.6565117 L6.73557248,23.5839026 L6.60001818,23.461661 C5.60900608,22.5665286 5.69457798,20.888841 6.60001818,19.9822158 L6.88598448,19.6960994 C7.24809358,19.3370309 7.56036048,19.0525528 8.14528538,18.6615886 C8.23164238,18.6038634 8.31983118,18.5495338 8.40906678,18.498861 C8.10289188,17.9341466 7.99664658,17.273833 8.20992228,16.5453462 C8.95311598,14.007527 12.611513,14.0973798 14.9303297,15.2040842 C17.4956563,12.9188454 20.340204,10.9350314 23.423411,9.32865141 C30.7666357,5.50468341 39.0697316,2.83783141 47.177085,1.20794341 Z M9.21933108,68.0490234 C10.5905758,67.6023714 12.4119237,68.5400794 13.6444738,69.1042714 C15.2067506,69.8199594 16.5361252,70.8778194 17.8236298,71.9957554 C18.4647652,72.5547234 18.5796462,73.4689234 18.4202783,74.2499114 C18.4043153,74.3282714 18.3888757,74.4092434 18.3702959,74.4902154 C18.2001987,75.3234434 17.2685897,75.9790554 16.4442728,75.9555474 C14.7197494,75.9085314 13.898311,74.4223034 12.9219534,73.1633194 C12.8070724,73.3670554 12.6631441,73.5551194 12.4849346,73.6961674 L12.3645975,73.7901857 C11.9594826,74.0980916 11.5128829,74.3441809 10.9776122,74.3204354 C10.5981647,74.3021514 10.2346802,74.2055074 9.89945798,74.0305034 C9.06205658,73.5890754 8.69333838,72.5077074 8.92074518,71.6274634 C9.06205658,71.0737194 9.38654968,70.6401274 9.81048408,70.3397474 L9.65245778,70.2318647 C9.31433988,69.9969913 9.00595738,69.749401 8.76562958,69.3840175 L8.71139478,69.2975594 L8.73232988,69.2975594 C8.47064188,68.8482954 8.64100078,68.2370874 9.21933108,68.0490234 Z" id="ðŸ–-Ink" fill="#919191"></path>
                        </g>
                        <g id="FACE" transform="translate(42.916819, 45.187538)" fill="#919191">
                            <path d="M24.4904603,49.3475448 C22.731322,48.6312428 21.1617259,47.4364039 20.0141997,45.9100745 C19.615247,45.3794596 19.5118053,44.8191387 19.5954968,44.3066536 C19.6896021,43.7304003 20.0311592,43.2081293 20.4969665,42.8578059 C20.9642166,42.5063974 21.5486872,42.3330914 22.1137484,42.4214379 C22.6047534,42.4982058 23.0935255,42.7665412 23.480352,43.3230593 L23.5611698,43.4343497 C24.243394,44.3555896 25.1323948,45.1114559 26.1453492,45.5986555 C27.1216726,46.0682367 28.2135916,46.2874083 29.3435495,46.1599554 C31.4956273,45.9173056 32.9789476,44.7556089 34.5555553,43.1780443 C34.7509804,42.9788728 34.9465307,42.7734575 35.1430289,42.5647357 C35.2671215,42.3755304 35.4393307,42.253928 35.6305298,42.1901252 C35.8428225,42.1192836 36.082975,42.1232918 36.3029364,42.1999104 C36.5150902,42.2738093 36.7047451,42.4138446 36.8319138,42.6002223 C36.9527773,42.7773592 37.0213033,42.9961879 36.9990684,43.247895 C36.8547587,44.8827826 35.9984239,46.34185 34.782036,47.4875262 C33.4310818,48.7599459 31.6402934,49.6402143 29.9543444,49.948952 C28.0969236,50.2890385 26.2042613,50.045386 24.4904603,49.3475448 L24.4904603,49.3475448 Z M30.8305663,24.1262298 C32.8066708,25.3251497 35.8176472,28.120797 33.6918136,31.0930656 C31.1895041,33.7138129 27.5867433,30.7089471 25.8113653,29.3499633 C24.1651515,28.2967432 22.3155381,31.0055463 23.8428962,32.2353584 C36.6718153,41.7156741 41.8780624,24.4397306 31.8300524,22.7165939 C30.7237304,22.5267116 30.3128396,23.7553308 30.8305663,24.1262298 Z M7.84102011,13.0981687 C8.05935381,10.3931095 12.1868713,9.77883913 12.5974597,12.4556167 C12.9651312,14.8534327 12.5322994,17.0561323 11.4502199,19.2149503 C10.4162909,21.2773855 7.81759451,20.3151624 7.62106691,18.4371344 C7.35762971,15.9197159 7.70520411,14.7808704 7.84102011,13.0981687 Z M39.2602397,11.9005928 C39.8356914,11.1483368 40.6665506,10.6348176 41.6620114,10.9250108 C44.7721723,11.8321584 43.8554795,16.239386 42.7631942,18.3846216 C42.169686,19.5495736 40.2512519,19.8449908 39.3842798,18.8192584 C37.971165,17.1465336 37.2944401,13.8060468 39.0909276,12.1583972 C39.1396016,12.073246 39.193771,11.9873112 39.2602397,11.9005928 Z M11.4064133,1.26165563 L11.8976986,1.17582663 C13.4175294,0.913465626 15.3072642,0.661365826 16.382409,1.88096083 C16.952627,2.52769203 17.148893,3.72973443 16.382409,4.34877843 C15.0341929,5.43798243 13.5436185,5.01588323 11.9279573,5.10808683 C10.5964892,5.18435723 9.31683531,5.40428763 8.03430281,5.77022883 C5.22063431,6.57289643 2.92798651,8.03822843 0.524906315,9.64722043 C0.209572415,9.85827003 -0.112303785,9.45576083 0.0381668149,9.16138843 C1.42537441,6.44934883 4.11369441,4.22157403 6.80646311,2.86359523 C8.24365311,2.13876523 9.81639751,1.53748283 11.4064133,1.26165563 Z M36.4250804,0.046785026 L36.8011076,0.123598926 C40.8931834,0.977359526 46.2097478,2.68281643 48.1475431,6.69470603 C48.221382,7.26200133 48.1433642,7.38358413 48.0799217,7.46301933 L48.0587987,7.48945273 C48.006522,7.55728573 47.9648092,7.65079323 47.7184595,7.72800313 C47.6500975,7.71174543 47.581055,7.69452643 47.5112812,7.67627543 C46.6230297,7.44393133 45.920251,7.12384463 45.2398867,6.79171643 L44.5021992,6.42896203 C43.6463343,6.01009683 42.7829128,5.60647643 41.8678842,5.30850863 C39.9151347,4.67276223 37.9065639,4.22491853 35.8668742,3.98578013 C35.4247871,3.93399293 34.999085,3.78506683 34.6632367,3.52983183 C34.3444492,3.28756263 34.1009161,2.95213513 33.9898787,2.50627903 C33.8459742,1.92926993 33.8873292,1.49242683 34.1974977,0.971880126 C34.4307253,0.580960726 34.7644366,0.310002526 35.1476217,0.154409026 C35.5382623,-0.00421167403 35.9830028,-0.041606474 36.4250804,0.046785026 Z" id="ðŸ–-Ink"></path>
                        </g>
                        <g id="FACIAL-HAIR" transform="translate(44.266744, 102.131064)" fill="#919191">
                            <path d="M1.08280535,1.65806707 C-1.78873225,2.92373357 1.62271225,5.35471877 4.67596415,7.44220307 C7.73029765,9.53042687 12.972245,13.0551224 18.2957547,13.5728515 C22.5582212,13.9859888 26.2058194,13 30.2905742,11.3994908 C33.4214356,10.1731528 39.7053411,4.60776357 39.7053411,1.65806707 C39.7053411,-1.29162943 38.359308,1.60916757 33.7284211,3.19295337 C29.0975341,4.77673907 27.7702356,-0.237839434 24.7485443,0.00883306553 C21.726853,0.255505466 23.2401648,4.60776357 16.5529457,4.60776357 C9.86572655,4.60776357 3.95434285,0.392400566 1.08280535,1.65806707 Z" id="ðŸ–-Ink"></path>
                        </g>
                    </g>
                </g>
                <path d="M176.507314,171.924086 L178.476565,174.441809 L182.467391,174.441859 L182.467393,193.460887 C185.836211,189.658532 190.759893,187.261164 196.244429,187.261164 C206.399246,187.261164 214.631353,195.479794 214.631353,205.617987 C214.631353,215.654799 206.563065,223.810246 196.54849,223.972352 L196.244429,223.974811 L196.244429,223.974811 C190.759893,223.974811 185.836212,221.577443 182.467394,217.775088 L182.467391,223.974811 L177.857504,223.974811 L177.857501,217.775088 C174.488683,221.577443 169.565002,223.974811 164.080467,223.974811 C153.925649,223.974811 145.693542,215.756181 145.693542,205.617987 C145.693542,204.077863 145.883519,202.582037 146.241354,201.152594 L141.575229,204.794492 L138.851134,201.311678 L176.507314,171.924086 Z M163.897143,192.102746 C156.420069,192.102746 150.358702,198.458356 150.358702,206.298399 C150.358702,214.138441 156.420069,220.494051 163.897143,220.494051 C171.177366,220.494051 177.115443,214.468689 177.423066,206.914447 L177.423066,205.682369 C177.115453,198.128118 171.177372,192.102746 163.897143,192.102746 Z M196.927092,191.883601 C189.646862,191.883601 183.708781,197.908973 183.401169,205.463224 L183.401169,206.695302 C183.708791,214.249544 189.646869,220.274906 196.927092,220.274906 C204.404166,220.274906 210.465533,213.919296 210.465533,206.079253 C210.465533,198.239211 204.404166,191.883601 196.927092,191.883601 Z M177.47528,175.533753 L163.943098,187.122338 L163.981445,187.122019 C169.35324,187.122019 174.175711,189.698643 177.47528,193.785306 L177.47528,175.533753 Z" id="logo-biwabits" fill="#FFFFFF" transform="translate(176.741243, 197.949449) rotate(16.000000) translate(-176.741243, -197.949449) "></path>
            </g>
        </g>
    </g>
</svg>
